{"glyphs":{"0":{"ha":794,"x_min":50,"x_max":743,"o":"m 743 496 q 709 222 743 336 q 599 47 675 108 q 396 -14 524 -14 q 133 122 217 -14 q 50 496 50 257 q 83 771 50 657 q 193 946 117 885 q 396 1007 269 1007 q 658 872 574 1007 q 743 496 743 738 m 258 496 q 288 241 258 326 q 396 156 317 156 q 504 240 474 156 q 535 496 535 325 q 504 751 535 665 q 396 838 474 838 q 288 751 317 838 q 258 496 258 665 z "},"1":{"ha":794,"x_min":82,"x_max":574,"o":"m 574 0 l 364 0 l 364 574 q 366 668 364 610 q 369 771 368 726 q 340 741 363 763 q 297 703 317 719 l 183 611 l 82 738 l 401 992 l 574 992 l 574 0 z "},"2":{"ha":794,"x_min":53,"x_max":749,"o":"m 749 0 l 56 0 l 56 146 l 304 397 q 425 527 379 475 q 492 622 471 579 q 513 713 513 664 q 480 801 513 772 q 392 831 447 831 q 281 804 335 831 q 167 729 226 778 l 53 864 q 144 933 96 901 q 255 985 192 965 q 407 1006 318 1006 q 574 970 504 1006 q 683 874 644 935 q 721 738 721 814 q 688 588 721 656 q 594 453 656 519 q 444 306 532 386 l 317 186 l 317 176 l 749 176 l 749 0 z "},"3":{"ha":794,"x_min":53,"x_max":739,"o":"m 710 769 q 648 606 710 667 q 496 522 586 544 l 496 518 q 677 446 615 504 q 739 289 739 388 q 697 134 739 203 q 566 26 654 65 q 339 -14 478 -14 q 53 40 178 -14 l 53 218 q 187 169 117 186 q 317 153 257 153 q 474 192 429 153 q 519 301 519 231 q 499 372 519 343 q 426 415 478 400 q 281 429 374 429 l 206 429 l 206 590 l 282 590 q 422 608 374 590 q 487 655 469 625 q 504 724 504 685 q 472 806 504 776 q 363 836 439 836 q 240 812 292 836 q 151 764 188 788 l 54 908 q 191 978 113 950 q 378 1006 269 1006 q 620 944 531 1006 q 710 769 710 882 z "},"4":{"ha":794,"x_min":24,"x_max":771,"o":"m 771 206 l 651 206 l 651 0 l 447 0 l 447 206 l 24 206 l 24 351 l 458 992 l 651 992 l 651 368 l 771 368 l 771 206 m 447 536 q 449 614 447 568 q 452 699 450 660 q 456 751 454 739 l 450 751 q 424 697 438 724 q 390 643 410 671 l 208 368 l 447 368 l 447 536 z "},"5":{"ha":794,"x_min":68,"x_max":731,"o":"m 417 633 q 578 599 507 633 q 690 497 649 564 q 731 332 731 431 q 631 78 731 171 q 335 -14 531 -14 q 188 0 257 -14 q 68 40 119 14 l 68 221 q 192 176 119 194 q 328 157 264 157 q 470 195 421 157 q 519 314 519 233 q 321 464 519 464 q 240 456 282 464 q 171 442 199 449 l 88 486 l 125 992 l 663 992 l 663 814 l 308 814 l 290 619 q 341 628 314 624 q 417 633 368 633 z "},"6":{"ha":794,"x_min":49,"x_max":749,"o":"m 49 421 q 61 590 49 507 q 105 748 74 674 q 192 880 136 822 q 335 970 249 938 q 546 1003 422 1003 q 614 1001 575 1003 q 679 993 653 999 l 679 825 q 622 835 653 832 q 560 839 590 839 q 369 800 436 839 q 274 691 301 761 q 242 529 246 621 l 250 529 q 330 611 278 578 q 465 644 382 644 q 672 563 596 644 q 749 331 749 481 q 658 78 749 169 q 411 -14 567 -14 q 228 33 310 -14 q 97 176 146 79 q 49 421 49 272 m 407 154 q 507 197 468 154 q 546 328 546 239 q 513 442 546 400 q 411 483 479 483 q 331 463 365 483 q 276 411 296 443 q 257 346 257 379 q 274 256 257 300 q 324 183 290 213 q 407 154 358 154 z "},"7":{"ha":794,"x_min":38,"x_max":749,"o":"m 154 0 l 526 815 l 38 815 l 38 992 l 749 992 l 749 860 l 374 0 l 154 0 z "},"8":{"ha":794,"x_min":49,"x_max":744,"o":"m 397 1004 q 555 978 483 1004 q 670 899 626 951 q 714 765 714 846 q 663 619 714 676 q 536 524 613 561 q 637 459 589 496 q 715 373 685 422 q 744 257 744 324 q 701 114 744 175 q 578 19 657 53 q 397 -14 500 -14 q 140 57 231 -14 q 49 251 49 128 q 104 417 49 354 q 239 518 160 479 q 126 619 172 560 q 79 767 79 678 q 124 899 79 846 q 241 978 168 951 q 397 1004 314 1004 m 396 851 q 310 825 344 851 q 276 750 276 799 q 313 667 276 699 q 397 611 349 635 q 481 665 444 633 q 517 750 517 696 q 483 825 517 799 q 396 851 449 851 m 243 264 q 281 175 243 210 q 394 140 319 140 q 511 174 472 140 q 550 263 550 207 q 528 328 550 300 q 473 380 506 357 q 406 422 440 403 l 388 432 q 283 361 324 401 q 243 264 243 321 z "},"9":{"ha":794,"x_min":44,"x_max":744,"o":"m 744 568 q 732 399 744 483 q 688 241 719 315 q 601 109 657 167 q 458 19 544 51 q 247 -14 371 -14 q 179 -12 218 -14 q 114 -4 140 -10 l 114 164 q 172 154 142 158 q 233 150 203 150 q 424 190 357 150 q 519 299 492 229 q 551 460 547 368 l 543 460 q 466 378 514 411 q 324 344 418 344 q 121 426 197 344 q 44 658 44 508 q 135 911 44 819 q 382 1003 226 1003 q 565 956 483 1003 q 696 813 647 910 q 744 568 744 717 m 386 835 q 286 793 325 835 q 247 661 247 751 q 281 547 247 589 q 382 506 314 506 q 463 526 429 506 q 517 578 497 547 q 536 643 536 610 q 519 733 536 689 q 469 806 503 778 q 386 835 436 835 z "},"\u0000":{"ha":0,"x_min":0,"x_max":0,"o":""},"\r":{"ha":361,"x_min":0,"x_max":0,"o":""}," ":{"ha":361,"x_min":0,"x_max":0,"o":""},"!":{"ha":397,"x_min":79,"x_max":317,"o":"m 282 329 l 117 329 l 82 992 l 317 992 l 282 329 m 79 97 q 114 187 79 161 q 199 213 149 213 q 282 187 247 213 q 317 97 317 161 q 282 9 317 36 q 199 -18 247 -18 q 114 9 149 -18 q 79 97 79 36 z "},"\"":{"ha":656,"x_min":90,"x_max":565,"o":"m 279 992 l 251 633 l 118 633 l 90 992 l 279 992 m 565 992 l 538 633 l 404 633 l 376 992 l 565 992 z "},"#":{"ha":897,"x_min":31,"x_max":867,"o":"m 678 572 l 646 415 l 821 415 l 821 275 l 619 275 l 567 0 l 418 0 l 471 275 l 339 275 l 288 0 l 142 0 l 192 275 l 31 275 l 31 415 l 218 415 l 250 572 l 79 572 l 79 714 l 275 714 l 328 990 l 476 990 l 424 714 l 558 714 l 611 990 l 757 990 l 704 714 l 867 714 l 867 572 l 678 572 m 365 415 l 499 415 l 531 572 l 397 572 l 365 415 z "},"$":{"ha":794,"x_min":60,"x_max":740,"o":"m 351 56 q 190 73 261 58 q 61 114 119 88 l 61 293 q 199 242 118 265 q 351 215 279 219 l 351 425 q 180 506 244 467 q 88 594 115 546 q 60 711 60 643 q 141 877 60 815 q 351 950 222 939 l 351 1054 l 444 1054 l 444 953 q 725 890 599 947 l 661 732 q 549 768 606 756 q 444 785 493 781 l 444 585 q 588 524 519 557 q 698 442 656 492 q 740 310 740 392 q 667 140 740 208 q 444 58 593 72 l 444 -81 l 351 -81 l 351 56 m 351 782 q 264 711 264 769 q 285 663 264 682 q 351 622 306 643 l 351 782 m 444 219 q 536 300 536 236 q 513 348 536 328 q 444 389 490 368 l 444 219 z "},"%":{"ha":1251,"x_min":43,"x_max":1208,"o":"m 276 1006 q 453 924 393 1006 q 514 696 514 843 q 457 466 514 549 q 276 383 400 383 q 103 466 163 383 q 43 696 43 549 q 99 924 43 843 q 276 1006 154 1006 m 981 992 l 431 0 l 268 0 l 818 992 l 981 992 m 278 864 q 214 694 214 864 q 278 524 214 524 q 343 694 343 524 q 278 864 343 864 m 971 610 q 1148 528 1088 610 q 1208 300 1208 447 q 1151 70 1208 153 q 971 -12 1094 -12 q 797 70 857 -12 q 738 300 738 153 q 793 528 738 447 q 971 610 849 610 m 972 468 q 908 299 908 468 q 972 128 908 128 q 1038 299 1038 128 q 972 468 1038 468 z "},"&":{"ha":1042,"x_min":56,"x_max":1042,"o":"m 431 1006 q 574 981 511 1006 q 672 908 636 956 q 708 790 708 860 q 651 629 708 694 q 510 515 594 564 l 703 328 q 751 427 731 375 q 786 532 772 479 l 1001 532 q 940 365 981 454 q 838 199 900 276 l 1042 0 l 786 0 l 708 76 q 575 10 649 35 q 415 -14 501 -14 q 151 64 246 -14 q 56 268 56 142 q 104 437 56 374 q 238 549 153 500 q 162 664 183 611 q 140 776 140 717 q 177 899 140 847 q 280 978 214 950 q 431 1006 346 1006 m 429 846 q 363 828 394 846 q 332 763 332 811 q 349 696 332 728 q 396 631 367 664 q 485 694 454 663 q 517 768 517 726 q 489 828 517 810 q 429 846 461 846 m 358 425 q 297 363 319 396 q 274 288 274 331 q 318 194 274 228 q 429 160 363 160 q 513 171 474 160 q 583 201 551 182 l 358 425 z "},"'":{"ha":369,"x_min":90,"x_max":279,"o":"m 279 992 l 251 633 l 118 633 l 90 992 l 279 992 z "},"(":{"ha":471,"x_min":56,"x_max":429,"o":"m 56 381 q 105 708 56 550 q 260 992 154 865 l 429 992 q 285 704 335 861 q 236 382 236 547 q 285 65 236 221 q 428 -219 335 -92 l 260 -219 q 105 58 154 -97 q 56 381 56 213 z "},")":{"ha":471,"x_min":42,"x_max":415,"o":"m 415 381 q 366 58 415 213 q 211 -219 317 -97 l 43 -219 q 186 65 138 -92 q 235 382 235 221 q 185 704 235 547 q 42 992 136 861 l 211 992 q 366 708 317 865 q 415 381 415 550 z "},"*":{"ha":757,"x_min":43,"x_max":714,"o":"m 467 1056 l 439 806 l 692 876 l 714 706 l 483 689 l 635 488 l 481 406 l 375 618 l 282 407 l 122 488 l 272 689 l 43 707 l 69 876 l 317 806 l 289 1056 l 467 1056 z "},"+":{"ha":794,"x_min":60,"x_max":733,"o":"m 471 564 l 733 564 l 733 415 l 471 415 l 471 154 l 322 154 l 322 415 l 60 415 l 60 564 l 322 564 l 322 828 l 471 828 l 471 564 z "},",":{"ha":396,"x_min":43,"x_max":311,"o":"m 311 146 q 260 -15 293 72 q 192 -179 226 -103 l 43 -179 q 82 -4 63 -97 q 111 161 101 89 l 301 161 l 311 146 z "},"-":{"ha":447,"x_min":42,"x_max":406,"o":"m 42 288 l 42 457 l 406 457 l 406 288 l 42 288 z "},".":{"ha":396,"x_min":79,"x_max":317,"o":"m 79 97 q 114 187 79 161 q 199 213 149 213 q 282 187 247 213 q 317 97 317 161 q 282 9 317 36 q 199 -18 247 -18 q 114 9 149 -18 q 79 97 79 36 z "},"/":{"ha":574,"x_min":10,"x_max":567,"o":"m 567 992 l 197 0 l 10 0 l 379 992 l 567 992 z "},":":{"ha":396,"x_min":79,"x_max":317,"o":"m 79 657 q 114 747 79 721 q 199 772 149 772 q 282 747 247 772 q 317 657 317 721 q 282 569 317 596 q 199 542 247 542 q 114 569 149 542 q 79 657 79 596 m 79 97 q 114 187 79 161 q 199 213 149 213 q 282 187 247 213 q 317 97 317 161 q 282 9 317 36 q 199 -18 247 -18 q 114 9 149 -18 q 79 97 79 36 z "},";":{"ha":396,"x_min":43,"x_max":317,"o":"m 79 657 q 114 747 79 721 q 199 772 149 772 q 282 747 247 772 q 317 657 317 721 q 282 569 317 596 q 199 542 247 542 q 114 569 149 542 q 79 657 79 596 m 311 146 q 260 -15 293 72 q 192 -179 226 -103 l 43 -179 q 82 -4 63 -97 q 111 161 101 89 l 301 161 l 311 146 z "},"<":{"ha":794,"x_min":60,"x_max":733,"o":"m 733 138 l 60 435 l 60 532 l 733 868 l 733 706 l 269 490 l 733 300 l 733 138 z "},"=":{"ha":794,"x_min":60,"x_max":733,"o":"m 60 547 l 60 694 l 733 694 l 733 547 l 60 547 m 60 283 l 60 432 l 733 432 l 733 283 l 60 283 z "},">":{"ha":794,"x_min":60,"x_max":733,"o":"m 60 300 l 524 490 l 60 706 l 60 868 l 733 532 l 733 435 l 60 138 l 60 300 z "},"?":{"ha":663,"x_min":4,"x_max":629,"o":"m 188 379 q 217 496 188 449 q 317 594 246 543 q 406 672 379 639 q 433 749 433 704 q 401 816 433 793 q 310 839 368 839 q 194 821 251 839 q 78 772 138 803 l 4 921 q 151 982 72 958 q 325 1006 231 1006 q 549 936 469 1006 q 629 760 629 867 q 611 661 629 703 q 557 584 593 619 q 467 508 521 549 q 404 458 426 479 q 374 418 382 438 q 367 369 367 399 l 367 329 l 188 329 l 188 379 m 165 97 q 200 187 165 161 q 285 213 235 213 q 368 187 333 213 q 403 97 403 161 q 368 9 403 36 q 285 -18 333 -18 q 200 9 235 -18 q 165 97 165 36 z "},"@":{"ha":1246,"x_min":69,"x_max":1176,"o":"m 1176 497 q 1161 371 1176 433 q 1115 257 1146 308 q 1036 176 1083 206 q 925 146 989 146 q 835 170 874 146 q 781 233 796 194 l 769 233 q 695 172 742 199 q 583 146 649 146 q 392 220 460 146 q 325 415 325 294 q 365 580 325 508 q 479 692 406 651 q 653 733 553 733 q 788 722 718 733 q 897 696 858 710 l 883 411 q 882 383 882 397 q 882 364 882 368 q 898 288 882 307 q 933 269 914 269 q 986 301 965 269 q 1017 384 1007 332 q 1028 499 1028 436 q 981 697 1028 615 q 852 821 933 778 q 667 864 771 864 q 422 803 521 864 q 271 639 322 743 q 219 400 219 535 q 320 113 219 213 q 610 13 421 13 q 778 31 690 13 q 938 75 865 49 l 938 -56 q 789 -100 871 -83 q 615 -117 707 -117 q 321 -56 443 -117 q 134 120 199 6 q 69 396 69 235 q 111 631 69 522 q 231 820 153 739 q 419 947 310 901 q 665 992 529 992 q 929 932 814 992 q 1110 761 1044 872 q 1176 497 1176 650 m 482 413 q 514 303 482 336 q 599 269 546 269 q 697 320 668 269 q 731 453 725 371 l 739 603 q 704 608 724 606 q 661 610 685 610 q 556 581 596 610 q 499 508 517 553 q 482 413 482 463 z "},"A":{"ha":958,"x_min":0,"x_max":958,"o":"m 732 0 l 660 236 l 299 236 l 226 0 l 0 0 l 350 996 l 607 996 l 958 0 l 732 0 m 538 643 q 519 703 531 667 q 497 776 508 739 q 479 842 486 814 q 460 773 472 814 q 438 695 449 732 q 422 643 428 658 l 351 413 l 610 413 l 538 643 z "},"B":{"ha":933,"x_min":125,"x_max":860,"o":"m 433 992 q 733 936 632 992 q 835 740 835 881 q 795 597 835 656 q 682 526 756 539 l 682 519 q 772 485 732 510 q 836 413 813 460 q 860 288 860 365 q 763 76 860 153 q 496 0 665 0 l 125 0 l 125 992 l 433 992 m 457 599 q 584 628 549 599 q 619 713 619 657 q 578 794 619 769 q 446 819 536 819 l 335 819 l 335 599 l 457 599 m 335 432 l 335 174 l 472 174 q 604 210 567 174 q 642 308 642 247 q 603 398 642 364 q 465 432 565 432 l 335 432 z "},"C":{"ha":885,"x_min":81,"x_max":836,"o":"m 546 831 q 361 740 425 831 q 297 493 297 650 q 356 248 297 335 q 546 161 415 161 q 667 175 607 161 q 799 214 728 189 l 799 38 q 669 -1 733 11 q 526 -14 606 -14 q 274 49 374 -14 q 128 227 175 113 q 81 494 81 342 q 135 760 81 644 q 292 940 189 875 q 546 1006 396 1006 q 694 987 619 1006 q 836 936 768 968 l 768 765 q 656 811 713 792 q 546 831 600 831 z "},"D":{"ha":1028,"x_min":125,"x_max":947,"o":"m 947 506 q 805 127 947 254 q 406 0 663 0 l 125 0 l 125 992 l 436 992 q 706 936 592 992 q 884 773 821 881 q 947 506 947 665 m 729 500 q 657 742 729 665 q 447 819 585 819 l 335 819 l 335 174 l 425 174 q 729 500 729 174 z "},"E":{"ha":778,"x_min":125,"x_max":696,"o":"m 696 0 l 125 0 l 125 992 l 696 992 l 696 819 l 335 819 l 335 601 l 671 601 l 671 429 l 335 429 l 335 174 l 696 174 l 696 0 z "},"F":{"ha":763,"x_min":125,"x_max":693,"o":"m 332 0 l 125 0 l 125 992 l 693 992 l 693 819 l 332 819 l 332 564 l 668 564 l 668 392 l 332 392 l 332 0 z "},"G":{"ha":1006,"x_min":81,"x_max":894,"o":"m 501 557 l 894 557 l 894 43 q 733 1 817 17 q 542 -14 649 -14 q 200 117 319 -14 q 81 497 81 247 q 141 767 81 653 q 317 943 201 881 q 599 1006 432 1006 q 754 989 678 1006 q 893 944 831 972 l 824 776 q 719 815 778 800 q 597 831 661 831 q 438 789 506 831 q 334 672 371 747 q 297 493 297 596 q 324 321 297 396 q 407 203 350 246 q 556 161 464 161 q 631 165 600 161 q 689 175 663 169 l 689 382 l 501 382 l 501 557 z "},"H":{"ha":1063,"x_min":125,"x_max":938,"o":"m 938 0 l 728 0 l 728 428 l 335 428 l 335 0 l 125 0 l 125 992 l 335 992 l 335 603 l 728 603 l 728 992 l 938 992 l 938 0 z "},"I":{"ha":540,"x_min":44,"x_max":496,"o":"m 496 0 l 44 0 l 44 119 l 165 175 l 165 817 l 44 872 l 44 992 l 496 992 l 496 872 l 375 817 l 375 175 l 496 119 l 496 0 z "},"J":{"ha":460,"x_min":-103,"x_max":335,"o":"m 21 -292 q -50 -287 -19 -292 q -103 -276 -81 -282 l -103 -101 q -56 -111 -81 -107 q -4 -115 -32 -115 q 62 -101 32 -115 q 108 -49 92 -87 q 125 63 125 -10 l 125 992 l 335 992 l 335 64 q 295 -142 335 -64 q 185 -256 256 -221 q 21 -292 114 -292 z "},"K":{"ha":922,"x_min":125,"x_max":922,"o":"m 922 0 l 683 0 l 424 418 l 335 354 l 335 0 l 125 0 l 125 992 l 335 992 l 335 538 q 376 596 356 567 q 418 654 397 625 l 686 992 l 919 992 l 574 553 l 922 0 z "},"L":{"ha":785,"x_min":125,"x_max":738,"o":"m 125 0 l 125 992 l 335 992 l 335 174 l 738 174 l 738 0 l 125 0 z "},"M":{"ha":1310,"x_min":125,"x_max":1185,"o":"m 544 0 l 306 778 l 300 778 q 304 694 301 750 q 310 576 307 639 q 313 461 313 513 l 313 0 l 125 0 l 125 992 l 411 992 l 646 233 l 650 233 l 899 992 l 1185 992 l 1185 0 l 989 0 l 989 469 q 991 578 989 517 q 995 694 993 639 q 999 776 997 749 l 993 776 l 738 0 l 544 0 z "},"N":{"ha":1129,"x_min":125,"x_max":1004,"o":"m 1004 0 l 738 0 l 306 750 l 300 750 q 306 608 303 679 q 313 467 310 538 l 313 0 l 125 0 l 125 992 l 390 992 l 821 249 l 825 249 q 821 386 824 318 q 815 522 818 454 l 815 992 l 1004 992 l 1004 0 z "},"O":{"ha":1106,"x_min":81,"x_max":1025,"o":"m 1025 497 q 974 228 1025 343 q 819 50 924 114 q 553 -14 715 -14 q 287 50 392 -14 q 131 229 182 114 q 81 499 81 344 q 131 767 81 653 q 287 944 182 881 q 554 1007 392 1007 q 819 944 715 1007 q 974 766 924 881 q 1025 497 1025 651 m 301 497 q 361 252 301 342 q 553 163 421 163 q 746 252 688 163 q 804 497 804 342 q 746 743 804 654 q 554 832 688 832 q 361 743 421 832 q 301 497 301 654 z "},"P":{"ha":872,"x_min":125,"x_max":810,"o":"m 442 992 q 722 909 633 992 q 810 682 810 826 q 774 520 810 596 q 653 399 738 444 q 425 353 569 353 l 335 353 l 335 0 l 125 0 l 125 992 l 442 992 m 431 819 l 335 819 l 335 525 l 404 525 q 545 560 493 525 q 597 675 597 596 q 431 819 597 819 z "},"Q":{"ha":1106,"x_min":81,"x_max":1025,"o":"m 1025 497 q 965 209 1025 331 q 781 31 906 88 l 1019 -236 l 750 -236 l 568 -14 l 553 -14 q 287 50 392 -14 q 131 229 182 114 q 81 499 81 344 q 131 767 81 653 q 287 944 182 881 q 554 1007 392 1007 q 819 944 715 1007 q 974 766 924 881 q 1025 497 1025 651 m 301 497 q 361 252 301 342 q 553 163 421 163 q 746 252 688 163 q 804 497 804 342 q 746 743 804 654 q 554 832 688 832 q 361 743 421 832 q 301 497 301 654 z "},"R":{"ha":917,"x_min":125,"x_max":917,"o":"m 414 992 q 713 918 617 992 q 810 694 810 844 q 784 576 810 626 q 716 490 758 525 q 625 432 674 454 l 917 0 l 683 0 l 447 381 l 335 381 l 335 0 l 125 0 l 125 992 l 414 992 m 399 819 l 335 819 l 335 551 l 403 551 q 552 586 507 551 q 597 689 597 621 q 549 790 597 760 q 399 819 501 819 z "},"S":{"ha":765,"x_min":64,"x_max":710,"o":"m 710 275 q 615 65 710 143 q 344 -14 519 -14 q 64 46 188 -14 l 64 242 q 210 185 135 211 q 361 160 286 160 q 472 190 439 160 q 504 265 504 219 q 478 329 504 303 q 410 378 453 356 q 311 428 367 401 q 236 467 276 444 q 159 524 196 490 q 99 607 122 558 q 75 724 75 656 q 165 931 75 857 q 411 1006 256 1006 q 559 988 489 1006 q 706 936 629 969 l 638 772 q 515 815 569 800 q 404 831 461 831 q 313 803 344 831 q 281 731 281 775 q 328 647 281 678 q 468 572 375 617 q 598 497 544 536 q 681 406 651 458 q 710 275 710 353 z "},"T":{"ha":804,"x_min":28,"x_max":776,"o":"m 507 0 l 297 0 l 297 817 l 28 817 l 28 992 l 776 992 l 776 817 l 507 817 l 507 0 z "},"U":{"ha":1050,"x_min":118,"x_max":932,"o":"m 932 350 q 887 165 932 247 q 751 34 842 82 q 521 -14 660 -14 q 221 87 324 -14 q 118 353 118 188 l 118 992 l 328 992 l 328 385 q 378 213 328 263 q 526 163 428 163 q 676 217 629 163 q 722 386 722 271 l 722 992 l 932 992 l 932 350 z "},"V":{"ha":903,"x_min":0,"x_max":903,"o":"m 903 992 l 565 0 l 336 0 l 0 992 l 213 992 l 399 401 q 415 345 404 386 q 436 259 425 304 q 451 183 447 214 q 466 259 456 214 q 488 345 476 304 q 503 401 499 386 l 690 992 l 903 992 z "},"W":{"ha":1343,"x_min":0,"x_max":1343,"o":"m 1343 992 l 1090 0 l 851 0 l 717 521 q 706 567 713 536 q 692 633 700 597 q 679 702 685 669 q 671 753 674 735 q 663 702 669 735 q 650 634 657 669 q 636 567 643 599 q 625 519 629 536 l 492 0 l 253 0 l 0 992 l 207 992 l 333 450 q 351 369 342 418 q 369 272 361 321 q 382 190 378 224 q 394 273 386 225 q 412 366 403 321 q 428 436 421 411 l 572 992 l 771 992 l 915 436 q 931 367 922 413 q 949 272 940 321 q 961 190 957 224 q 974 273 965 225 q 992 369 982 321 q 1010 450 1003 418 l 1136 992 l 1343 992 z "},"X":{"ha":926,"x_min":0,"x_max":926,"o":"m 926 0 l 686 0 l 456 375 l 225 0 l 0 0 l 329 511 l 21 992 l 253 992 l 467 635 l 676 992 l 903 992 l 592 500 l 926 0 z "},"Y":{"ha":867,"x_min":0,"x_max":867,"o":"m 433 583 l 640 992 l 867 992 l 538 386 l 538 0 l 329 0 l 329 379 l 0 992 l 228 992 l 433 583 z "},"Z":{"ha":804,"x_min":33,"x_max":771,"o":"m 771 0 l 33 0 l 33 136 l 508 818 l 46 818 l 46 992 l 758 992 l 758 856 l 283 174 l 771 174 l 771 0 z "},"[":{"ha":460,"x_min":97,"x_max":425,"o":"m 425 -219 l 97 -219 l 97 992 l 425 992 l 425 849 l 274 849 l 274 -76 l 425 -76 l 425 -219 z "},"\\":{"ha":574,"x_min":8,"x_max":565,"o":"m 196 992 l 565 0 l 378 0 l 8 992 l 196 992 z "},"]":{"ha":460,"x_min":35,"x_max":363,"o":"m 35 -76 l 186 -76 l 186 849 l 35 849 l 35 992 l 363 992 l 363 -219 l 35 -219 l 35 -76 z "},"^":{"ha":794,"x_min":32,"x_max":763,"o":"m 32 353 l 329 997 l 426 997 l 763 353 l 600 353 l 382 789 l 192 353 l 32 353 z "},"_":{"ha":571,"x_min":-3,"x_max":574,"o":"m 574 -219 l -3 -219 l -3 -125 l 574 -125 l 574 -219 z "},"`":{"ha":503,"x_min":56,"x_max":447,"o":"m 288 1064 q 337 995 308 1033 q 395 922 365 957 q 447 860 425 886 l 447 842 l 310 842 q 248 887 283 860 q 176 944 213 914 q 107 1003 139 975 q 56 1050 75 1031 l 56 1064 l 288 1064 z "},"a":{"ha":839,"x_min":58,"x_max":735,"o":"m 419 774 q 653 708 572 774 q 735 506 735 642 l 735 0 l 590 0 l 550 103 l 544 103 q 442 14 496 42 q 293 -14 388 -14 q 125 45 192 -14 q 58 226 58 104 q 143 405 58 347 q 397 468 228 463 l 529 472 l 529 506 q 498 593 529 565 q 411 621 467 621 q 303 605 356 621 q 197 565 250 589 l 129 706 q 265 756 190 738 q 419 774 339 774 m 449 349 q 310 313 349 346 q 271 225 271 279 q 299 158 271 178 q 371 138 326 138 q 483 177 438 138 q 529 289 529 217 l 529 351 l 449 349 z "},"b":{"ha":879,"x_min":108,"x_max":817,"o":"m 315 810 q 313 725 315 767 q 307 660 310 683 l 315 660 q 397 740 346 707 q 531 772 449 772 q 738 673 658 772 q 817 381 817 574 q 736 86 817 186 q 525 -14 656 -14 q 394 16 442 -14 q 315 83 346 46 l 301 83 l 267 0 l 108 0 l 108 1056 l 315 1056 l 315 810 m 464 607 q 351 557 383 607 q 315 404 318 507 l 315 382 q 348 213 315 272 q 467 154 381 154 q 568 213 531 154 q 606 383 606 272 q 567 551 606 494 q 464 607 529 607 z "},"c":{"ha":714,"x_min":63,"x_max":671,"o":"m 417 -14 q 155 80 247 -14 q 63 375 63 174 q 110 601 63 514 q 241 731 157 689 q 435 772 325 772 q 570 757 513 772 q 671 721 628 742 l 610 561 q 519 593 561 581 q 435 606 476 606 q 274 376 274 606 q 316 208 274 263 q 435 154 358 154 q 550 172 500 154 q 647 219 600 189 l 647 43 q 548 -1 600 13 q 417 -14 496 -14 z "},"d":{"ha":879,"x_min":63,"x_max":771,"o":"m 349 -14 q 142 85 222 -14 q 63 378 63 185 q 143 672 63 572 q 354 772 224 772 q 489 740 436 772 q 572 661 542 708 l 579 661 q 569 726 575 683 q 564 813 564 768 l 564 1056 l 771 1056 l 771 0 l 613 0 l 572 99 l 564 99 q 482 19 533 51 q 349 -14 431 -14 m 421 151 q 542 202 507 151 q 578 354 576 253 l 578 376 q 544 546 578 488 q 418 604 510 604 q 311 545 350 604 q 272 375 272 486 q 311 208 272 264 q 421 151 350 151 z "},"e":{"ha":821,"x_min":63,"x_max":761,"o":"m 421 772 q 669 683 578 772 q 761 428 761 593 l 761 328 l 272 328 q 324 190 275 240 q 461 140 374 140 q 594 155 535 140 q 718 200 654 169 l 718 40 q 601 -1 663 13 q 451 -14 539 -14 q 250 28 338 -14 q 113 157 163 71 q 63 374 63 243 q 108 595 63 507 q 233 728 153 683 q 421 772 314 772 m 422 625 q 323 586 363 625 q 276 465 283 547 l 567 465 q 531 580 565 535 q 422 625 496 625 z "},"f":{"ha":538,"x_min":28,"x_max":600,"o":"m 528 603 l 349 603 l 349 0 l 142 0 l 142 603 l 28 603 l 28 703 l 142 758 l 142 814 q 174 965 142 911 q 267 1040 207 1018 q 410 1063 328 1063 q 520 1053 471 1063 q 600 1031 569 1043 l 547 879 q 496 892 524 886 q 432 899 468 899 q 369 872 389 899 q 349 806 349 846 l 349 758 l 528 758 l 528 603 z "},"g":{"ha":879,"x_min":63,"x_max":771,"o":"m 354 772 q 574 661 494 772 l 579 661 l 596 758 l 771 758 l 771 -1 q 675 -249 771 -164 q 392 -333 579 -333 q 242 -324 311 -333 q 108 -289 174 -314 l 108 -124 q 404 -182 249 -182 q 564 -10 564 -182 l 564 6 q 566 54 564 29 q 569 99 568 79 l 564 99 q 471 13 525 39 q 349 -14 417 -14 q 138 90 214 -14 q 63 378 63 193 q 140 668 63 564 q 354 772 218 772 m 419 604 q 274 375 274 604 q 422 149 274 149 q 540 194 501 149 q 578 351 578 239 l 578 376 q 540 551 578 499 q 419 604 503 604 z "},"h":{"ha":913,"x_min":108,"x_max":808,"o":"m 315 840 q 312 733 315 785 q 306 661 308 682 l 317 661 q 410 746 353 719 q 536 772 467 772 q 734 706 660 772 q 808 494 808 640 l 808 0 l 601 0 l 601 443 q 479 607 601 607 q 351 542 386 607 q 315 357 315 478 l 315 0 l 108 0 l 108 1056 l 315 1056 l 315 840 z "},"i":{"ha":424,"x_min":100,"x_max":325,"o":"m 213 1056 q 292 1034 258 1056 q 325 954 325 1013 q 292 875 325 897 q 213 853 258 853 q 133 875 165 853 q 100 954 100 897 q 133 1034 100 1013 q 213 1056 165 1056 m 315 758 l 315 0 l 108 0 l 108 758 l 315 758 z "},"j":{"ha":424,"x_min":-89,"x_max":325,"o":"m 100 954 q 133 1034 100 1013 q 213 1056 165 1056 q 292 1034 258 1056 q 325 954 325 1013 q 292 875 325 897 q 213 853 258 853 q 133 875 165 853 q 100 954 100 897 m 47 -333 q -26 -328 13 -333 q -89 -317 -64 -324 l -89 -154 q -42 -163 -64 -160 q 8 -167 -19 -167 q 79 -143 50 -167 q 108 -51 108 -119 l 108 758 l 315 758 l 315 -82 q 289 -208 315 -151 q 203 -299 263 -265 q 47 -333 144 -333 z "},"k":{"ha":861,"x_min":108,"x_max":861,"o":"m 315 583 q 312 498 315 540 q 304 413 308 456 l 307 413 q 350 472 328 442 q 397 528 372 501 l 610 758 l 843 758 l 542 429 l 861 0 l 622 0 l 404 307 l 315 236 l 315 0 l 108 0 l 108 1056 l 315 1056 l 315 583 z "},"l":{"ha":424,"x_min":108,"x_max":315,"o":"m 315 0 l 108 0 l 108 1056 l 315 1056 l 315 0 z "},"m":{"ha":1364,"x_min":108,"x_max":1260,"o":"m 999 772 q 1194 706 1128 772 q 1260 494 1260 640 l 1260 0 l 1053 0 l 1053 443 q 939 607 1053 607 q 822 549 857 607 q 788 381 788 490 l 788 0 l 581 0 l 581 443 q 467 607 581 607 q 348 542 381 607 q 315 357 315 478 l 315 0 l 108 0 l 108 758 l 267 758 l 294 661 l 306 661 q 401 746 340 719 q 526 772 461 772 q 668 745 610 772 q 757 661 726 718 l 775 661 q 872 746 810 719 q 999 772 933 772 z "},"n":{"ha":913,"x_min":108,"x_max":808,"o":"m 539 772 q 735 706 661 772 q 808 494 808 640 l 808 0 l 601 0 l 601 443 q 572 566 601 525 q 479 607 543 607 q 350 542 385 607 q 315 357 315 478 l 315 0 l 108 0 l 108 758 l 267 758 l 294 661 l 306 661 q 405 746 342 719 q 539 772 468 772 z "},"o":{"ha":860,"x_min":63,"x_max":797,"o":"m 797 381 q 698 89 797 192 q 428 -14 599 -14 q 240 32 322 -14 q 110 166 157 78 q 63 381 63 254 q 161 671 63 569 q 432 772 260 772 q 621 726 539 772 q 750 594 703 681 q 797 381 797 507 m 274 381 q 310 210 274 268 q 431 153 347 153 q 549 210 513 153 q 586 381 586 268 q 549 549 586 493 q 429 606 513 606 q 310 549 347 606 q 274 381 274 493 z "},"p":{"ha":879,"x_min":108,"x_max":817,"o":"m 531 772 q 738 673 658 772 q 817 381 817 574 q 735 87 817 188 q 525 -14 653 -14 q 394 16 443 -14 q 315 83 346 46 l 304 83 q 315 -28 315 25 l 315 -333 l 108 -333 l 108 758 l 276 758 l 306 660 l 315 660 q 397 739 346 706 q 531 772 449 772 m 464 607 q 351 557 383 607 q 315 404 318 507 l 315 382 q 348 213 315 272 q 467 154 381 154 q 572 213 538 154 q 606 383 606 272 q 464 607 606 607 z "},"q":{"ha":879,"x_min":63,"x_max":771,"o":"m 564 -15 q 572 99 564 43 l 564 99 q 483 19 535 51 q 349 -14 432 -14 q 142 85 221 -14 q 63 378 63 185 q 143 672 63 572 q 353 772 224 772 q 488 740 436 772 q 572 661 540 708 l 578 661 l 596 758 l 771 758 l 771 -333 l 564 -333 l 564 -15 m 422 149 q 542 199 508 149 q 578 351 576 250 l 578 376 q 544 546 578 488 q 419 604 510 604 q 310 545 346 604 q 274 375 274 486 q 422 149 274 149 z "},"r":{"ha":631,"x_min":108,"x_max":601,"o":"m 532 772 q 568 771 547 772 q 601 767 589 769 l 586 572 q 558 577 576 575 q 525 579 539 579 q 424 560 472 579 q 345 500 375 542 q 315 386 315 458 l 315 0 l 108 0 l 108 758 l 265 758 l 296 631 l 306 631 q 397 731 339 689 q 532 772 456 772 z "},"s":{"ha":690,"x_min":63,"x_max":638,"o":"m 638 225 q 556 48 638 110 q 314 -14 475 -14 q 178 -3 235 -14 q 64 31 121 7 l 64 201 q 196 156 125 174 q 321 138 267 138 q 408 156 382 138 q 433 203 433 174 q 423 238 433 222 q 378 272 413 253 q 269 322 343 292 q 153 383 199 353 q 85 455 107 413 q 63 561 63 497 q 144 719 63 667 q 363 772 226 772 q 497 758 433 772 q 629 713 561 744 l 567 564 q 461 603 511 588 q 360 619 411 619 q 268 569 268 619 q 280 537 268 551 q 326 506 292 522 q 426 461 360 489 q 539 406 492 435 q 612 335 586 378 q 638 225 638 293 z "},"t":{"ha":603,"x_min":32,"x_max":558,"o":"m 428 151 q 494 158 463 151 q 558 175 526 165 l 558 21 q 476 -3 525 7 q 368 -14 426 -14 q 247 8 300 -14 q 162 85 193 31 q 131 238 131 140 l 131 603 l 32 603 l 32 690 l 146 760 l 206 919 l 338 919 l 338 758 l 550 758 l 550 603 l 338 603 l 338 238 q 363 173 338 194 q 428 151 388 151 z "},"u":{"ha":913,"x_min":104,"x_max":804,"o":"m 804 758 l 804 0 l 646 0 l 618 97 l 607 97 q 508 13 571 39 q 374 -14 444 -14 q 178 52 251 -14 q 104 264 104 118 l 104 758 l 311 758 l 311 315 q 340 193 311 235 q 433 151 369 151 q 563 216 528 151 q 597 401 597 281 l 597 758 l 804 758 z "},"v":{"ha":790,"x_min":0,"x_max":790,"o":"m 289 0 l 0 758 l 217 758 l 363 326 q 383 246 375 288 q 392 171 390 204 l 397 171 q 428 326 401 246 l 574 758 l 790 758 l 501 0 l 289 0 z "},"w":{"ha":1189,"x_min":14,"x_max":1175,"o":"m 674 265 q 658 335 668 289 q 635 435 647 382 q 611 534 622 489 q 596 600 600 579 l 590 600 q 576 534 586 579 q 553 435 565 489 q 529 335 540 382 q 513 263 518 288 l 451 0 l 229 0 l 14 758 l 219 758 l 307 422 q 324 339 317 388 q 339 245 332 290 q 349 174 346 200 l 354 174 q 360 226 356 193 q 370 293 364 258 q 381 356 376 328 q 389 394 386 385 l 482 758 l 710 758 l 799 394 q 812 332 804 375 q 826 244 819 289 q 832 174 832 200 l 838 174 q 847 242 840 197 q 863 338 854 288 q 882 422 872 388 l 972 758 l 1175 758 l 957 0 l 732 0 l 674 265 z "},"x":{"ha":803,"x_min":7,"x_max":796,"o":"m 264 388 l 19 758 l 254 758 l 401 517 l 550 758 l 785 758 l 538 388 l 796 0 l 561 0 l 401 260 l 242 0 l 7 0 l 264 388 z "},"y":{"ha":790,"x_min":0,"x_max":790,"o":"m 0 758 l 226 758 l 369 332 q 386 269 381 301 q 394 200 392 236 l 399 200 q 410 269 403 236 q 428 332 418 301 l 568 758 l 790 758 l 469 -97 q 344 -274 426 -215 q 153 -333 261 -333 q 92 -330 118 -333 q 47 -322 67 -326 l 47 -158 q 84 -164 63 -161 q 129 -167 106 -167 q 233 -127 194 -167 q 289 -32 271 -87 l 301 6 l 0 758 z "},"z":{"ha":678,"x_min":38,"x_max":636,"o":"m 636 0 l 38 0 l 38 122 l 389 600 l 58 600 l 58 758 l 624 758 l 624 624 l 282 158 l 636 158 l 636 0 z "},"{":{"ha":547,"x_min":21,"x_max":492,"o":"m 492 -219 q 309 -200 374 -219 q 219 -139 244 -181 q 194 -31 194 -97 l 194 183 q 150 276 194 249 q 21 304 106 304 l 21 467 q 150 494 106 467 q 194 588 194 522 l 194 803 q 219 911 194 869 q 309 972 244 953 q 492 992 374 992 l 492 839 q 406 819 438 838 q 374 743 374 801 l 374 540 q 215 390 374 414 l 215 382 q 374 232 374 358 l 374 29 q 406 -47 374 -29 q 492 -67 438 -65 l 492 -219 z "},"|":{"ha":765,"x_min":308,"x_max":457,"o":"m 308 1051 l 457 1051 l 457 -315 l 308 -315 l 308 1051 z "},"}":{"ha":547,"x_min":56,"x_max":526,"o":"m 56 -67 q 142 -47 110 -65 q 174 29 174 -29 l 174 232 q 332 382 174 358 l 332 390 q 174 540 174 414 l 174 743 q 142 819 174 801 q 56 839 110 838 l 56 992 q 239 972 175 992 q 328 911 303 953 q 353 803 353 869 l 353 588 q 397 494 353 522 q 526 467 442 467 l 526 304 q 397 276 442 304 q 353 183 353 249 l 353 -31 q 328 -139 353 -97 q 239 -200 303 -181 q 56 -219 175 -219 l 56 -67 z "},"~":{"ha":794,"x_min":60,"x_max":733,"o":"m 372 418 q 285 448 321 440 q 218 456 250 456 q 137 432 179 456 q 60 374 94 408 l 60 531 q 233 604 129 604 q 315 597 274 604 q 421 561 356 589 q 508 531 472 539 q 575 524 544 524 q 657 547 615 524 q 733 606 699 571 l 733 449 q 560 375 664 375 q 478 383 519 375 q 372 418 438 392 z "}," ":{"ha":361,"x_min":0,"x_max":0,"o":""},"¡":{"ha":397,"x_min":79,"x_max":317,"o":"m 317 643 q 282 553 317 579 q 197 528 247 528 q 115 553 150 528 q 79 643 79 579 q 115 731 79 704 q 197 758 150 758 q 282 731 247 758 q 317 643 317 704 m 114 411 l 279 411 l 314 -250 l 79 -250 l 114 411 z "},"¢":{"ha":794,"x_min":97,"x_max":706,"o":"m 503 899 q 617 882 568 896 q 706 849 667 868 l 644 689 q 553 721 596 708 q 469 733 511 733 q 308 504 308 733 q 351 336 308 390 q 469 282 393 282 q 581 296 535 282 q 682 333 628 310 l 682 161 q 595 128 639 140 q 503 114 551 117 l 503 -14 l 382 -14 l 382 119 q 172 231 247 139 q 97 503 97 322 q 133 715 97 633 q 233 838 168 796 q 382 893 297 881 l 382 1006 l 503 1006 l 503 899 z "},"£":{"ha":794,"x_min":56,"x_max":767,"o":"m 475 1006 q 617 990 550 1006 q 739 950 685 974 l 676 794 q 582 826 629 814 q 492 838 535 838 q 415 812 447 838 q 382 721 382 786 l 382 590 l 636 590 l 636 442 l 382 442 l 382 344 q 349 233 382 271 q 279 176 315 196 l 767 176 l 767 0 l 56 0 l 56 168 q 145 228 113 193 q 178 343 178 264 l 178 442 l 57 442 l 57 590 l 178 590 l 178 722 q 218 887 178 825 q 326 977 258 949 q 475 1006 393 1006 z "},"¤":{"ha":794,"x_min":76,"x_max":717,"o":"m 128 490 q 138 560 128 526 q 164 624 147 594 l 76 710 l 176 810 l 263 724 q 326 750 292 740 q 396 760 361 760 q 529 722 467 760 l 615 810 l 717 713 l 629 625 q 656 562 646 597 q 665 490 665 526 q 629 356 665 417 l 714 271 l 615 172 l 529 257 q 466 232 500 242 q 396 222 432 222 q 261 257 318 222 l 176 174 l 78 272 l 164 357 q 128 490 128 418 m 268 490 q 306 400 268 438 q 396 363 343 363 q 488 400 450 363 q 526 490 526 438 q 488 582 526 544 q 396 619 450 619 q 306 582 343 619 q 268 490 268 544 z "},"¥":{"ha":794,"x_min":4,"x_max":788,"o":"m 396 583 l 575 992 l 788 992 l 528 485 l 660 485 l 660 364 l 493 364 l 493 271 l 660 271 l 660 150 l 493 150 l 493 0 l 299 0 l 299 150 l 131 150 l 131 271 l 299 271 l 299 364 l 131 364 l 131 485 l 260 485 l 4 992 l 218 992 l 396 583 z "},"¦":{"ha":765,"x_min":308,"x_max":457,"o":"m 308 1051 l 457 1051 l 457 499 l 308 499 l 308 1051 m 308 238 l 457 238 l 457 -315 l 308 -315 l 308 238 z "},"§":{"ha":675,"x_min":72,"x_max":607,"o":"m 82 543 q 109 644 82 603 q 172 711 136 686 q 106 778 129 739 q 82 868 82 817 q 158 1009 82 956 q 357 1063 233 1063 q 486 1047 426 1063 q 603 1006 546 1031 l 547 876 q 453 916 501 899 q 353 933 406 933 q 272 918 297 933 q 247 871 247 903 q 281 813 247 836 q 392 758 315 789 q 548 665 489 719 q 607 529 607 611 q 583 420 607 461 q 522 354 560 379 q 585 292 564 328 q 607 206 607 256 q 526 46 607 106 q 308 -14 446 -14 q 177 0 235 -14 q 72 40 119 14 l 72 181 q 191 134 125 154 q 308 114 257 114 q 413 137 385 114 q 440 193 440 160 q 430 233 440 217 q 390 267 419 250 q 300 310 360 285 q 182 369 231 339 q 108 440 133 399 q 82 543 82 482 m 233 558 q 272 484 233 517 q 390 418 310 451 l 400 414 q 436 453 419 429 q 453 511 453 476 q 421 585 453 553 q 294 651 389 618 q 252 617 271 642 q 233 558 233 593 z "},"¨":{"ha":843,"x_min":189,"x_max":654,"o":"m 189 953 q 217 1023 189 1001 q 283 1044 244 1044 q 351 1023 322 1044 q 379 953 379 1001 q 351 885 379 907 q 283 863 322 863 q 217 885 244 863 q 189 953 189 907 m 463 953 q 490 1023 463 1001 q 558 1044 518 1044 q 626 1023 597 1044 q 654 953 654 1001 q 626 885 654 907 q 558 863 597 863 q 490 885 518 863 q 463 953 463 907 z "},"©":{"ha":1156,"x_min":68,"x_max":1088,"o":"m 578 -14 q 374 24 467 -14 q 212 130 281 61 q 106 292 143 199 q 68 496 68 385 q 106 694 68 601 q 214 856 144 786 q 376 966 283 926 q 578 1006 469 1006 q 776 968 683 1006 q 938 862 868 931 q 1048 700 1008 793 q 1088 496 1088 607 q 1050 292 1088 385 q 944 130 1013 199 q 782 24 875 61 q 578 -14 689 -14 m 578 75 q 785 129 692 75 q 935 278 879 183 q 990 496 990 374 q 959 660 990 583 q 872 794 928 736 q 741 885 817 853 q 578 918 665 918 q 365 864 460 918 q 217 715 271 810 q 163 496 163 619 q 216 278 163 374 q 363 129 269 183 q 578 75 457 75 m 599 178 q 387 265 457 178 q 317 496 317 353 q 350 660 317 589 q 447 773 383 732 q 604 814 511 814 q 775 772 694 814 l 735 679 q 606 715 665 715 q 478 657 524 715 q 433 496 433 599 q 473 333 433 390 q 604 275 513 275 q 676 284 636 275 q 750 307 715 293 l 750 211 q 682 188 717 197 q 599 178 647 178 z "},"ª":{"ha":532,"x_min":32,"x_max":472,"o":"m 278 1003 q 424 953 376 1003 q 472 818 472 903 l 472 518 l 381 518 l 360 593 q 196 510 299 510 q 77 547 122 510 q 32 661 32 585 q 94 776 32 743 q 269 815 157 810 l 336 818 l 336 829 q 250 897 336 897 q 181 886 219 897 q 103 856 143 875 l 58 947 q 157 986 103 969 q 278 1003 211 1003 m 269 733 q 190 708 208 729 q 171 663 171 686 q 186 624 171 636 q 224 613 201 613 q 306 641 276 613 q 336 713 336 669 l 336 738 l 269 733 z "},"«":{"ha":854,"x_min":56,"x_max":799,"o":"m 56 389 l 307 697 l 456 617 l 267 381 l 456 144 l 307 64 l 56 371 l 56 389 m 399 389 l 650 697 l 799 617 l 610 381 l 799 144 l 650 64 l 399 371 l 399 389 z "},"¬":{"ha":794,"x_min":60,"x_max":733,"o":"m 733 564 l 733 168 l 585 168 l 585 415 l 60 415 l 60 564 l 733 564 z "},"­":{"ha":447,"x_min":42,"x_max":406,"o":"m 42 288 l 42 457 l 406 457 l 406 288 l 42 288 z "},"®":{"ha":1156,"x_min":68,"x_max":1088,"o":"m 578 -14 q 374 24 467 -14 q 212 130 281 61 q 106 292 143 199 q 68 496 68 385 q 106 694 68 601 q 214 856 144 786 q 376 966 283 926 q 578 1006 469 1006 q 776 968 683 1006 q 938 862 868 931 q 1048 700 1008 793 q 1088 496 1088 607 q 1050 292 1088 385 q 944 130 1013 199 q 782 24 875 61 q 578 -14 689 -14 m 578 75 q 785 129 692 75 q 935 278 879 183 q 990 496 990 374 q 959 660 990 583 q 872 794 928 736 q 741 885 817 853 q 578 918 665 918 q 365 864 460 918 q 217 715 271 810 q 163 496 163 619 q 216 278 163 374 q 363 129 269 183 q 578 75 457 75 m 381 192 l 381 806 l 565 806 q 732 758 679 806 q 785 619 785 710 q 751 516 785 554 q 676 461 718 478 l 838 192 l 711 192 l 579 425 l 493 425 l 493 192 l 381 192 m 563 518 q 644 546 617 518 q 671 617 671 574 q 647 688 671 665 q 561 710 622 710 l 493 710 l 493 518 l 563 518 z "},"¯":{"ha":694,"x_min":-4,"x_max":699,"o":"m 699 1056 l -4 1056 l -4 1192 l 699 1192 l 699 1056 z "},"°":{"ha":594,"x_min":54,"x_max":539,"o":"m 297 538 q 172 567 226 538 q 85 650 117 597 q 54 771 54 703 q 85 892 54 839 q 172 975 117 944 q 297 1006 226 1006 q 424 976 369 1006 q 508 893 478 946 q 539 771 539 840 q 508 650 539 703 q 424 567 478 597 q 297 538 369 538 m 297 667 q 372 695 342 667 q 403 771 403 724 q 372 849 403 821 q 297 878 342 878 q 223 849 254 878 q 192 771 192 821 q 223 695 192 724 q 297 667 254 667 z "},"±":{"ha":794,"x_min":60,"x_max":733,"o":"m 471 606 l 733 606 l 733 457 l 471 457 l 471 196 l 322 196 l 322 457 l 60 457 l 60 606 l 322 606 l 322 869 l 471 869 l 471 606 m 60 0 l 60 149 l 733 149 l 733 0 l 60 0 z "},"²":{"ha":526,"x_min":32,"x_max":476,"o":"m 476 578 l 38 578 l 38 692 l 189 840 q 274 934 251 901 q 297 1003 297 967 q 281 1042 297 1028 q 238 1056 265 1056 q 115 996 183 1056 l 32 1099 q 131 1162 76 1138 q 260 1186 186 1186 q 405 1142 350 1186 q 460 1017 460 1099 q 425 903 460 954 q 308 778 390 851 l 238 714 l 476 714 l 476 578 z "},"³":{"ha":526,"x_min":40,"x_max":471,"o":"m 256 1185 q 396 1142 340 1185 q 451 1028 451 1100 q 424 947 451 981 q 336 893 397 913 l 336 885 q 438 831 406 871 q 471 743 471 792 q 411 614 471 661 q 225 567 351 567 q 40 614 126 567 l 40 743 q 130 699 85 717 q 224 682 175 682 q 321 754 321 682 q 297 804 321 782 q 208 826 274 826 l 132 826 l 132 935 l 194 935 q 285 958 265 935 q 306 1008 306 981 q 289 1051 306 1035 q 238 1068 272 1068 q 177 1056 206 1068 q 110 1015 149 1043 l 42 1111 q 135 1164 83 1143 q 256 1185 186 1185 z "},"´":{"ha":503,"x_min":56,"x_max":447,"o":"m 447 1050 q 396 1003 428 1031 q 327 944 364 975 q 255 887 290 914 q 193 842 219 860 l 56 842 l 56 860 q 108 922 78 886 q 167 995 138 957 q 215 1064 196 1033 l 447 1064 l 447 1050 z "},"µ":{"ha":917,"x_min":108,"x_max":808,"o":"m 808 758 l 808 0 l 651 0 l 622 101 l 613 101 q 544 15 585 44 q 443 -14 503 -14 q 313 47 358 -14 l 308 47 q 313 3 311 33 q 315 -59 314 -26 q 315 -117 315 -92 l 315 -333 l 108 -333 l 108 758 l 315 758 l 315 315 q 439 151 315 151 q 567 216 532 151 q 601 401 601 281 l 601 758 l 808 758 z "},"¶":{"ha":910,"x_min":76,"x_max":792,"o":"m 792 -176 l 682 -176 l 682 919 l 569 919 l 569 -176 l 460 -176 l 460 379 q 361 367 418 367 q 211 399 275 367 q 112 506 147 431 q 76 707 76 581 q 115 916 76 840 q 222 1024 153 992 q 382 1056 292 1056 l 792 1056 l 792 -176 z "},"·":{"ha":396,"x_min":79,"x_max":317,"o":"m 79 489 q 114 578 79 553 q 199 604 149 604 q 282 578 247 604 q 317 489 317 553 q 282 401 317 428 q 199 374 247 374 q 114 401 149 374 q 79 489 79 428 z "},"¸":{"ha":285,"x_min":-25,"x_max":283,"o":"m 283 -169 q 238 -290 283 -247 q 74 -333 193 -333 q 19 -329 43 -333 q -25 -319 -6 -325 l -25 -206 q 23 -215 -6 -211 q 72 -219 51 -219 q 106 -210 92 -219 q 121 -178 121 -201 q 96 -133 121 -153 q 8 -104 71 -114 l 61 0 l 192 0 l 174 -42 q 249 -87 215 -56 q 283 -169 283 -118 z "},"¹":{"ha":526,"x_min":63,"x_max":396,"o":"m 396 1172 l 396 578 l 235 578 l 235 881 q 235 928 235 899 q 238 984 236 957 q 240 1021 239 1011 q 216 994 232 1010 q 189 968 200 978 l 136 926 l 63 1013 l 267 1172 l 396 1172 z "},"º":{"ha":539,"x_min":39,"x_max":500,"o":"m 500 757 q 438 574 500 639 q 268 510 375 510 q 103 574 168 510 q 39 757 39 639 q 101 939 39 875 q 271 1003 164 1003 q 435 939 369 1003 q 500 757 500 875 m 176 757 q 199 655 176 689 q 269 621 221 621 q 361 757 361 621 q 269 892 361 892 q 199 858 221 892 q 176 757 176 825 z "},"»":{"ha":854,"x_min":56,"x_max":799,"o":"m 799 371 l 547 64 l 399 144 l 588 381 l 399 617 l 547 697 l 799 389 l 799 371 m 456 371 l 204 64 l 56 144 l 244 381 l 56 617 l 204 697 l 456 389 l 456 371 z "},"¼":{"ha":1153,"x_min":31,"x_max":1140,"o":"m 217 0 l 767 992 l 929 992 l 379 0 l 217 0 m 203 700 q 203 747 203 718 q 206 803 204 776 q 208 840 207 831 q 184 813 200 829 q 157 788 168 797 l 104 746 l 31 832 l 235 992 l 364 992 l 364 397 l 203 397 l 203 700 m 894 0 l 894 103 l 635 103 l 635 207 l 896 599 l 1056 599 l 1056 217 l 1140 217 l 1140 103 l 1056 103 l 1056 0 l 894 0 m 760 217 l 894 217 l 894 328 q 899 453 894 386 q 875 400 892 435 q 846 346 858 365 l 760 217 z "},"½":{"ha":1214,"x_min":31,"x_max":1164,"o":"m 217 0 l 767 992 l 929 992 l 379 0 l 217 0 m 203 700 q 203 747 203 718 q 206 803 204 776 q 208 840 207 831 q 184 813 200 829 q 157 788 168 797 l 104 746 l 31 832 l 235 992 l 364 992 l 364 397 l 203 397 l 203 700 m 725 0 l 725 114 l 876 263 q 962 356 939 324 q 985 425 985 389 q 969 464 985 450 q 925 478 953 478 q 803 418 871 478 l 719 521 q 819 584 764 560 q 947 608 874 608 q 1092 565 1038 608 q 1147 439 1147 521 q 1113 325 1147 376 q 996 200 1078 274 l 925 136 l 1164 136 l 1164 0 l 725 0 z "},"¾":{"ha":1174,"x_min":61,"x_max":1161,"o":"m 246 386 q 61 433 147 386 l 61 563 q 151 519 106 536 q 244 501 196 501 q 342 574 342 501 q 318 624 342 601 q 229 646 294 646 l 153 646 l 153 754 l 215 754 q 306 777 286 754 q 326 828 326 800 q 310 871 326 854 q 258 888 293 888 q 198 875 226 888 q 131 835 169 863 l 63 931 q 156 983 104 963 q 276 1004 207 1004 q 417 962 361 1004 q 472 847 472 919 q 445 766 472 800 q 357 713 418 732 l 357 704 q 459 651 426 690 q 492 563 492 611 q 432 433 492 481 q 246 386 372 386 m 265 0 l 815 992 l 978 992 l 428 0 l 265 0 m 915 0 l 915 103 l 656 103 l 656 207 l 917 599 l 1076 599 l 1076 217 l 1161 217 l 1161 103 l 1076 103 l 1076 0 l 915 0 m 781 217 l 915 217 l 915 328 q 919 453 915 386 q 896 400 913 435 q 867 346 879 365 l 781 217 z "},"¿":{"ha":663,"x_min":38,"x_max":663,"o":"m 479 360 q 450 243 479 290 q 350 144 421 196 q 260 67 288 100 q 233 -10 233 35 q 266 -77 233 -54 q 357 -100 299 -100 q 472 -82 415 -100 q 589 -33 529 -64 l 663 -182 q 515 -243 594 -219 q 342 -267 436 -267 q 117 -197 197 -267 q 38 -21 38 -128 q 56 78 38 36 q 110 155 74 119 q 200 231 146 190 q 263 281 240 260 q 292 321 285 301 q 300 369 300 340 l 300 410 l 479 410 l 479 360 m 501 642 q 467 552 501 578 q 382 526 432 526 q 299 552 333 526 q 264 642 264 578 q 299 730 264 703 q 382 757 333 757 q 467 730 432 757 q 501 642 501 703 z "},"À":{"ha":958,"x_min":0,"x_max":958,"o":"m 732 0 l 660 236 l 299 236 l 226 0 l 0 0 l 350 996 l 607 996 l 958 0 l 732 0 m 538 643 q 519 703 531 667 q 497 776 508 739 q 479 842 486 814 q 460 773 472 814 q 438 695 449 732 q 422 643 428 658 l 351 413 l 610 413 l 538 643 m 446 1297 q 495 1228 467 1267 q 553 1155 524 1190 q 606 1093 583 1119 l 606 1075 l 468 1075 q 406 1120 442 1093 q 334 1178 371 1147 q 265 1236 297 1208 q 214 1283 233 1264 l 214 1297 l 446 1297 z "},"Á":{"ha":958,"x_min":0,"x_max":958,"o":"m 732 0 l 660 236 l 299 236 l 226 0 l 0 0 l 350 996 l 607 996 l 958 0 l 732 0 m 538 643 q 519 703 531 667 q 497 776 508 739 q 479 842 486 814 q 460 773 472 814 q 438 695 449 732 q 422 643 428 658 l 351 413 l 610 413 l 538 643 m 746 1283 q 694 1236 726 1264 q 626 1178 663 1208 q 553 1120 589 1147 q 492 1075 518 1093 l 354 1075 l 354 1093 q 406 1155 376 1119 q 465 1228 436 1190 q 514 1297 494 1267 l 746 1297 l 746 1283 z "},"Â":{"ha":958,"x_min":0,"x_max":958,"o":"m 732 0 l 660 236 l 299 236 l 226 0 l 0 0 l 350 996 l 607 996 l 958 0 l 732 0 m 538 643 q 519 703 531 667 q 497 776 508 739 q 479 842 486 814 q 460 773 472 814 q 438 695 449 732 q 422 643 428 658 l 351 413 l 610 413 l 538 643 m 601 1297 q 652 1228 621 1267 q 717 1154 683 1190 q 775 1093 750 1118 l 775 1075 l 638 1075 q 558 1127 601 1097 q 479 1194 515 1157 q 401 1128 443 1157 q 324 1075 360 1099 l 186 1075 l 186 1093 q 245 1155 213 1119 q 309 1228 278 1190 q 360 1297 340 1267 l 601 1297 z "},"Ã":{"ha":958,"x_min":0,"x_max":958,"o":"m 732 0 l 660 236 l 299 236 l 226 0 l 0 0 l 350 996 l 607 996 l 958 0 l 732 0 m 538 643 q 519 703 531 667 q 497 776 508 739 q 479 842 486 814 q 460 773 472 814 q 438 695 449 732 q 422 643 428 658 l 351 413 l 610 413 l 538 643 m 197 1074 q 258 1233 206 1182 q 382 1283 310 1283 q 455 1265 419 1283 q 524 1230 490 1247 q 590 1213 558 1213 q 631 1231 611 1213 q 658 1285 650 1249 l 760 1285 q 699 1126 751 1178 q 575 1075 646 1075 q 503 1092 539 1075 q 434 1128 468 1110 q 367 1146 400 1146 q 326 1128 346 1146 q 299 1074 307 1110 l 197 1074 z "},"Ä":{"ha":958,"x_min":0,"x_max":958,"o":"m 732 0 l 660 236 l 299 236 l 226 0 l 0 0 l 350 996 l 607 996 l 958 0 l 732 0 m 538 643 q 519 703 531 667 q 497 776 508 739 q 479 842 486 814 q 460 773 472 814 q 438 695 449 732 q 422 643 428 658 l 351 413 l 610 413 l 538 643 m 246 1186 q 274 1256 246 1235 q 340 1278 301 1278 q 408 1256 379 1278 q 436 1186 436 1235 q 408 1118 436 1140 q 340 1096 379 1096 q 274 1118 301 1096 q 246 1186 246 1140 m 519 1186 q 547 1256 519 1235 q 615 1278 575 1278 q 683 1256 654 1278 q 711 1186 711 1235 q 683 1118 711 1140 q 615 1096 654 1096 q 547 1118 575 1096 q 519 1186 519 1140 z "},"Å":{"ha":958,"x_min":0,"x_max":958,"o":"m 732 0 l 660 236 l 299 236 l 226 0 l 0 0 l 350 996 l 607 996 l 958 0 l 732 0 m 538 643 q 519 703 531 667 q 497 776 508 739 q 479 842 486 814 q 460 773 472 814 q 438 695 449 732 q 422 643 428 658 l 351 413 l 610 413 l 538 643 m 478 900 q 356 943 403 900 q 310 1061 310 986 q 356 1179 310 1136 q 478 1222 403 1222 q 600 1179 550 1222 q 650 1063 650 1136 q 601 943 650 986 q 478 900 551 900 m 478 996 q 524 1013 506 996 q 543 1061 543 1031 q 524 1109 543 1092 q 478 1126 506 1126 q 431 1109 450 1126 q 413 1061 413 1092 q 429 1013 413 1031 q 478 996 446 996 z "},"Æ":{"ha":1322,"x_min":0,"x_max":1240,"o":"m 1240 0 l 649 0 l 649 236 l 315 236 l 214 0 l 0 0 l 444 992 l 1240 992 l 1240 819 l 858 819 l 858 601 l 1215 601 l 1215 429 l 858 429 l 858 174 l 1240 174 l 1240 0 m 392 413 l 649 413 l 649 813 l 563 813 l 392 413 z "},"Ç":{"ha":885,"x_min":81,"x_max":836,"o":"m 546 831 q 361 740 425 831 q 297 493 297 650 q 356 248 297 335 q 546 161 415 161 q 667 175 607 161 q 799 214 728 189 l 799 38 q 669 -1 733 11 q 526 -14 606 -14 q 274 49 374 -14 q 128 227 175 113 q 81 494 81 342 q 135 760 81 644 q 292 940 189 875 q 546 1006 396 1006 q 694 987 619 1006 q 836 936 768 968 l 768 765 q 656 811 713 792 q 546 831 600 831 m 675 -169 q 630 -290 675 -247 q 465 -333 585 -333 q 410 -329 435 -333 q 367 -319 386 -325 l 367 -206 q 415 -215 386 -211 q 464 -219 443 -219 q 498 -210 483 -219 q 513 -178 513 -201 q 488 -133 513 -153 q 400 -104 463 -114 l 453 0 l 583 0 l 565 -42 q 641 -87 607 -56 q 675 -169 675 -118 z "},"È":{"ha":778,"x_min":125,"x_max":696,"o":"m 696 0 l 125 0 l 125 992 l 696 992 l 696 819 l 335 819 l 335 601 l 671 601 l 671 429 l 335 429 l 335 174 l 696 174 l 696 0 m 385 1297 q 434 1228 406 1267 q 492 1155 463 1190 q 544 1093 522 1119 l 544 1075 l 407 1075 q 345 1120 381 1093 q 273 1178 310 1147 q 204 1236 236 1208 q 153 1283 172 1264 l 153 1297 l 385 1297 z "},"É":{"ha":778,"x_min":125,"x_max":696,"o":"m 696 0 l 125 0 l 125 992 l 696 992 l 696 819 l 335 819 l 335 601 l 671 601 l 671 429 l 335 429 l 335 174 l 696 174 l 696 0 m 685 1283 q 633 1236 665 1264 q 565 1178 601 1208 q 492 1120 528 1147 q 431 1075 457 1093 l 293 1075 l 293 1093 q 345 1155 315 1119 q 404 1228 375 1190 q 453 1297 433 1267 l 685 1297 l 685 1283 z "},"Ê":{"ha":778,"x_min":125,"x_max":714,"o":"m 696 0 l 125 0 l 125 992 l 696 992 l 696 819 l 335 819 l 335 601 l 671 601 l 671 429 l 335 429 l 335 174 l 696 174 l 696 0 m 540 1297 q 591 1228 560 1267 q 656 1154 622 1190 q 714 1093 689 1118 l 714 1075 l 576 1075 q 497 1127 540 1097 q 418 1194 454 1157 q 340 1128 382 1157 q 263 1075 299 1099 l 125 1075 l 125 1093 q 184 1155 151 1119 q 248 1228 217 1190 q 299 1297 279 1267 l 540 1297 z "},"Ë":{"ha":778,"x_min":125,"x_max":696,"o":"m 696 0 l 125 0 l 125 992 l 696 992 l 696 819 l 335 819 l 335 601 l 671 601 l 671 429 l 335 429 l 335 174 l 696 174 l 696 0 m 185 1186 q 213 1256 185 1235 q 279 1278 240 1278 q 347 1256 318 1278 q 375 1186 375 1235 q 347 1118 375 1140 q 279 1096 318 1096 q 213 1118 240 1096 q 185 1186 185 1140 m 458 1186 q 486 1256 458 1235 q 554 1278 514 1278 q 622 1256 593 1278 q 650 1186 650 1235 q 622 1118 650 1140 q 554 1096 593 1096 q 486 1118 514 1096 q 458 1186 458 1140 z "},"Ì":{"ha":540,"x_min":6,"x_max":496,"o":"m 496 0 l 44 0 l 44 119 l 165 175 l 165 817 l 44 872 l 44 992 l 496 992 l 496 872 l 375 817 l 375 175 l 496 119 l 496 0 m 238 1297 q 287 1228 258 1267 q 345 1155 315 1190 q 397 1093 375 1119 l 397 1075 l 260 1075 q 198 1120 233 1093 q 126 1178 163 1147 q 57 1236 89 1208 q 6 1283 25 1264 l 6 1297 l 238 1297 z "},"Í":{"ha":540,"x_min":44,"x_max":538,"o":"m 496 0 l 44 0 l 44 119 l 165 175 l 165 817 l 44 872 l 44 992 l 496 992 l 496 872 l 375 817 l 375 175 l 496 119 l 496 0 m 538 1283 q 486 1236 518 1264 q 417 1178 454 1208 q 345 1120 381 1147 q 283 1075 310 1093 l 146 1075 l 146 1093 q 198 1155 168 1119 q 257 1228 228 1190 q 306 1297 286 1267 l 538 1297 l 538 1283 z "},"Î":{"ha":540,"x_min":-22,"x_max":567,"o":"m 496 0 l 44 0 l 44 119 l 165 175 l 165 817 l 44 872 l 44 992 l 496 992 l 496 872 l 375 817 l 375 175 l 496 119 l 496 0 m 393 1297 q 444 1228 413 1267 q 508 1154 475 1190 q 567 1093 542 1118 l 567 1075 l 429 1075 q 350 1127 393 1097 q 271 1194 307 1157 q 193 1128 235 1157 q 115 1075 151 1099 l -22 1075 l -22 1093 q 37 1155 4 1119 q 101 1228 69 1190 q 151 1297 132 1267 l 393 1297 z "},"Ï":{"ha":540,"x_min":38,"x_max":503,"o":"m 496 0 l 44 0 l 44 119 l 165 175 l 165 817 l 44 872 l 44 992 l 496 992 l 496 872 l 375 817 l 375 175 l 496 119 l 496 0 m 38 1186 q 65 1256 38 1235 q 132 1278 93 1278 q 199 1256 171 1278 q 228 1186 228 1235 q 199 1118 228 1140 q 132 1096 171 1096 q 65 1118 93 1096 q 38 1186 38 1140 m 311 1186 q 339 1256 311 1235 q 407 1278 367 1278 q 474 1256 446 1278 q 503 1186 503 1235 q 474 1118 503 1140 q 407 1096 446 1096 q 339 1118 367 1096 q 311 1186 311 1140 z "},"Ð":{"ha":1028,"x_min":32,"x_max":947,"o":"m 436 992 q 706 936 592 992 q 884 773 821 881 q 947 506 947 665 q 805 127 947 254 q 406 0 663 0 l 125 0 l 125 404 l 32 404 l 32 576 l 125 576 l 125 992 l 436 992 m 446 819 l 335 819 l 335 576 l 496 576 l 496 404 l 335 404 l 335 174 l 424 174 q 729 500 729 174 q 656 742 729 665 q 446 819 582 819 z "},"Ñ":{"ha":1129,"x_min":125,"x_max":1004,"o":"m 1004 0 l 738 0 l 306 750 l 300 750 q 306 608 303 679 q 313 467 310 538 l 313 0 l 125 0 l 125 992 l 390 992 l 821 249 l 825 249 q 821 386 824 318 q 815 522 818 454 l 815 992 l 1004 992 l 1004 0 m 283 1074 q 344 1233 292 1182 q 468 1283 396 1283 q 541 1265 506 1283 q 610 1230 576 1247 q 676 1213 644 1213 q 717 1231 697 1213 q 744 1285 736 1249 l 846 1285 q 785 1126 838 1178 q 661 1075 732 1075 q 590 1092 625 1075 q 520 1128 554 1110 q 453 1146 486 1146 q 413 1128 432 1146 q 385 1074 393 1110 l 283 1074 z "},"Ò":{"ha":1106,"x_min":81,"x_max":1025,"o":"m 1025 497 q 974 228 1025 343 q 819 50 924 114 q 553 -14 715 -14 q 287 50 392 -14 q 131 229 182 114 q 81 499 81 344 q 131 767 81 653 q 287 944 182 881 q 554 1007 392 1007 q 819 944 715 1007 q 974 766 924 881 q 1025 497 1025 651 m 301 497 q 361 252 301 342 q 553 163 421 163 q 746 252 688 163 q 804 497 804 342 q 746 743 804 654 q 554 832 688 832 q 361 743 421 832 q 301 497 301 654 m 519 1297 q 569 1228 540 1267 q 627 1155 597 1190 q 679 1093 657 1119 l 679 1075 l 542 1075 q 480 1120 515 1093 q 408 1178 444 1147 q 339 1236 371 1208 q 288 1283 307 1264 l 288 1297 l 519 1297 z "},"Ó":{"ha":1106,"x_min":81,"x_max":1025,"o":"m 1025 497 q 974 228 1025 343 q 819 50 924 114 q 553 -14 715 -14 q 287 50 392 -14 q 131 229 182 114 q 81 499 81 344 q 131 767 81 653 q 287 944 182 881 q 554 1007 392 1007 q 819 944 715 1007 q 974 766 924 881 q 1025 497 1025 651 m 301 497 q 361 252 301 342 q 553 163 421 163 q 746 252 688 163 q 804 497 804 342 q 746 743 804 654 q 554 832 688 832 q 361 743 421 832 q 301 497 301 654 m 819 1283 q 768 1236 800 1264 q 699 1178 736 1208 q 627 1120 663 1147 q 565 1075 592 1093 l 428 1075 l 428 1093 q 480 1155 450 1119 q 539 1228 510 1190 q 588 1297 568 1267 l 819 1297 l 819 1283 z "},"Ô":{"ha":1106,"x_min":81,"x_max":1025,"o":"m 1025 497 q 974 228 1025 343 q 819 50 924 114 q 553 -14 715 -14 q 287 50 392 -14 q 131 229 182 114 q 81 499 81 344 q 131 767 81 653 q 287 944 182 881 q 554 1007 392 1007 q 819 944 715 1007 q 974 766 924 881 q 1025 497 1025 651 m 301 497 q 361 252 301 342 q 553 163 421 163 q 746 252 688 163 q 804 497 804 342 q 746 743 804 654 q 554 832 688 832 q 361 743 421 832 q 301 497 301 654 m 675 1297 q 726 1228 694 1267 q 790 1154 757 1190 q 849 1093 824 1118 l 849 1075 l 711 1075 q 632 1127 675 1097 q 553 1194 589 1157 q 475 1128 517 1157 q 397 1075 433 1099 l 260 1075 l 260 1093 q 319 1155 286 1119 q 383 1228 351 1190 q 433 1297 414 1267 l 675 1297 z "},"Õ":{"ha":1106,"x_min":81,"x_max":1025,"o":"m 1025 497 q 974 228 1025 343 q 819 50 924 114 q 553 -14 715 -14 q 287 50 392 -14 q 131 229 182 114 q 81 499 81 344 q 131 767 81 653 q 287 944 182 881 q 554 1007 392 1007 q 819 944 715 1007 q 974 766 924 881 q 1025 497 1025 651 m 301 497 q 361 252 301 342 q 553 163 421 163 q 746 252 688 163 q 804 497 804 342 q 746 743 804 654 q 554 832 688 832 q 361 743 421 832 q 301 497 301 654 m 271 1074 q 331 1233 279 1182 q 456 1283 383 1283 q 528 1265 493 1283 q 598 1230 564 1247 q 664 1213 632 1213 q 704 1231 685 1213 q 732 1285 724 1249 l 833 1285 q 772 1126 825 1178 q 649 1075 719 1075 q 577 1092 613 1075 q 508 1128 542 1110 q 440 1146 474 1146 q 400 1128 419 1146 q 372 1074 381 1110 l 271 1074 z "},"Ö":{"ha":1106,"x_min":81,"x_max":1025,"o":"m 1025 497 q 974 228 1025 343 q 819 50 924 114 q 553 -14 715 -14 q 287 50 392 -14 q 131 229 182 114 q 81 499 81 344 q 131 767 81 653 q 287 944 182 881 q 554 1007 392 1007 q 819 944 715 1007 q 974 766 924 881 q 1025 497 1025 651 m 301 497 q 361 252 301 342 q 553 163 421 163 q 746 252 688 163 q 804 497 804 342 q 746 743 804 654 q 554 832 688 832 q 361 743 421 832 q 301 497 301 654 m 319 1186 q 347 1256 319 1235 q 414 1278 375 1278 q 481 1256 453 1278 q 510 1186 510 1235 q 481 1118 510 1140 q 414 1096 453 1096 q 347 1118 375 1096 q 319 1186 319 1140 m 593 1186 q 621 1256 593 1235 q 689 1278 649 1278 q 756 1256 728 1278 q 785 1186 785 1235 q 756 1118 785 1140 q 689 1096 728 1096 q 621 1118 649 1096 q 593 1186 593 1140 z "},"×":{"ha":794,"x_min":88,"x_max":706,"o":"m 601 799 l 706 697 l 499 490 l 703 285 l 601 182 l 394 386 l 190 183 l 89 286 l 290 490 l 88 694 l 190 799 l 394 596 l 601 799 z "},"Ø":{"ha":1106,"x_min":81,"x_max":1025,"o":"m 1025 497 q 974 228 1025 343 q 819 50 924 114 q 553 -14 715 -14 q 325 31 421 -14 l 264 -61 l 154 13 l 215 104 q 114 272 147 172 q 81 499 81 372 q 131 767 81 653 q 287 944 182 881 q 554 1007 392 1007 q 682 995 624 1007 q 788 960 740 983 l 844 1044 l 953 974 l 893 885 q 992 719 960 818 q 1025 497 1025 621 m 301 497 q 310 382 301 435 q 339 289 319 329 l 682 801 q 554 832 628 832 q 361 743 421 832 q 301 497 301 654 m 804 497 q 769 699 804 621 l 431 189 q 486 169 456 176 q 553 163 517 163 q 746 252 688 163 q 804 497 804 342 z "},"Ù":{"ha":1050,"x_min":118,"x_max":932,"o":"m 932 350 q 887 165 932 247 q 751 34 842 82 q 521 -14 660 -14 q 221 87 324 -14 q 118 353 118 188 l 118 992 l 328 992 l 328 385 q 378 213 328 263 q 526 163 428 163 q 676 217 629 163 q 722 386 722 271 l 722 992 l 932 992 l 932 350 m 492 1297 q 541 1228 513 1267 q 599 1155 569 1190 q 651 1093 629 1119 l 651 1075 l 514 1075 q 452 1120 488 1093 q 380 1178 417 1147 q 311 1236 343 1208 q 260 1283 279 1264 l 260 1297 l 492 1297 z "},"Ú":{"ha":1050,"x_min":118,"x_max":932,"o":"m 932 350 q 887 165 932 247 q 751 34 842 82 q 521 -14 660 -14 q 221 87 324 -14 q 118 353 118 188 l 118 992 l 328 992 l 328 385 q 378 213 328 263 q 526 163 428 163 q 676 217 629 163 q 722 386 722 271 l 722 992 l 932 992 l 932 350 m 792 1283 q 740 1236 772 1264 q 672 1178 708 1208 q 599 1120 635 1147 q 538 1075 564 1093 l 400 1075 l 400 1093 q 452 1155 422 1119 q 511 1228 482 1190 q 560 1297 540 1267 l 792 1297 l 792 1283 z "},"Û":{"ha":1050,"x_min":118,"x_max":932,"o":"m 932 350 q 887 165 932 247 q 751 34 842 82 q 521 -14 660 -14 q 221 87 324 -14 q 118 353 118 188 l 118 992 l 328 992 l 328 385 q 378 213 328 263 q 526 163 428 163 q 676 217 629 163 q 722 386 722 271 l 722 992 l 932 992 l 932 350 m 647 1297 q 698 1228 667 1267 q 763 1154 729 1190 q 821 1093 796 1118 l 821 1075 l 683 1075 q 604 1127 647 1097 q 525 1194 561 1157 q 447 1128 489 1157 q 369 1075 406 1099 l 232 1075 l 232 1093 q 291 1155 258 1119 q 355 1228 324 1190 q 406 1297 386 1267 l 647 1297 z "},"Ü":{"ha":1050,"x_min":118,"x_max":932,"o":"m 932 350 q 887 165 932 247 q 751 34 842 82 q 521 -14 660 -14 q 221 87 324 -14 q 118 353 118 188 l 118 992 l 328 992 l 328 385 q 378 213 328 263 q 526 163 428 163 q 676 217 629 163 q 722 386 722 271 l 722 992 l 932 992 l 932 350 m 292 1186 q 319 1256 292 1235 q 386 1278 347 1278 q 453 1256 425 1278 q 482 1186 482 1235 q 453 1118 482 1140 q 386 1096 425 1096 q 319 1118 347 1096 q 292 1186 292 1140 m 565 1186 q 593 1256 565 1235 q 661 1278 621 1278 q 728 1256 700 1278 q 757 1186 757 1235 q 728 1118 757 1140 q 661 1096 700 1096 q 593 1118 621 1096 q 565 1186 565 1140 z "},"Ý":{"ha":867,"x_min":0,"x_max":867,"o":"m 433 583 l 640 992 l 867 992 l 538 386 l 538 0 l 329 0 l 329 379 l 0 992 l 228 992 l 433 583 m 700 1283 q 649 1236 681 1264 q 580 1178 617 1208 q 508 1120 543 1147 q 446 1075 472 1093 l 308 1075 l 308 1093 q 360 1155 331 1119 q 419 1228 390 1190 q 468 1297 449 1267 l 700 1297 l 700 1283 z "},"Þ":{"ha":872,"x_min":125,"x_max":810,"o":"m 810 522 q 775 364 810 438 q 659 244 740 290 q 439 199 578 199 l 335 199 l 335 0 l 125 0 l 125 992 l 335 992 l 335 836 l 456 836 q 724 751 639 836 q 810 522 810 665 m 403 368 q 549 404 501 368 q 597 522 597 440 q 554 631 597 596 q 419 665 511 665 l 335 665 l 335 368 l 403 368 z "},"ß":{"ha":988,"x_min":108,"x_max":939,"o":"m 847 842 q 828 753 847 790 q 779 688 808 715 q 721 639 750 660 q 672 601 692 618 q 653 565 653 583 q 685 517 653 539 q 794 446 717 496 q 901 353 863 403 q 939 221 939 303 q 859 46 939 106 q 626 -14 779 -14 q 421 29 497 -14 l 421 193 q 509 153 453 171 q 613 135 565 135 q 697 156 667 135 q 726 218 726 176 q 717 260 726 243 q 680 299 707 278 q 599 350 653 319 q 481 439 514 399 q 447 535 447 479 q 466 608 447 578 q 513 661 485 639 q 570 704 542 683 q 617 749 599 725 q 636 806 636 772 q 592 875 636 849 q 482 901 547 901 q 363 868 410 901 q 315 765 315 835 l 315 0 l 108 0 l 108 772 q 158 935 108 871 q 292 1031 207 1000 q 482 1063 376 1063 q 669 1037 586 1063 q 799 962 751 1011 q 847 842 847 913 z "},"à":{"ha":839,"x_min":58,"x_max":735,"o":"m 419 774 q 653 708 572 774 q 735 506 735 642 l 735 0 l 590 0 l 550 103 l 544 103 q 442 14 496 42 q 293 -14 388 -14 q 125 45 192 -14 q 58 226 58 104 q 143 405 58 347 q 397 468 228 463 l 529 472 l 529 506 q 498 593 529 565 q 411 621 467 621 q 303 605 356 621 q 197 565 250 589 l 129 706 q 265 756 190 738 q 419 774 339 774 m 449 349 q 310 313 349 346 q 271 225 271 279 q 299 158 271 178 q 371 138 326 138 q 483 177 438 138 q 529 289 529 217 l 529 351 l 449 349 m 386 1064 q 435 995 407 1033 q 494 922 464 957 q 546 860 524 886 l 546 842 l 408 842 q 347 887 382 860 q 274 944 311 914 q 206 1003 238 975 q 154 1050 174 1031 l 154 1064 l 386 1064 z "},"á":{"ha":839,"x_min":58,"x_max":735,"o":"m 419 774 q 653 708 572 774 q 735 506 735 642 l 735 0 l 590 0 l 550 103 l 544 103 q 442 14 496 42 q 293 -14 388 -14 q 125 45 192 -14 q 58 226 58 104 q 143 405 58 347 q 397 468 228 463 l 529 472 l 529 506 q 498 593 529 565 q 411 621 467 621 q 303 605 356 621 q 197 565 250 589 l 129 706 q 265 756 190 738 q 419 774 339 774 m 449 349 q 310 313 349 346 q 271 225 271 279 q 299 158 271 178 q 371 138 326 138 q 483 177 438 138 q 529 289 529 217 l 529 351 l 449 349 m 686 1050 q 635 1003 667 1031 q 566 944 603 975 q 494 887 529 914 q 432 842 458 860 l 294 842 l 294 860 q 347 922 317 886 q 406 995 376 957 q 454 1064 435 1033 l 686 1064 l 686 1050 z "},"â":{"ha":839,"x_min":58,"x_max":735,"o":"m 419 774 q 653 708 572 774 q 735 506 735 642 l 735 0 l 590 0 l 550 103 l 544 103 q 442 14 496 42 q 293 -14 388 -14 q 125 45 192 -14 q 58 226 58 104 q 143 405 58 347 q 397 468 228 463 l 529 472 l 529 506 q 498 593 529 565 q 411 621 467 621 q 303 605 356 621 q 197 565 250 589 l 129 706 q 265 756 190 738 q 419 774 339 774 m 449 349 q 310 313 349 346 q 271 225 271 279 q 299 158 271 178 q 371 138 326 138 q 483 177 438 138 q 529 289 529 217 l 529 351 l 449 349 m 542 1064 q 592 995 561 1033 q 657 921 624 957 q 715 860 690 885 l 715 842 l 578 842 q 499 894 542 864 q 419 961 456 924 q 342 894 383 924 q 264 842 300 865 l 126 842 l 126 860 q 185 922 153 886 q 249 995 218 957 q 300 1064 281 1033 l 542 1064 z "},"ã":{"ha":839,"x_min":58,"x_max":735,"o":"m 419 774 q 653 708 572 774 q 735 506 735 642 l 735 0 l 590 0 l 550 103 l 544 103 q 442 14 496 42 q 293 -14 388 -14 q 125 45 192 -14 q 58 226 58 104 q 143 405 58 347 q 397 468 228 463 l 529 472 l 529 506 q 498 593 529 565 q 411 621 467 621 q 303 605 356 621 q 197 565 250 589 l 129 706 q 265 756 190 738 q 419 774 339 774 m 449 349 q 310 313 349 346 q 271 225 271 279 q 299 158 271 178 q 371 138 326 138 q 483 177 438 138 q 529 289 529 217 l 529 351 l 449 349 m 138 840 q 198 999 146 949 q 322 1050 250 1050 q 395 1032 360 1050 q 465 997 431 1014 q 531 979 499 979 q 571 997 551 979 q 599 1051 590 1015 l 700 1051 q 639 893 692 944 q 515 842 586 842 q 444 859 479 842 q 374 894 408 876 q 307 913 340 913 q 267 894 286 913 q 239 840 247 876 l 138 840 z "},"ä":{"ha":839,"x_min":58,"x_max":735,"o":"m 419 774 q 653 708 572 774 q 735 506 735 642 l 735 0 l 590 0 l 550 103 l 544 103 q 442 14 496 42 q 293 -14 388 -14 q 125 45 192 -14 q 58 226 58 104 q 143 405 58 347 q 397 468 228 463 l 529 472 l 529 506 q 498 593 529 565 q 411 621 467 621 q 303 605 356 621 q 197 565 250 589 l 129 706 q 265 756 190 738 q 419 774 339 774 m 449 349 q 310 313 349 346 q 271 225 271 279 q 299 158 271 178 q 371 138 326 138 q 483 177 438 138 q 529 289 529 217 l 529 351 l 449 349 m 186 953 q 214 1023 186 1001 q 281 1044 242 1044 q 348 1023 319 1044 q 376 953 376 1001 q 348 885 376 907 q 281 863 319 863 q 214 885 242 863 q 186 953 186 907 m 460 953 q 488 1023 460 1001 q 556 1044 515 1044 q 623 1023 594 1044 q 651 953 651 1001 q 623 885 651 907 q 556 863 594 863 q 488 885 515 863 q 460 953 460 907 z "},"å":{"ha":839,"x_min":58,"x_max":735,"o":"m 419 774 q 653 708 572 774 q 735 506 735 642 l 735 0 l 590 0 l 550 103 l 544 103 q 442 14 496 42 q 293 -14 388 -14 q 125 45 192 -14 q 58 226 58 104 q 143 405 58 347 q 397 468 228 463 l 529 472 l 529 506 q 498 593 529 565 q 411 621 467 621 q 303 605 356 621 q 197 565 250 589 l 129 706 q 265 756 190 738 q 419 774 339 774 m 449 349 q 310 313 349 346 q 271 225 271 279 q 299 158 271 178 q 371 138 326 138 q 483 177 438 138 q 529 289 529 217 l 529 351 l 449 349 m 421 840 q 299 883 346 840 q 253 1001 253 926 q 299 1119 253 1076 q 421 1163 346 1163 q 543 1119 493 1163 q 593 1003 593 1076 q 544 883 593 926 q 421 840 494 840 m 421 936 q 467 953 449 936 q 486 1001 486 971 q 467 1049 486 1032 q 421 1067 449 1067 q 374 1049 393 1067 q 356 1001 356 1032 q 372 953 356 971 q 421 936 389 936 z "},"æ":{"ha":1274,"x_min":58,"x_max":1214,"o":"m 890 772 q 1059 732 986 772 q 1173 615 1132 692 q 1214 428 1214 539 l 1214 328 l 724 328 q 776 190 726 240 q 913 140 825 140 q 1171 200 1046 140 l 1171 40 q 1053 -1 1114 13 q 901 -14 992 -14 q 732 21 808 -14 q 607 126 656 56 q 526 47 567 78 q 432 1 485 15 q 300 -14 379 -14 q 180 12 235 -14 q 92 91 125 38 q 58 226 58 144 q 140 405 58 347 q 386 468 222 463 l 515 472 l 515 529 q 485 599 515 576 q 403 621 456 621 q 298 606 349 621 q 196 568 247 592 l 129 706 q 263 756 189 738 q 415 774 336 774 q 647 685 568 774 q 751 751 692 729 q 890 772 810 772 m 886 625 q 776 586 818 625 q 728 465 735 547 l 1019 465 q 985 580 1018 535 q 886 625 951 625 m 439 349 q 308 313 344 346 q 271 225 271 279 q 297 158 271 178 q 365 138 322 138 q 472 177 429 138 q 515 289 515 217 l 515 351 l 439 349 z "},"ç":{"ha":714,"x_min":63,"x_max":671,"o":"m 417 -14 q 155 80 247 -14 q 63 375 63 174 q 110 601 63 514 q 241 731 157 689 q 435 772 325 772 q 570 757 513 772 q 671 721 628 742 l 610 561 q 519 593 561 581 q 435 606 476 606 q 274 376 274 606 q 316 208 274 263 q 435 154 358 154 q 550 172 500 154 q 647 219 600 189 l 647 43 q 548 -1 600 13 q 417 -14 496 -14 m 565 -169 q 520 -290 565 -247 q 356 -333 475 -333 q 301 -329 325 -333 q 257 -319 276 -325 l 257 -206 q 305 -215 276 -211 q 354 -219 333 -219 q 388 -210 374 -219 q 403 -178 403 -201 q 378 -133 403 -153 q 290 -104 353 -114 l 343 0 l 474 0 l 456 -42 q 531 -87 497 -56 q 565 -169 565 -118 z "},"è":{"ha":821,"x_min":63,"x_max":761,"o":"m 421 772 q 669 683 578 772 q 761 428 761 593 l 761 328 l 272 328 q 324 190 275 240 q 461 140 374 140 q 594 155 535 140 q 718 200 654 169 l 718 40 q 601 -1 663 13 q 451 -14 539 -14 q 250 28 338 -14 q 113 157 163 71 q 63 374 63 243 q 108 595 63 507 q 233 728 153 683 q 421 772 314 772 m 422 625 q 323 586 363 625 q 276 465 283 547 l 567 465 q 531 580 565 535 q 422 625 496 625 m 378 1064 q 427 995 399 1033 q 485 922 456 957 q 538 860 515 886 l 538 842 l 400 842 q 338 887 374 860 q 266 944 303 914 q 197 1003 229 975 q 146 1050 165 1031 l 146 1064 l 378 1064 z "},"é":{"ha":821,"x_min":63,"x_max":761,"o":"m 421 772 q 669 683 578 772 q 761 428 761 593 l 761 328 l 272 328 q 324 190 275 240 q 461 140 374 140 q 594 155 535 140 q 718 200 654 169 l 718 40 q 601 -1 663 13 q 451 -14 539 -14 q 250 28 338 -14 q 113 157 163 71 q 63 374 63 243 q 108 595 63 507 q 233 728 153 683 q 421 772 314 772 m 422 625 q 323 586 363 625 q 276 465 283 547 l 567 465 q 531 580 565 535 q 422 625 496 625 m 678 1050 q 626 1003 658 1031 q 558 944 594 975 q 485 887 521 914 q 424 842 450 860 l 286 842 l 286 860 q 338 922 308 886 q 397 995 368 957 q 446 1064 426 1033 l 678 1064 l 678 1050 z "},"ê":{"ha":821,"x_min":63,"x_max":761,"o":"m 421 772 q 669 683 578 772 q 761 428 761 593 l 761 328 l 272 328 q 324 190 275 240 q 461 140 374 140 q 594 155 535 140 q 718 200 654 169 l 718 40 q 601 -1 663 13 q 451 -14 539 -14 q 250 28 338 -14 q 113 157 163 71 q 63 374 63 243 q 108 595 63 507 q 233 728 153 683 q 421 772 314 772 m 422 625 q 323 586 363 625 q 276 465 283 547 l 567 465 q 531 580 565 535 q 422 625 496 625 m 533 1064 q 584 995 553 1033 q 649 921 615 957 q 707 860 682 885 l 707 842 l 569 842 q 490 894 533 864 q 411 961 447 924 q 333 894 375 924 q 256 842 292 865 l 118 842 l 118 860 q 177 922 144 886 q 241 995 210 957 q 292 1064 272 1033 l 533 1064 z "},"ë":{"ha":821,"x_min":63,"x_max":761,"o":"m 421 772 q 669 683 578 772 q 761 428 761 593 l 761 328 l 272 328 q 324 190 275 240 q 461 140 374 140 q 594 155 535 140 q 718 200 654 169 l 718 40 q 601 -1 663 13 q 451 -14 539 -14 q 250 28 338 -14 q 113 157 163 71 q 63 374 63 243 q 108 595 63 507 q 233 728 153 683 q 421 772 314 772 m 422 625 q 323 586 363 625 q 276 465 283 547 l 567 465 q 531 580 565 535 q 422 625 496 625 m 178 953 q 206 1023 178 1001 q 272 1044 233 1044 q 340 1023 311 1044 q 368 953 368 1001 q 340 885 368 907 q 272 863 311 863 q 206 885 233 863 q 178 953 178 907 m 451 953 q 479 1023 451 1001 q 547 1044 507 1044 q 615 1023 586 1044 q 643 953 643 1001 q 615 885 643 907 q 547 863 586 863 q 479 885 507 863 q 451 953 451 907 z "},"ì":{"ha":424,"x_min":-53,"x_max":339,"o":"m 315 0 l 108 0 l 108 758 l 315 758 l 315 0 m 179 1064 q 228 995 200 1033 q 287 922 257 957 q 339 860 317 886 l 339 842 l 201 842 q 140 887 175 860 q 67 944 104 914 q -1 1003 31 975 q -53 1050 -33 1031 l -53 1064 l 179 1064 z "},"í":{"ha":424,"x_min":88,"x_max":479,"o":"m 315 0 l 108 0 l 108 758 l 315 758 l 315 0 m 479 1050 q 428 1003 460 1031 q 359 944 396 975 q 287 887 322 914 q 225 842 251 860 l 88 842 l 88 860 q 140 922 110 886 q 199 995 169 957 q 247 1064 228 1033 l 479 1064 l 479 1050 z "},"î":{"ha":424,"x_min":-81,"x_max":508,"o":"m 315 0 l 108 0 l 108 758 l 315 758 l 315 0 m 335 1064 q 385 995 354 1033 q 450 921 417 957 q 508 860 483 885 l 508 842 l 371 842 q 292 894 335 864 q 213 961 249 924 q 135 894 176 924 q 57 842 93 865 l -81 842 l -81 860 q -22 922 -54 886 q 42 995 11 957 q 93 1064 74 1033 l 335 1064 z "},"ï":{"ha":424,"x_min":-21,"x_max":444,"o":"m 315 0 l 108 0 l 108 758 l 315 758 l 315 0 m -21 953 q 7 1023 -21 1001 q 74 1044 35 1044 q 141 1023 113 1044 q 169 953 169 1001 q 141 885 169 907 q 74 863 113 863 q 7 885 35 863 q -21 953 -21 907 m 253 953 q 281 1023 253 1001 q 349 1044 308 1044 q 416 1023 388 1044 q 444 953 444 1001 q 416 885 444 907 q 349 863 388 863 q 281 885 308 863 q 253 953 253 907 z "},"ð":{"ha":860,"x_min":63,"x_max":797,"o":"m 311 1063 q 403 1017 360 1040 q 486 967 447 993 l 639 1061 l 707 957 l 592 886 q 745 674 693 793 q 797 389 797 554 q 697 91 797 196 q 428 -14 597 -14 q 240 26 322 -14 q 110 144 157 67 q 63 332 63 222 q 104 518 63 442 q 219 635 146 594 q 389 675 293 675 q 575 608 528 675 l 581 611 q 526 712 558 667 q 450 799 494 757 l 294 703 l 226 808 l 346 881 q 297 912 322 896 q 243 943 271 928 l 311 1063 m 431 522 q 310 474 346 522 q 274 331 274 426 q 310 192 274 246 q 431 139 347 139 q 550 195 514 139 q 586 361 586 251 q 549 474 586 425 q 431 522 511 522 z "},"ñ":{"ha":913,"x_min":108,"x_max":808,"o":"m 539 772 q 735 706 661 772 q 808 494 808 640 l 808 0 l 601 0 l 601 443 q 572 566 601 525 q 479 607 543 607 q 350 542 385 607 q 315 357 315 478 l 315 0 l 108 0 l 108 758 l 267 758 l 294 661 l 306 661 q 405 746 342 719 q 539 772 468 772 m 175 840 q 235 999 183 949 q 360 1050 288 1050 q 433 1032 397 1050 q 502 997 468 1014 q 568 979 536 979 q 608 997 589 979 q 636 1051 628 1015 l 738 1051 q 676 893 729 944 q 553 842 624 842 q 481 859 517 842 q 412 894 446 876 q 344 913 378 913 q 304 894 324 913 q 276 840 285 876 l 175 840 z "},"ò":{"ha":860,"x_min":63,"x_max":797,"o":"m 797 381 q 698 89 797 192 q 428 -14 599 -14 q 240 32 322 -14 q 110 166 157 78 q 63 381 63 254 q 161 671 63 569 q 432 772 260 772 q 621 726 539 772 q 750 594 703 681 q 797 381 797 507 m 274 381 q 310 210 274 268 q 431 153 347 153 q 549 210 513 153 q 586 381 586 268 q 549 549 586 493 q 429 606 513 606 q 310 549 347 606 q 274 381 274 493 m 397 1064 q 447 995 418 1033 q 505 922 475 957 q 557 860 535 886 l 557 842 l 419 842 q 358 887 393 860 q 285 944 322 914 q 217 1003 249 975 q 165 1050 185 1031 l 165 1064 l 397 1064 z "},"ó":{"ha":860,"x_min":63,"x_max":797,"o":"m 797 381 q 698 89 797 192 q 428 -14 599 -14 q 240 32 322 -14 q 110 166 157 78 q 63 381 63 254 q 161 671 63 569 q 432 772 260 772 q 621 726 539 772 q 750 594 703 681 q 797 381 797 507 m 274 381 q 310 210 274 268 q 431 153 347 153 q 549 210 513 153 q 586 381 586 268 q 549 549 586 493 q 429 606 513 606 q 310 549 347 606 q 274 381 274 493 m 697 1050 q 646 1003 678 1031 q 577 944 614 975 q 505 887 540 914 q 443 842 469 860 l 306 842 l 306 860 q 358 922 328 886 q 417 995 388 957 q 465 1064 446 1033 l 697 1064 l 697 1050 z "},"ô":{"ha":860,"x_min":63,"x_max":797,"o":"m 797 381 q 698 89 797 192 q 428 -14 599 -14 q 240 32 322 -14 q 110 166 157 78 q 63 381 63 254 q 161 671 63 569 q 432 772 260 772 q 621 726 539 772 q 750 594 703 681 q 797 381 797 507 m 274 381 q 310 210 274 268 q 431 153 347 153 q 549 210 513 153 q 586 381 586 268 q 549 549 586 493 q 429 606 513 606 q 310 549 347 606 q 274 381 274 493 m 553 1064 q 603 995 572 1033 q 668 921 635 957 q 726 860 701 885 l 726 842 l 589 842 q 510 894 553 864 q 431 961 467 924 q 353 894 394 924 q 275 842 311 865 l 138 842 l 138 860 q 197 922 164 886 q 260 995 229 957 q 311 1064 292 1033 l 553 1064 z "},"õ":{"ha":860,"x_min":63,"x_max":797,"o":"m 797 381 q 698 89 797 192 q 428 -14 599 -14 q 240 32 322 -14 q 110 166 157 78 q 63 381 63 254 q 161 671 63 569 q 432 772 260 772 q 621 726 539 772 q 750 594 703 681 q 797 381 797 507 m 274 381 q 310 210 274 268 q 431 153 347 153 q 549 210 513 153 q 586 381 586 268 q 549 549 586 493 q 429 606 513 606 q 310 549 347 606 q 274 381 274 493 m 149 840 q 209 999 157 949 q 333 1050 261 1050 q 406 1032 371 1050 q 476 997 442 1014 q 542 979 510 979 q 582 997 563 979 q 610 1051 601 1015 l 711 1051 q 650 893 703 944 q 526 842 597 842 q 455 859 490 842 q 385 894 419 876 q 318 913 351 913 q 278 894 297 913 q 250 840 258 876 l 149 840 z "},"ö":{"ha":860,"x_min":63,"x_max":797,"o":"m 797 381 q 698 89 797 192 q 428 -14 599 -14 q 240 32 322 -14 q 110 166 157 78 q 63 381 63 254 q 161 671 63 569 q 432 772 260 772 q 621 726 539 772 q 750 594 703 681 q 797 381 797 507 m 274 381 q 310 210 274 268 q 431 153 347 153 q 549 210 513 153 q 586 381 586 268 q 549 549 586 493 q 429 606 513 606 q 310 549 347 606 q 274 381 274 493 m 197 953 q 225 1023 197 1001 q 292 1044 253 1044 q 359 1023 331 1044 q 388 953 388 1001 q 359 885 388 907 q 292 863 331 863 q 225 885 253 863 q 197 953 197 907 m 471 953 q 499 1023 471 1001 q 567 1044 526 1044 q 634 1023 606 1044 q 663 953 663 1001 q 634 885 663 907 q 567 863 606 863 q 499 885 526 863 q 471 953 471 907 z "},"÷":{"ha":794,"x_min":60,"x_max":733,"o":"m 396 624 q 329 648 357 624 q 301 726 301 672 q 329 806 301 783 q 396 829 357 829 q 462 806 433 829 q 490 726 490 783 q 462 648 490 672 q 396 624 433 624 m 60 415 l 60 564 l 733 564 l 733 415 l 60 415 m 396 150 q 329 174 357 150 q 301 253 301 199 q 329 333 301 310 q 396 356 357 356 q 462 333 433 356 q 490 253 490 310 q 462 174 490 199 q 396 150 433 150 z "},"ø":{"ha":860,"x_min":63,"x_max":797,"o":"m 797 381 q 698 89 797 192 q 428 -14 599 -14 q 345 -6 385 -14 q 269 17 306 3 l 224 -51 l 119 19 l 165 88 q 90 212 117 139 q 63 381 63 285 q 161 671 63 569 q 432 772 260 772 q 600 738 522 772 l 638 793 l 740 719 l 701 663 q 772 542 747 613 q 797 381 797 471 m 274 381 q 286 268 274 314 l 501 590 q 429 606 471 606 q 310 549 347 606 q 274 381 274 493 m 586 381 q 578 476 586 435 l 368 163 q 431 153 393 153 q 549 210 513 153 q 586 381 586 268 z "},"ù":{"ha":913,"x_min":104,"x_max":804,"o":"m 804 758 l 804 0 l 646 0 l 618 97 l 607 97 q 508 13 571 39 q 374 -14 444 -14 q 178 52 251 -14 q 104 264 104 118 l 104 758 l 311 758 l 311 315 q 340 193 311 235 q 433 151 369 151 q 563 216 528 151 q 597 401 597 281 l 597 758 l 804 758 m 424 1064 q 473 995 444 1033 q 531 922 501 957 q 583 860 561 886 l 583 842 l 446 842 q 384 887 419 860 q 312 944 349 914 q 243 1003 275 975 q 192 1050 211 1031 l 192 1064 l 424 1064 z "},"ú":{"ha":913,"x_min":104,"x_max":804,"o":"m 804 758 l 804 0 l 646 0 l 618 97 l 607 97 q 508 13 571 39 q 374 -14 444 -14 q 178 52 251 -14 q 104 264 104 118 l 104 758 l 311 758 l 311 315 q 340 193 311 235 q 433 151 369 151 q 563 216 528 151 q 597 401 597 281 l 597 758 l 804 758 m 724 1050 q 672 1003 704 1031 q 603 944 640 975 q 531 887 567 914 q 469 842 496 860 l 332 842 l 332 860 q 384 922 354 886 q 443 995 414 957 q 492 1064 472 1033 l 724 1064 l 724 1050 z "},"û":{"ha":913,"x_min":104,"x_max":804,"o":"m 804 758 l 804 0 l 646 0 l 618 97 l 607 97 q 508 13 571 39 q 374 -14 444 -14 q 178 52 251 -14 q 104 264 104 118 l 104 758 l 311 758 l 311 315 q 340 193 311 235 q 433 151 369 151 q 563 216 528 151 q 597 401 597 281 l 597 758 l 804 758 m 579 1064 q 630 995 599 1033 q 694 921 661 957 q 753 860 728 885 l 753 842 l 615 842 q 536 894 579 864 q 457 961 493 924 q 379 894 421 924 q 301 842 338 865 l 164 842 l 164 860 q 223 922 190 886 q 287 995 256 957 q 338 1064 318 1033 l 579 1064 z "},"ü":{"ha":913,"x_min":104,"x_max":804,"o":"m 804 758 l 804 0 l 646 0 l 618 97 l 607 97 q 508 13 571 39 q 374 -14 444 -14 q 178 52 251 -14 q 104 264 104 118 l 104 758 l 311 758 l 311 315 q 340 193 311 235 q 433 151 369 151 q 563 216 528 151 q 597 401 597 281 l 597 758 l 804 758 m 224 953 q 251 1023 224 1001 q 318 1044 279 1044 q 385 1023 357 1044 q 414 953 414 1001 q 385 885 414 907 q 318 863 357 863 q 251 885 279 863 q 224 953 224 907 m 497 953 q 525 1023 497 1001 q 593 1044 553 1044 q 660 1023 632 1044 q 689 953 689 1001 q 660 885 689 907 q 593 863 632 863 q 525 885 553 863 q 497 953 497 907 z "},"ý":{"ha":790,"x_min":0,"x_max":790,"o":"m 0 758 l 226 758 l 369 332 q 386 269 381 301 q 394 200 392 236 l 399 200 q 410 269 403 236 q 428 332 418 301 l 568 758 l 790 758 l 469 -97 q 344 -274 426 -215 q 153 -333 261 -333 q 92 -330 118 -333 q 47 -322 67 -326 l 47 -158 q 84 -164 63 -161 q 129 -167 106 -167 q 233 -127 194 -167 q 289 -32 271 -87 l 301 6 l 0 758 m 663 1050 q 611 1003 643 1031 q 542 944 579 975 q 470 887 506 914 q 408 842 435 860 l 271 842 l 271 860 q 323 922 293 886 q 382 995 353 957 q 431 1064 411 1033 l 663 1064 l 663 1050 z "},"þ":{"ha":879,"x_min":108,"x_max":817,"o":"m 817 381 q 738 87 817 188 q 531 -14 658 -14 q 397 13 449 -14 q 315 79 346 40 l 306 79 q 313 27 310 58 q 315 -26 315 -4 l 315 -333 l 108 -333 l 108 1056 l 315 1056 l 315 790 q 312 719 315 757 q 306 660 308 681 l 315 660 q 397 740 344 707 q 531 772 450 772 q 738 673 658 772 q 817 381 817 574 m 606 383 q 464 607 606 607 q 351 557 383 607 q 315 404 318 507 l 315 382 q 348 213 315 272 q 467 154 381 154 q 572 213 538 154 q 606 383 606 272 z "},"ÿ":{"ha":790,"x_min":0,"x_max":790,"o":"m 0 758 l 226 758 l 369 332 q 386 269 381 301 q 394 200 392 236 l 399 200 q 410 269 403 236 q 428 332 418 301 l 568 758 l 790 758 l 469 -97 q 344 -274 426 -215 q 153 -333 261 -333 q 92 -330 118 -333 q 47 -322 67 -326 l 47 -158 q 84 -164 63 -161 q 129 -167 106 -167 q 233 -127 194 -167 q 289 -32 271 -87 l 301 6 l 0 758 m 163 953 q 190 1023 163 1001 q 257 1044 218 1044 q 324 1023 296 1044 q 353 953 353 1001 q 324 885 353 907 q 257 863 296 863 q 190 885 218 863 q 163 953 163 907 m 436 953 q 464 1023 436 1001 q 532 1044 492 1044 q 599 1023 571 1044 q 628 953 628 1001 q 599 885 628 907 q 532 863 571 863 q 464 885 492 863 q 436 953 436 907 z "},"Ā":{"ha":958,"x_min":0,"x_max":958,"o":"m 732 0 l 660 236 l 299 236 l 226 0 l 0 0 l 350 996 l 607 996 l 958 0 l 732 0 m 538 643 q 519 703 531 667 q 497 776 508 739 q 479 842 486 814 q 460 773 472 814 q 438 695 449 732 q 422 643 428 658 l 351 413 l 610 413 l 538 643 m 710 1218 l 710 1075 l 250 1075 l 250 1218 l 710 1218 z "},"ā":{"ha":839,"x_min":58,"x_max":735,"o":"m 419 774 q 653 708 572 774 q 735 506 735 642 l 735 0 l 590 0 l 550 103 l 544 103 q 442 14 496 42 q 293 -14 388 -14 q 125 45 192 -14 q 58 226 58 104 q 143 405 58 347 q 397 468 228 463 l 529 472 l 529 506 q 498 593 529 565 q 411 621 467 621 q 303 605 356 621 q 197 565 250 589 l 129 706 q 265 756 190 738 q 419 774 339 774 m 449 349 q 310 313 349 346 q 271 225 271 279 q 299 158 271 178 q 371 138 326 138 q 483 177 438 138 q 529 289 529 217 l 529 351 l 449 349 m 650 985 l 650 842 l 190 842 l 190 985 l 650 985 z "},"Ă":{"ha":958,"x_min":0,"x_max":958,"o":"m 732 0 l 660 236 l 299 236 l 226 0 l 0 0 l 350 996 l 607 996 l 958 0 l 732 0 m 538 643 q 519 703 531 667 q 497 776 508 739 q 479 842 486 814 q 460 773 472 814 q 438 695 449 732 q 422 643 428 658 l 351 413 l 610 413 l 538 643 m 750 1304 q 669 1139 743 1203 q 481 1075 596 1075 q 292 1138 361 1075 q 217 1304 222 1200 l 332 1304 q 356 1247 336 1265 q 410 1224 376 1229 q 482 1219 443 1219 q 548 1226 515 1219 q 604 1250 581 1232 q 632 1304 628 1268 l 750 1304 z "},"ă":{"ha":839,"x_min":58,"x_max":735,"o":"m 419 774 q 653 708 572 774 q 735 506 735 642 l 735 0 l 590 0 l 550 103 l 544 103 q 442 14 496 42 q 293 -14 388 -14 q 125 45 192 -14 q 58 226 58 104 q 143 405 58 347 q 397 468 228 463 l 529 472 l 529 506 q 498 593 529 565 q 411 621 467 621 q 303 605 356 621 q 197 565 250 589 l 129 706 q 265 756 190 738 q 419 774 339 774 m 449 349 q 310 313 349 346 q 271 225 271 279 q 299 158 271 178 q 371 138 326 138 q 483 177 438 138 q 529 289 529 217 l 529 351 l 449 349 m 690 1071 q 610 906 683 969 q 421 842 536 842 q 232 904 301 842 q 157 1071 163 967 l 272 1071 q 297 1014 276 1032 q 350 991 317 996 q 422 986 383 986 q 488 992 456 986 q 544 1017 521 999 q 572 1071 568 1035 l 690 1071 z "},"Ą":{"ha":958,"x_min":0,"x_max":958,"o":"m 732 0 l 660 236 l 299 236 l 226 0 l 0 0 l 350 996 l 607 996 l 958 0 l 732 0 m 538 643 q 519 703 531 667 q 497 776 508 739 q 479 842 486 814 q 460 773 472 814 q 438 695 449 732 q 422 643 428 658 l 351 413 l 610 413 l 538 643 m 799 -154 q 814 -196 799 -182 q 853 -210 829 -210 q 896 -206 875 -210 q 931 -197 917 -201 l 931 -318 q 883 -328 908 -324 q 825 -333 858 -333 q 701 -290 747 -333 q 656 -178 656 -246 q 700 -64 656 -117 q 808 24 744 -11 l 899 0 q 825 -81 851 -44 q 799 -154 799 -118 z "},"ą":{"ha":839,"x_min":58,"x_max":750,"o":"m 419 774 q 653 708 572 774 q 735 506 735 642 l 735 0 l 590 0 l 550 103 l 544 103 q 442 14 496 42 q 293 -14 388 -14 q 125 45 192 -14 q 58 226 58 104 q 143 405 58 347 q 397 468 228 463 l 529 472 l 529 506 q 498 593 529 565 q 411 621 467 621 q 303 605 356 621 q 197 565 250 589 l 129 706 q 265 756 190 738 q 419 774 339 774 m 449 349 q 310 313 349 346 q 271 225 271 279 q 299 158 271 178 q 371 138 326 138 q 483 177 438 138 q 529 289 529 217 l 529 351 l 449 349 m 618 -154 q 633 -196 618 -182 q 672 -210 649 -210 q 715 -206 694 -210 q 750 -197 736 -201 l 750 -318 q 703 -328 728 -324 q 644 -333 678 -333 q 521 -290 567 -333 q 475 -178 475 -246 q 519 -64 475 -117 q 628 24 564 -11 l 718 0 q 644 -81 671 -44 q 618 -154 618 -118 z "},"Ć":{"ha":885,"x_min":81,"x_max":836,"o":"m 546 831 q 361 740 425 831 q 297 493 297 650 q 356 248 297 335 q 546 161 415 161 q 667 175 607 161 q 799 214 728 189 l 799 38 q 669 -1 733 11 q 526 -14 606 -14 q 274 49 374 -14 q 128 227 175 113 q 81 494 81 342 q 135 760 81 644 q 292 940 189 875 q 546 1006 396 1006 q 694 987 619 1006 q 836 936 768 968 l 768 765 q 656 811 713 792 q 546 831 600 831 m 790 1283 q 739 1236 771 1264 q 670 1178 707 1208 q 598 1120 633 1147 q 536 1075 563 1093 l 399 1075 l 399 1093 q 451 1155 421 1119 q 510 1228 481 1190 q 558 1297 539 1267 l 790 1297 l 790 1283 z "},"ć":{"ha":714,"x_min":63,"x_max":671,"o":"m 417 -14 q 155 80 247 -14 q 63 375 63 174 q 110 601 63 514 q 241 731 157 689 q 435 772 325 772 q 570 757 513 772 q 671 721 628 742 l 610 561 q 519 593 561 581 q 435 606 476 606 q 274 376 274 606 q 316 208 274 263 q 435 154 358 154 q 550 172 500 154 q 647 219 600 189 l 647 43 q 548 -1 600 13 q 417 -14 496 -14 m 665 1050 q 614 1003 646 1031 q 545 944 582 975 q 473 887 508 914 q 411 842 438 860 l 274 842 l 274 860 q 326 922 296 886 q 385 995 356 957 q 433 1064 414 1033 l 665 1064 l 665 1050 z "},"Ĉ":{"ha":885,"x_min":81,"x_max":836,"o":"m 546 831 q 361 740 425 831 q 297 493 297 650 q 356 248 297 335 q 546 161 415 161 q 667 175 607 161 q 799 214 728 189 l 799 38 q 669 -1 733 11 q 526 -14 606 -14 q 274 49 374 -14 q 128 227 175 113 q 81 494 81 342 q 135 760 81 644 q 292 940 189 875 q 546 1006 396 1006 q 694 987 619 1006 q 836 936 768 968 l 768 765 q 656 811 713 792 q 546 831 600 831 m 646 1297 q 697 1228 665 1267 q 761 1154 728 1190 q 819 1093 794 1118 l 819 1075 l 682 1075 q 603 1127 646 1097 q 524 1194 560 1157 q 446 1128 488 1157 q 368 1075 404 1099 l 231 1075 l 231 1093 q 290 1155 257 1119 q 353 1228 322 1190 q 404 1297 385 1267 l 646 1297 z "},"ĉ":{"ha":714,"x_min":63,"x_max":694,"o":"m 417 -14 q 155 80 247 -14 q 63 375 63 174 q 110 601 63 514 q 241 731 157 689 q 435 772 325 772 q 570 757 513 772 q 671 721 628 742 l 610 561 q 519 593 561 581 q 435 606 476 606 q 274 376 274 606 q 316 208 274 263 q 435 154 358 154 q 550 172 500 154 q 647 219 600 189 l 647 43 q 548 -1 600 13 q 417 -14 496 -14 m 521 1064 q 572 995 540 1033 q 636 921 603 957 q 694 860 669 885 l 694 842 l 557 842 q 478 894 521 864 q 399 961 435 924 q 321 894 363 924 q 243 842 279 865 l 106 842 l 106 860 q 165 922 132 886 q 228 995 197 957 q 279 1064 260 1033 l 521 1064 z "},"Ċ":{"ha":885,"x_min":81,"x_max":836,"o":"m 546 831 q 361 740 425 831 q 297 493 297 650 q 356 248 297 335 q 546 161 415 161 q 667 175 607 161 q 799 214 728 189 l 799 38 q 669 -1 733 11 q 526 -14 606 -14 q 274 49 374 -14 q 128 227 175 113 q 81 494 81 342 q 135 760 81 644 q 292 940 189 875 q 546 1006 396 1006 q 694 987 619 1006 q 836 936 768 968 l 768 765 q 656 811 713 792 q 546 831 600 831 m 526 1289 q 606 1267 572 1289 q 639 1188 639 1246 q 606 1108 639 1131 q 526 1086 572 1086 q 447 1108 479 1086 q 414 1188 414 1131 q 447 1267 414 1246 q 526 1289 479 1289 z "},"ċ":{"ha":714,"x_min":63,"x_max":671,"o":"m 417 -14 q 155 80 247 -14 q 63 375 63 174 q 110 601 63 514 q 241 731 157 689 q 435 772 325 772 q 570 757 513 772 q 671 721 628 742 l 610 561 q 519 593 561 581 q 435 606 476 606 q 274 376 274 606 q 316 208 274 263 q 435 154 358 154 q 550 172 500 154 q 647 219 600 189 l 647 43 q 548 -1 600 13 q 417 -14 496 -14 m 401 1056 q 481 1034 447 1056 q 514 954 514 1013 q 481 875 514 897 q 401 853 447 853 q 322 875 354 853 q 289 954 289 897 q 322 1034 289 1013 q 401 1056 354 1056 z "},"Č":{"ha":885,"x_min":81,"x_max":836,"o":"m 546 831 q 361 740 425 831 q 297 493 297 650 q 356 248 297 335 q 546 161 415 161 q 667 175 607 161 q 799 214 728 189 l 799 38 q 669 -1 733 11 q 526 -14 606 -14 q 274 49 374 -14 q 128 227 175 113 q 81 494 81 342 q 135 760 81 644 q 292 940 189 875 q 546 1006 396 1006 q 694 987 619 1006 q 836 936 768 968 l 768 765 q 656 811 713 792 q 546 831 600 831 m 406 1075 q 355 1144 386 1107 q 291 1218 324 1182 q 232 1279 258 1254 l 232 1297 l 369 1297 q 447 1245 406 1275 q 525 1178 489 1215 q 604 1245 561 1215 q 683 1297 647 1275 l 821 1297 l 821 1279 q 763 1218 796 1254 q 698 1144 729 1182 q 647 1075 667 1107 l 406 1075 z "},"č":{"ha":714,"x_min":63,"x_max":696,"o":"m 417 -14 q 155 80 247 -14 q 63 375 63 174 q 110 601 63 514 q 241 731 157 689 q 435 772 325 772 q 570 757 513 772 q 671 721 628 742 l 610 561 q 519 593 561 581 q 435 606 476 606 q 274 376 274 606 q 316 208 274 263 q 435 154 358 154 q 550 172 500 154 q 647 219 600 189 l 647 43 q 548 -1 600 13 q 417 -14 496 -14 m 281 842 q 230 911 261 874 q 166 985 199 949 q 107 1046 133 1021 l 107 1064 l 244 1064 q 322 1012 281 1042 q 400 944 364 982 q 479 1012 436 982 q 558 1064 522 1042 l 696 1064 l 696 1046 q 638 985 671 1021 q 573 911 604 949 q 522 842 542 874 l 281 842 z "},"Ď":{"ha":1028,"x_min":125,"x_max":947,"o":"m 947 506 q 805 127 947 254 q 406 0 663 0 l 125 0 l 125 992 l 436 992 q 706 936 592 992 q 884 773 821 881 q 947 506 947 665 m 729 500 q 657 742 729 665 q 447 819 585 819 l 335 819 l 335 174 l 425 174 q 729 500 729 174 m 396 1075 q 345 1144 376 1107 q 281 1218 314 1182 q 222 1279 249 1254 l 222 1297 l 360 1297 q 438 1245 396 1275 q 515 1178 479 1215 q 594 1245 551 1215 q 674 1297 638 1275 l 811 1297 l 811 1279 q 753 1218 786 1254 q 688 1144 719 1182 q 638 1075 657 1107 l 396 1075 z "},"ď":{"ha":879,"x_min":63,"x_max":1051,"o":"m 1051 1042 q 1003 942 1031 996 q 939 833 975 889 l 818 833 l 818 851 q 842 951 829 892 q 860 1056 854 1011 l 1051 1056 l 1051 1042 m 349 -14 q 142 85 222 -14 q 63 378 63 185 q 143 672 63 572 q 354 772 224 772 q 489 740 436 772 q 572 661 542 708 l 579 661 q 569 726 575 683 q 564 813 564 768 l 564 1056 l 771 1056 l 771 0 l 613 0 l 572 99 l 564 99 q 482 19 533 51 q 349 -14 431 -14 m 421 151 q 542 202 507 151 q 578 354 576 253 l 578 376 q 544 546 578 488 q 418 604 510 604 q 311 545 350 604 q 272 375 272 486 q 311 208 272 264 q 421 151 350 151 z "},"Đ":{"ha":1028,"x_min":32,"x_max":947,"o":"m 436 992 q 706 936 592 992 q 884 773 821 881 q 947 506 947 665 q 805 127 947 254 q 406 0 663 0 l 125 0 l 125 404 l 32 404 l 32 576 l 125 576 l 125 992 l 436 992 m 446 819 l 335 819 l 335 576 l 496 576 l 496 404 l 335 404 l 335 174 l 424 174 q 729 500 729 174 q 656 742 729 665 q 446 819 582 819 z "},"đ":{"ha":901,"x_min":63,"x_max":876,"o":"m 349 -14 q 142 81 222 -14 q 63 357 63 175 q 143 636 63 542 q 354 731 224 731 q 489 699 436 731 q 572 619 542 667 l 579 619 q 569 695 574 649 q 564 776 564 742 l 564 811 l 350 811 l 350 946 l 564 946 l 564 1056 l 771 1056 l 771 946 l 876 946 l 876 811 l 771 811 l 771 0 l 613 0 l 572 99 l 564 99 q 482 19 533 51 q 349 -14 431 -14 m 421 151 q 542 197 507 151 q 578 336 576 243 l 578 356 q 544 509 578 456 q 418 563 510 563 q 311 509 350 563 q 272 354 272 456 q 311 202 272 253 q 421 151 350 151 z "},"Ē":{"ha":778,"x_min":125,"x_max":696,"o":"m 696 0 l 125 0 l 125 992 l 696 992 l 696 819 l 335 819 l 335 601 l 671 601 l 671 429 l 335 429 l 335 174 l 696 174 l 696 0 m 649 1218 l 649 1075 l 189 1075 l 189 1218 l 649 1218 z "},"ē":{"ha":821,"x_min":63,"x_max":761,"o":"m 421 772 q 669 683 578 772 q 761 428 761 593 l 761 328 l 272 328 q 324 190 275 240 q 461 140 374 140 q 594 155 535 140 q 718 200 654 169 l 718 40 q 601 -1 663 13 q 451 -14 539 -14 q 250 28 338 -14 q 113 157 163 71 q 63 374 63 243 q 108 595 63 507 q 233 728 153 683 q 421 772 314 772 m 422 625 q 323 586 363 625 q 276 465 283 547 l 567 465 q 531 580 565 535 q 422 625 496 625 m 642 985 l 642 842 l 182 842 l 182 985 l 642 985 z "},"Ĕ":{"ha":778,"x_min":125,"x_max":696,"o":"m 696 0 l 125 0 l 125 992 l 696 992 l 696 819 l 335 819 l 335 601 l 671 601 l 671 429 l 335 429 l 335 174 l 696 174 l 696 0 m 689 1304 q 608 1139 682 1203 q 419 1075 535 1075 q 231 1138 300 1075 q 156 1304 161 1200 l 271 1304 q 295 1247 275 1265 q 349 1224 315 1229 q 421 1219 382 1219 q 487 1226 454 1219 q 543 1250 519 1232 q 571 1304 567 1268 l 689 1304 z "},"ĕ":{"ha":821,"x_min":63,"x_max":761,"o":"m 421 772 q 669 683 578 772 q 761 428 761 593 l 761 328 l 272 328 q 324 190 275 240 q 461 140 374 140 q 594 155 535 140 q 718 200 654 169 l 718 40 q 601 -1 663 13 q 451 -14 539 -14 q 250 28 338 -14 q 113 157 163 71 q 63 374 63 243 q 108 595 63 507 q 233 728 153 683 q 421 772 314 772 m 422 625 q 323 586 363 625 q 276 465 283 547 l 567 465 q 531 580 565 535 q 422 625 496 625 m 682 1071 q 601 906 675 969 q 413 842 528 842 q 224 904 293 842 q 149 1071 154 967 l 264 1071 q 288 1014 268 1032 q 342 991 308 996 q 414 986 375 986 q 480 992 447 986 q 536 1017 513 999 q 564 1071 560 1035 l 682 1071 z "},"Ė":{"ha":778,"x_min":125,"x_max":696,"o":"m 696 0 l 125 0 l 125 992 l 696 992 l 696 819 l 335 819 l 335 601 l 671 601 l 671 429 l 335 429 l 335 174 l 696 174 l 696 0 m 421 1289 q 500 1267 467 1289 q 533 1188 533 1246 q 500 1108 533 1131 q 421 1086 467 1086 q 341 1108 374 1086 q 308 1188 308 1131 q 341 1267 308 1246 q 421 1289 374 1289 z "},"ė":{"ha":821,"x_min":63,"x_max":761,"o":"m 421 772 q 669 683 578 772 q 761 428 761 593 l 761 328 l 272 328 q 324 190 275 240 q 461 140 374 140 q 594 155 535 140 q 718 200 654 169 l 718 40 q 601 -1 663 13 q 451 -14 539 -14 q 250 28 338 -14 q 113 157 163 71 q 63 374 63 243 q 108 595 63 507 q 233 728 153 683 q 421 772 314 772 m 422 625 q 323 586 363 625 q 276 465 283 547 l 567 465 q 531 580 565 535 q 422 625 496 625 m 414 1056 q 493 1034 460 1056 q 526 954 526 1013 q 493 875 526 897 q 414 853 460 853 q 334 875 367 853 q 301 954 301 897 q 334 1034 301 1013 q 414 1056 367 1056 z "},"Ę":{"ha":778,"x_min":125,"x_max":696,"o":"m 696 0 l 125 0 l 125 992 l 696 992 l 696 819 l 335 819 l 335 601 l 671 601 l 671 429 l 335 429 l 335 174 l 696 174 l 696 0 m 564 -154 q 579 -196 564 -182 q 618 -210 594 -210 q 661 -206 640 -210 q 696 -197 682 -201 l 696 -318 q 649 -328 674 -324 q 590 -333 624 -333 q 467 -290 513 -333 q 421 -178 421 -246 q 465 -64 421 -117 q 574 24 510 -11 l 664 0 q 590 -81 617 -44 q 564 -154 564 -118 z "},"ę":{"ha":821,"x_min":63,"x_max":761,"o":"m 574 -154 q 589 -196 574 -182 q 628 -210 604 -210 q 671 -206 650 -210 q 706 -197 692 -201 l 706 -318 q 658 -328 683 -324 q 600 -333 633 -333 q 476 -290 522 -333 q 431 -178 431 -246 q 459 -87 431 -131 q 531 -11 488 -44 q 451 -14 494 -14 q 250 28 338 -14 q 113 157 163 71 q 63 374 63 243 q 108 595 63 507 q 233 728 153 683 q 421 772 314 772 q 669 683 578 772 q 761 428 761 593 l 761 328 l 272 328 q 324 190 275 240 q 461 140 374 140 q 594 155 535 140 q 718 200 654 169 l 718 40 q 604 -76 635 -33 q 574 -154 574 -118 m 422 625 q 323 586 363 625 q 276 465 283 547 l 567 465 q 531 580 565 535 q 422 625 496 625 z "},"Ě":{"ha":778,"x_min":125,"x_max":715,"o":"m 696 0 l 125 0 l 125 992 l 696 992 l 696 819 l 335 819 l 335 601 l 671 601 l 671 429 l 335 429 l 335 174 l 696 174 l 696 0 m 300 1075 q 249 1144 281 1107 q 185 1218 218 1182 q 126 1279 153 1254 l 126 1297 l 264 1297 q 342 1245 300 1275 q 419 1178 383 1215 q 499 1245 456 1215 q 578 1297 542 1275 l 715 1297 l 715 1279 q 657 1218 690 1254 q 592 1144 624 1182 q 542 1075 561 1107 l 300 1075 z "},"ě":{"ha":821,"x_min":63,"x_max":761,"o":"m 421 772 q 669 683 578 772 q 761 428 761 593 l 761 328 l 272 328 q 324 190 275 240 q 461 140 374 140 q 594 155 535 140 q 718 200 654 169 l 718 40 q 601 -1 663 13 q 451 -14 539 -14 q 250 28 338 -14 q 113 157 163 71 q 63 374 63 243 q 108 595 63 507 q 233 728 153 683 q 421 772 314 772 m 422 625 q 323 586 363 625 q 276 465 283 547 l 567 465 q 531 580 565 535 q 422 625 496 625 m 293 842 q 242 911 274 874 q 178 985 211 949 q 119 1046 146 1021 l 119 1064 l 257 1064 q 335 1012 293 1042 q 413 944 376 982 q 492 1012 449 982 q 571 1064 535 1042 l 708 1064 l 708 1046 q 650 985 683 1021 q 585 911 617 949 q 535 842 554 874 l 293 842 z "},"Ĝ":{"ha":1006,"x_min":81,"x_max":894,"o":"m 501 557 l 894 557 l 894 43 q 733 1 817 17 q 542 -14 649 -14 q 200 117 319 -14 q 81 497 81 247 q 141 767 81 653 q 317 943 201 881 q 599 1006 432 1006 q 754 989 678 1006 q 893 944 831 972 l 824 776 q 719 815 778 800 q 597 831 661 831 q 438 789 506 831 q 334 672 371 747 q 297 493 297 596 q 324 321 297 396 q 407 203 350 246 q 556 161 464 161 q 631 165 600 161 q 689 175 663 169 l 689 382 l 501 382 l 501 557 m 678 1297 q 728 1228 697 1267 q 793 1154 760 1190 q 851 1093 826 1118 l 851 1075 l 714 1075 q 635 1127 678 1097 q 556 1194 592 1157 q 478 1128 519 1157 q 400 1075 436 1099 l 263 1075 l 263 1093 q 322 1155 289 1119 q 385 1228 354 1190 q 436 1297 417 1267 l 678 1297 z "},"ĝ":{"ha":879,"x_min":63,"x_max":771,"o":"m 354 772 q 574 661 494 772 l 579 661 l 596 758 l 771 758 l 771 -1 q 675 -249 771 -164 q 392 -333 579 -333 q 242 -324 311 -333 q 108 -289 174 -314 l 108 -124 q 404 -182 249 -182 q 564 -10 564 -182 l 564 6 q 566 54 564 29 q 569 99 568 79 l 564 99 q 471 13 525 39 q 349 -14 417 -14 q 138 90 214 -14 q 63 378 63 193 q 140 668 63 564 q 354 772 218 772 m 419 604 q 274 375 274 604 q 422 149 274 149 q 540 194 501 149 q 578 351 578 239 l 578 376 q 540 551 578 499 q 419 604 503 604 m 558 1064 q 609 995 578 1033 q 674 921 640 957 q 732 860 707 885 l 732 842 l 594 842 q 515 894 558 864 q 436 961 472 924 q 358 894 400 924 q 281 842 317 865 l 143 842 l 143 860 q 202 922 169 886 q 266 995 235 957 q 317 1064 297 1033 l 558 1064 z "},"Ğ":{"ha":1006,"x_min":81,"x_max":894,"o":"m 501 557 l 894 557 l 894 43 q 733 1 817 17 q 542 -14 649 -14 q 200 117 319 -14 q 81 497 81 247 q 141 767 81 653 q 317 943 201 881 q 599 1006 432 1006 q 754 989 678 1006 q 893 944 831 972 l 824 776 q 719 815 778 800 q 597 831 661 831 q 438 789 506 831 q 334 672 371 747 q 297 493 297 596 q 324 321 297 396 q 407 203 350 246 q 556 161 464 161 q 631 165 600 161 q 689 175 663 169 l 689 382 l 501 382 l 501 557 m 826 1304 q 746 1139 819 1203 q 557 1075 672 1075 q 368 1138 438 1075 q 293 1304 299 1200 l 408 1304 q 433 1247 413 1265 q 486 1224 453 1229 q 558 1219 519 1219 q 624 1226 592 1219 q 681 1250 657 1232 q 708 1304 704 1268 l 826 1304 z "},"ğ":{"ha":879,"x_min":63,"x_max":771,"o":"m 354 772 q 574 661 494 772 l 579 661 l 596 758 l 771 758 l 771 -1 q 675 -249 771 -164 q 392 -333 579 -333 q 242 -324 311 -333 q 108 -289 174 -314 l 108 -124 q 404 -182 249 -182 q 564 -10 564 -182 l 564 6 q 566 54 564 29 q 569 99 568 79 l 564 99 q 471 13 525 39 q 349 -14 417 -14 q 138 90 214 -14 q 63 378 63 193 q 140 668 63 564 q 354 772 218 772 m 419 604 q 274 375 274 604 q 422 149 274 149 q 540 194 501 149 q 578 351 578 239 l 578 376 q 540 551 578 499 q 419 604 503 604 m 707 1071 q 626 906 700 969 q 438 842 553 842 q 249 904 318 842 q 174 1071 179 967 l 289 1071 q 313 1014 293 1032 q 367 991 333 996 q 439 986 400 986 q 505 992 472 986 q 561 1017 538 999 q 589 1071 585 1035 l 707 1071 z "},"Ġ":{"ha":1006,"x_min":81,"x_max":894,"o":"m 501 557 l 894 557 l 894 43 q 733 1 817 17 q 542 -14 649 -14 q 200 117 319 -14 q 81 497 81 247 q 141 767 81 653 q 317 943 201 881 q 599 1006 432 1006 q 754 989 678 1006 q 893 944 831 972 l 824 776 q 719 815 778 800 q 597 831 661 831 q 438 789 506 831 q 334 672 371 747 q 297 493 297 596 q 324 321 297 396 q 407 203 350 246 q 556 161 464 161 q 631 165 600 161 q 689 175 663 169 l 689 382 l 501 382 l 501 557 m 558 1289 q 638 1267 604 1289 q 671 1188 671 1246 q 638 1108 671 1131 q 558 1086 604 1086 q 478 1108 511 1086 q 446 1188 446 1131 q 478 1267 446 1246 q 558 1289 511 1289 z "},"ġ":{"ha":879,"x_min":63,"x_max":771,"o":"m 354 772 q 574 661 494 772 l 579 661 l 596 758 l 771 758 l 771 -1 q 675 -249 771 -164 q 392 -333 579 -333 q 242 -324 311 -333 q 108 -289 174 -314 l 108 -124 q 404 -182 249 -182 q 564 -10 564 -182 l 564 6 q 566 54 564 29 q 569 99 568 79 l 564 99 q 471 13 525 39 q 349 -14 417 -14 q 138 90 214 -14 q 63 378 63 193 q 140 668 63 564 q 354 772 218 772 m 419 604 q 274 375 274 604 q 422 149 274 149 q 540 194 501 149 q 578 351 578 239 l 578 376 q 540 551 578 499 q 419 604 503 604 m 439 1056 q 518 1034 485 1056 q 551 954 551 1013 q 518 875 551 897 q 439 853 485 853 q 359 875 392 853 q 326 954 326 897 q 359 1034 326 1013 q 439 1056 392 1056 z "},"Ģ":{"ha":1006,"x_min":81,"x_max":894,"o":"m 501 557 l 894 557 l 894 43 q 733 1 817 17 q 542 -14 649 -14 q 200 117 319 -14 q 81 497 81 247 q 141 767 81 653 q 317 943 201 881 q 599 1006 432 1006 q 754 989 678 1006 q 893 944 831 972 l 824 776 q 719 815 778 800 q 597 831 661 831 q 438 789 506 831 q 334 672 371 747 q 297 493 297 596 q 324 321 297 396 q 407 203 350 246 q 556 161 464 161 q 631 165 600 161 q 689 175 663 169 l 689 382 l 501 382 l 501 557 m 658 -99 q 610 -198 638 -144 q 546 -307 582 -251 l 425 -307 l 425 -289 q 449 -189 436 -249 q 467 -85 461 -129 l 658 -85 l 658 -99 z "},"ģ":{"ha":879,"x_min":63,"x_max":771,"o":"m 544 1046 q 521 946 533 1006 q 503 842 508 886 l 311 842 l 311 856 q 360 955 332 901 q 424 1064 389 1008 l 544 1064 l 544 1046 m 354 772 q 574 661 494 772 l 579 661 l 596 758 l 771 758 l 771 -1 q 675 -249 771 -164 q 392 -333 579 -333 q 242 -324 311 -333 q 108 -289 174 -314 l 108 -124 q 404 -182 249 -182 q 564 -10 564 -182 l 564 6 q 566 54 564 29 q 569 99 568 79 l 564 99 q 471 13 525 39 q 349 -14 417 -14 q 138 90 214 -14 q 63 378 63 193 q 140 668 63 564 q 354 772 218 772 m 419 604 q 274 375 274 604 q 422 149 274 149 q 540 194 501 149 q 578 351 578 239 l 578 376 q 540 551 578 499 q 419 604 503 604 z "},"Ĥ":{"ha":1063,"x_min":125,"x_max":938,"o":"m 938 0 l 728 0 l 728 428 l 335 428 l 335 0 l 125 0 l 125 992 l 335 992 l 335 603 l 728 603 l 728 992 l 938 992 l 938 0 m 654 1297 q 705 1228 674 1267 q 769 1154 736 1190 q 828 1093 803 1118 l 828 1075 l 690 1075 q 611 1127 654 1097 q 532 1194 568 1157 q 454 1128 496 1157 q 376 1075 413 1099 l 239 1075 l 239 1093 q 298 1155 265 1119 q 362 1228 331 1190 q 413 1297 393 1267 l 654 1297 z "},"ĥ":{"ha":913,"x_min":-78,"x_max":808,"o":"m 315 840 q 312 733 315 785 q 306 661 308 682 l 317 661 q 410 746 353 719 q 536 772 467 772 q 734 706 660 772 q 808 494 808 640 l 808 0 l 601 0 l 601 443 q 479 607 601 607 q 351 542 386 607 q 315 357 315 478 l 315 0 l 108 0 l 108 1056 l 315 1056 l 315 840 m 338 1361 q 388 1292 357 1331 q 453 1218 419 1254 q 511 1157 486 1182 l 511 1139 l 374 1139 q 294 1191 338 1161 q 215 1258 251 1221 q 138 1192 179 1221 q 60 1139 96 1163 l -78 1139 l -78 1157 q -19 1219 -51 1183 q 45 1292 14 1254 q 96 1361 76 1331 l 338 1361 z "},"Ħ":{"ha":1063,"x_min":0,"x_max":1063,"o":"m 125 0 l 125 725 l 0 725 l 0 860 l 125 860 l 125 992 l 335 992 l 335 860 l 728 860 l 728 992 l 938 992 l 938 860 l 1063 860 l 1063 725 l 938 725 l 938 0 l 728 0 l 728 428 l 335 428 l 335 0 l 125 0 m 335 603 l 728 603 l 728 725 l 335 725 l 335 603 z "},"ħ":{"ha":913,"x_min":3,"x_max":808,"o":"m 315 1056 l 315 946 l 529 946 l 529 811 l 315 811 l 315 799 q 312 692 315 743 q 306 619 308 640 l 318 619 q 410 704 354 678 q 538 731 467 731 q 735 665 661 731 q 808 453 808 599 l 808 0 l 601 0 l 601 401 q 479 565 601 565 q 351 501 386 565 q 315 315 315 436 l 315 0 l 108 0 l 108 811 l 3 811 l 3 946 l 108 946 l 108 1056 l 315 1056 z "},"Ĩ":{"ha":540,"x_min":-11,"x_max":551,"o":"m 496 0 l 44 0 l 44 119 l 165 175 l 165 817 l 44 872 l 44 992 l 496 992 l 496 872 l 375 817 l 375 175 l 496 119 l 496 0 m -11 1074 q 49 1233 -3 1182 q 174 1283 101 1283 q 247 1265 211 1283 q 316 1230 282 1247 q 382 1213 350 1213 q 422 1231 403 1213 q 450 1285 442 1249 l 551 1285 q 490 1126 543 1178 q 367 1075 438 1075 q 295 1092 331 1075 q 226 1128 260 1110 q 158 1146 192 1146 q 118 1128 138 1146 q 90 1074 99 1110 l -11 1074 z "},"ĩ":{"ha":424,"x_min":-69,"x_max":493,"o":"m 315 0 l 108 0 l 108 758 l 315 758 l 315 0 m -69 840 q -9 999 -61 949 q 115 1050 43 1050 q 188 1032 153 1050 q 258 997 224 1014 q 324 979 292 979 q 364 997 344 979 q 392 1051 383 1015 l 493 1051 q 432 893 485 944 q 308 842 379 842 q 237 859 272 842 q 167 894 201 876 q 100 913 133 913 q 60 894 79 913 q 32 840 40 876 l -69 840 z "},"Ī":{"ha":540,"x_min":42,"x_max":501,"o":"m 496 0 l 44 0 l 44 119 l 165 175 l 165 817 l 44 872 l 44 992 l 496 992 l 496 872 l 375 817 l 375 175 l 496 119 l 496 0 m 501 1218 l 501 1075 l 42 1075 l 42 1218 l 501 1218 z "},"ī":{"ha":424,"x_min":-17,"x_max":443,"o":"m 315 0 l 108 0 l 108 758 l 315 758 l 315 0 m 443 985 l 443 842 l -17 842 l -17 985 l 443 985 z "},"Ĭ":{"ha":540,"x_min":8,"x_max":542,"o":"m 496 0 l 44 0 l 44 119 l 165 175 l 165 817 l 44 872 l 44 992 l 496 992 l 496 872 l 375 817 l 375 175 l 496 119 l 496 0 m 542 1304 q 461 1139 535 1203 q 272 1075 388 1075 q 83 1138 153 1075 q 8 1304 14 1200 l 124 1304 q 148 1247 128 1265 q 201 1224 168 1229 q 274 1219 235 1219 q 340 1226 307 1219 q 396 1250 372 1232 q 424 1304 419 1268 l 542 1304 z "},"ĭ":{"ha":424,"x_min":-50,"x_max":483,"o":"m 315 0 l 108 0 l 108 758 l 315 758 l 315 0 m 483 1071 q 403 906 476 969 q 214 842 329 842 q 25 904 94 842 q -50 1071 -44 967 l 65 1071 q 90 1014 69 1032 q 143 991 110 996 q 215 986 176 986 q 281 992 249 986 q 338 1017 314 999 q 365 1071 361 1035 l 483 1071 z "},"Į":{"ha":540,"x_min":44,"x_max":496,"o":"m 496 0 l 44 0 l 44 119 l 165 175 l 165 817 l 44 872 l 44 992 l 496 992 l 496 872 l 375 817 l 375 175 l 496 119 l 496 0 m 356 -154 q 371 -196 356 -182 q 410 -210 386 -210 q 453 -206 432 -210 q 488 -197 474 -201 l 488 -318 q 440 -328 465 -324 q 382 -333 415 -333 q 258 -290 304 -333 q 213 -178 213 -246 q 257 -64 213 -117 q 365 24 301 -11 l 456 0 q 382 -81 408 -44 q 356 -154 356 -118 z "},"į":{"ha":424,"x_min":63,"x_max":338,"o":"m 213 1056 q 292 1034 258 1056 q 325 954 325 1013 q 292 875 325 897 q 213 853 258 853 q 133 875 165 853 q 100 954 100 897 q 133 1034 100 1013 q 213 1056 165 1056 m 315 758 l 315 0 l 108 0 l 108 758 l 315 758 m 206 -154 q 221 -196 206 -182 q 260 -210 236 -210 q 303 -206 282 -210 q 338 -197 324 -201 l 338 -318 q 290 -328 315 -324 q 232 -333 265 -333 q 108 -290 154 -333 q 63 -178 63 -246 q 107 -64 63 -117 q 215 24 151 -11 l 306 0 q 232 -81 258 -44 q 206 -154 206 -118 z "},"İ":{"ha":540,"x_min":44,"x_max":496,"o":"m 496 0 l 44 0 l 44 119 l 165 175 l 165 817 l 44 872 l 44 992 l 496 992 l 496 872 l 375 817 l 375 175 l 496 119 l 496 0 m 274 1289 q 353 1267 319 1289 q 386 1188 386 1246 q 353 1108 386 1131 q 274 1086 319 1086 q 194 1108 226 1086 q 161 1188 161 1131 q 194 1267 161 1246 q 274 1289 226 1289 z "},"Ĳ":{"ha":1000,"x_min":44,"x_max":875,"o":"m 496 0 l 44 0 l 44 119 l 165 175 l 165 817 l 44 872 l 44 992 l 496 992 l 496 872 l 375 817 l 375 175 l 496 119 l 496 0 m 561 -292 q 490 -287 521 -292 q 438 -276 460 -282 l 438 -101 q 484 -111 460 -107 q 536 -115 508 -115 q 602 -101 572 -115 q 649 -49 632 -87 q 665 63 665 -10 l 665 992 l 875 992 l 875 64 q 835 -142 875 -64 q 725 -256 796 -221 q 561 -292 654 -292 z "},"ĳ":{"ha":847,"x_min":100,"x_max":749,"o":"m 213 1056 q 292 1034 258 1056 q 325 954 325 1013 q 292 875 325 897 q 213 853 258 853 q 133 875 165 853 q 100 954 100 897 q 133 1034 100 1013 q 213 1056 165 1056 m 315 758 l 315 0 l 108 0 l 108 758 l 315 758 m 524 954 q 556 1034 524 1013 q 636 1056 589 1056 q 715 1034 682 1056 q 749 954 749 1013 q 715 875 749 897 q 636 853 682 853 q 556 875 589 853 q 524 954 524 897 m 471 -333 q 398 -328 436 -333 q 335 -317 360 -324 l 335 -154 q 382 -163 360 -160 q 432 -167 404 -167 q 503 -143 474 -167 q 532 -51 532 -119 l 532 758 l 739 758 l 739 -82 q 713 -208 739 -151 q 627 -299 686 -265 q 471 -333 568 -333 z "},"Ĵ":{"ha":460,"x_min":-103,"x_max":526,"o":"m 21 -292 q -50 -287 -19 -292 q -103 -276 -81 -282 l -103 -101 q -56 -111 -81 -107 q -4 -115 -32 -115 q 62 -101 32 -115 q 108 -49 92 -87 q 125 63 125 -10 l 125 992 l 335 992 l 335 64 q 295 -142 335 -64 q 185 -256 256 -221 q 21 -292 114 -292 m 353 1297 q 403 1228 372 1267 q 468 1154 435 1190 q 526 1093 501 1118 l 526 1075 l 389 1075 q 310 1127 353 1097 q 231 1194 267 1157 q 153 1128 194 1157 q 75 1075 111 1099 l -62 1075 l -62 1093 q -3 1155 -36 1119 q 60 1228 29 1190 q 111 1297 92 1267 l 353 1297 z "},"ĵ":{"ha":424,"x_min":-89,"x_max":508,"o":"m 47 -333 q -26 -328 13 -333 q -89 -317 -64 -324 l -89 -154 q -42 -163 -64 -160 q 8 -167 -19 -167 q 79 -143 50 -167 q 108 -51 108 -119 l 108 758 l 315 758 l 315 -82 q 289 -208 315 -151 q 203 -299 263 -265 q 47 -333 144 -333 m 335 1064 q 385 995 354 1033 q 450 921 417 957 q 508 860 483 885 l 508 842 l 371 842 q 292 894 335 864 q 213 961 249 924 q 135 894 176 924 q 57 842 93 865 l -81 842 l -81 860 q -22 922 -54 886 q 42 995 11 957 q 93 1064 74 1033 l 335 1064 z "},"Ķ":{"ha":922,"x_min":125,"x_max":922,"o":"m 922 0 l 683 0 l 424 418 l 335 354 l 335 0 l 125 0 l 125 992 l 335 992 l 335 538 q 376 596 356 567 q 418 654 397 625 l 686 992 l 919 992 l 574 553 l 922 0 m 600 -99 q 551 -198 579 -144 q 488 -307 524 -251 l 367 -307 l 367 -289 q 390 -189 378 -249 q 408 -85 403 -129 l 600 -85 l 600 -99 z "},"ķ":{"ha":861,"x_min":108,"x_max":861,"o":"m 315 583 q 312 498 315 540 q 304 413 308 456 l 307 413 q 350 472 328 442 q 397 528 372 501 l 610 758 l 843 758 l 542 429 l 861 0 l 622 0 l 404 307 l 315 236 l 315 0 l 108 0 l 108 1056 l 315 1056 l 315 583 m 547 -99 q 499 -198 526 -144 q 435 -307 471 -251 l 314 -307 l 314 -289 q 338 -189 325 -249 q 356 -85 350 -129 l 547 -85 l 547 -99 z "},"ĸ":{"ha":861,"x_min":108,"x_max":861,"o":"m 843 758 l 544 411 l 861 0 l 625 0 l 413 289 l 315 228 l 315 0 l 108 0 l 108 758 l 315 758 l 315 560 q 314 476 314 518 q 311 394 314 435 l 314 394 q 361 452 338 424 q 410 510 385 481 l 622 758 l 843 758 z "},"Ĺ":{"ha":785,"x_min":103,"x_max":738,"o":"m 125 0 l 125 992 l 335 992 l 335 174 l 738 174 l 738 0 l 125 0 m 494 1283 q 443 1236 475 1264 q 374 1178 411 1208 q 302 1120 338 1147 q 240 1075 267 1093 l 103 1075 l 103 1093 q 155 1155 125 1119 q 214 1228 185 1190 q 263 1297 243 1267 l 494 1297 l 494 1283 z "},"ĺ":{"ha":424,"x_min":88,"x_max":479,"o":"m 315 0 l 108 0 l 108 1056 l 315 1056 l 315 0 m 479 1347 q 428 1300 460 1328 q 359 1242 396 1272 q 287 1184 322 1211 q 225 1139 251 1157 l 88 1139 l 88 1157 q 140 1219 110 1183 q 199 1292 169 1254 q 247 1361 228 1331 l 479 1361 l 479 1347 z "},"Ļ":{"ha":785,"x_min":125,"x_max":738,"o":"m 125 0 l 125 992 l 335 992 l 335 174 l 738 174 l 738 0 l 125 0 m 544 -99 q 496 -198 524 -144 q 432 -307 468 -251 l 311 -307 l 311 -289 q 335 -189 322 -249 q 353 -85 347 -129 l 544 -85 l 544 -99 z "},"ļ":{"ha":424,"x_min":96,"x_max":329,"o":"m 315 0 l 108 0 l 108 1056 l 315 1056 l 315 0 m 329 -99 q 281 -198 308 -144 q 217 -307 253 -251 l 96 -307 l 96 -289 q 119 -189 107 -249 q 138 -85 132 -129 l 329 -85 l 329 -99 z "},"Ľ":{"ha":785,"x_min":125,"x_max":776,"o":"m 776 978 q 728 878 756 932 q 664 769 700 825 l 543 769 l 543 788 q 567 888 554 828 q 585 992 579 947 l 776 992 l 776 978 m 125 0 l 125 992 l 335 992 l 335 174 l 738 174 l 738 0 l 125 0 z "},"ľ":{"ha":424,"x_min":108,"x_max":586,"o":"m 586 1042 q 538 942 565 996 q 474 833 510 889 l 353 833 l 353 851 q 376 951 364 892 q 394 1056 389 1011 l 586 1056 l 586 1042 m 315 0 l 108 0 l 108 1056 l 315 1056 l 315 0 z "},"Ŀ":{"ha":785,"x_min":125,"x_max":738,"o":"m 125 0 l 125 992 l 335 992 l 335 174 l 738 174 l 738 0 l 125 0 m 610 646 q 689 624 656 646 q 722 544 722 603 q 689 465 722 488 q 610 443 656 443 q 530 465 563 443 q 497 544 497 488 q 530 624 497 603 q 610 646 563 646 z "},"ŀ":{"ha":503,"x_min":108,"x_max":575,"o":"m 315 0 l 108 0 l 108 1056 l 315 1056 l 315 0 m 463 626 q 542 605 508 626 q 575 525 575 583 q 542 446 575 468 q 463 424 508 424 q 383 446 415 424 q 350 525 350 468 q 383 605 350 583 q 463 626 415 626 z "},"Ł":{"ha":785,"x_min":1,"x_max":738,"o":"m 125 0 l 125 333 l 78 306 l 1 439 l 125 514 l 125 992 l 335 992 l 335 642 l 432 701 l 511 568 l 335 461 l 335 174 l 738 174 l 738 0 l 125 0 z "},"ł":{"ha":424,"x_min":-17,"x_max":442,"o":"m 108 0 l 108 324 l 60 294 l -17 428 l 108 504 l 108 1056 l 315 1056 l 315 631 l 363 660 l 442 526 l 315 450 l 315 0 l 108 0 z "},"Ń":{"ha":1129,"x_min":125,"x_max":1004,"o":"m 1004 0 l 738 0 l 306 750 l 300 750 q 306 608 303 679 q 313 467 310 538 l 313 0 l 125 0 l 125 992 l 390 992 l 821 249 l 825 249 q 821 386 824 318 q 815 522 818 454 l 815 992 l 1004 992 l 1004 0 m 832 1283 q 781 1236 813 1264 q 712 1178 749 1208 q 640 1120 675 1147 q 578 1075 604 1093 l 440 1075 l 440 1093 q 492 1155 463 1119 q 551 1228 522 1190 q 600 1297 581 1267 l 832 1297 l 832 1283 z "},"ń":{"ha":913,"x_min":108,"x_max":808,"o":"m 539 772 q 735 706 661 772 q 808 494 808 640 l 808 0 l 601 0 l 601 443 q 572 566 601 525 q 479 607 543 607 q 350 542 385 607 q 315 357 315 478 l 315 0 l 108 0 l 108 758 l 267 758 l 294 661 l 306 661 q 405 746 342 719 q 539 772 468 772 m 724 1050 q 672 1003 704 1031 q 603 944 640 975 q 531 887 567 914 q 469 842 496 860 l 332 842 l 332 860 q 384 922 354 886 q 443 995 414 957 q 492 1064 472 1033 l 724 1064 l 724 1050 z "},"Ņ":{"ha":1129,"x_min":125,"x_max":1004,"o":"m 1004 0 l 738 0 l 306 750 l 300 750 q 306 608 303 679 q 313 467 310 538 l 313 0 l 125 0 l 125 992 l 390 992 l 821 249 l 825 249 q 821 386 824 318 q 815 522 818 454 l 815 992 l 1004 992 l 1004 0 m 682 -99 q 633 -198 661 -144 q 569 -307 606 -251 l 449 -307 l 449 -289 q 472 -189 460 -249 q 490 -85 485 -129 l 682 -85 l 682 -99 z "},"ņ":{"ha":913,"x_min":108,"x_max":808,"o":"m 539 772 q 735 706 661 772 q 808 494 808 640 l 808 0 l 601 0 l 601 443 q 572 566 601 525 q 479 607 543 607 q 350 542 385 607 q 315 357 315 478 l 315 0 l 108 0 l 108 758 l 267 758 l 294 661 l 306 661 q 405 746 342 719 q 539 772 468 772 m 574 -99 q 525 -198 553 -144 q 461 -307 497 -251 l 340 -307 l 340 -289 q 364 -189 351 -249 q 382 -85 376 -129 l 574 -85 l 574 -99 z "},"Ň":{"ha":1129,"x_min":125,"x_max":1004,"o":"m 1004 0 l 738 0 l 306 750 l 300 750 q 306 608 303 679 q 313 467 310 538 l 313 0 l 125 0 l 125 992 l 390 992 l 821 249 l 825 249 q 821 386 824 318 q 815 522 818 454 l 815 992 l 1004 992 l 1004 0 m 447 1075 q 397 1144 428 1107 q 333 1218 365 1182 q 274 1279 300 1254 l 274 1297 l 411 1297 q 489 1245 447 1275 q 567 1178 531 1215 q 646 1245 603 1215 q 725 1297 689 1275 l 863 1297 l 863 1279 q 804 1218 838 1254 q 740 1144 771 1182 q 689 1075 708 1107 l 447 1075 z "},"ň":{"ha":913,"x_min":108,"x_max":808,"o":"m 539 772 q 735 706 661 772 q 808 494 808 640 l 808 0 l 601 0 l 601 443 q 572 566 601 525 q 479 607 543 607 q 350 542 385 607 q 315 357 315 478 l 315 0 l 108 0 l 108 758 l 267 758 l 294 661 l 306 661 q 405 746 342 719 q 539 772 468 772 m 339 842 q 288 911 319 874 q 224 985 257 949 q 165 1046 192 1021 l 165 1064 l 303 1064 q 381 1012 339 1042 q 458 944 422 982 q 538 1012 494 982 q 617 1064 581 1042 l 754 1064 l 754 1046 q 696 985 729 1021 q 631 911 663 949 q 581 842 600 874 l 339 842 z "},"ŉ":{"ha":1069,"x_min":3,"x_max":965,"o":"m 696 772 q 892 706 818 772 q 965 494 965 640 l 965 0 l 758 0 l 758 443 q 729 566 758 525 q 636 607 700 607 q 507 542 542 607 q 472 357 472 478 l 472 0 l 265 0 l 265 758 l 424 758 l 451 661 l 463 661 q 562 746 499 719 q 696 772 625 772 m 271 976 q 219 815 253 903 q 151 651 186 728 l 3 651 q 42 826 22 733 q 71 992 61 919 l 261 992 l 271 976 z "},"Ŋ":{"ha":1129,"x_min":125,"x_max":1004,"o":"m 689 -292 q 613 -287 646 -292 q 556 -276 579 -282 l 556 -112 q 608 -122 581 -118 q 668 -126 636 -126 q 782 -96 746 -126 q 821 3 818 -65 l 306 750 l 300 750 q 306 659 303 711 q 310 556 308 607 q 313 467 313 504 l 313 0 l 125 0 l 125 992 l 390 992 l 821 381 l 825 381 q 821 470 824 419 q 817 571 818 521 q 815 654 815 621 l 815 992 l 1004 992 l 1004 0 q 917 -222 1004 -151 q 689 -292 829 -292 z "},"ŋ":{"ha":913,"x_min":108,"x_max":808,"o":"m 563 -333 q 496 -328 531 -333 q 438 -317 461 -324 l 438 -154 q 477 -163 458 -160 q 518 -167 496 -167 q 577 -143 553 -167 q 601 -51 601 -119 l 601 458 q 479 607 601 607 q 350 542 385 607 q 315 357 315 478 l 315 0 l 108 0 l 108 758 l 267 758 l 294 661 l 307 661 q 406 746 343 719 q 539 772 469 772 q 735 706 661 772 q 808 494 808 640 l 808 -82 q 784 -208 808 -151 q 706 -299 760 -265 q 563 -333 651 -333 z "},"Ō":{"ha":1106,"x_min":81,"x_max":1025,"o":"m 1025 497 q 974 228 1025 343 q 819 50 924 114 q 553 -14 715 -14 q 287 50 392 -14 q 131 229 182 114 q 81 499 81 344 q 131 767 81 653 q 287 944 182 881 q 554 1007 392 1007 q 819 944 715 1007 q 974 766 924 881 q 1025 497 1025 651 m 301 497 q 361 252 301 342 q 553 163 421 163 q 746 252 688 163 q 804 497 804 342 q 746 743 804 654 q 554 832 688 832 q 361 743 421 832 q 301 497 301 654 m 783 1218 l 783 1075 l 324 1075 l 324 1218 l 783 1218 z "},"ō":{"ha":860,"x_min":63,"x_max":797,"o":"m 797 381 q 698 89 797 192 q 428 -14 599 -14 q 240 32 322 -14 q 110 166 157 78 q 63 381 63 254 q 161 671 63 569 q 432 772 260 772 q 621 726 539 772 q 750 594 703 681 q 797 381 797 507 m 274 381 q 310 210 274 268 q 431 153 347 153 q 549 210 513 153 q 586 381 586 268 q 549 549 586 493 q 429 606 513 606 q 310 549 347 606 q 274 381 274 493 m 661 985 l 661 842 l 201 842 l 201 985 l 661 985 z "},"Ŏ":{"ha":1106,"x_min":81,"x_max":1025,"o":"m 1025 497 q 974 228 1025 343 q 819 50 924 114 q 553 -14 715 -14 q 287 50 392 -14 q 131 229 182 114 q 81 499 81 344 q 131 767 81 653 q 287 944 182 881 q 554 1007 392 1007 q 819 944 715 1007 q 974 766 924 881 q 1025 497 1025 651 m 301 497 q 361 252 301 342 q 553 163 421 163 q 746 252 688 163 q 804 497 804 342 q 746 743 804 654 q 554 832 688 832 q 361 743 421 832 q 301 497 301 654 m 824 1304 q 743 1139 817 1203 q 554 1075 669 1075 q 365 1138 435 1075 q 290 1304 296 1200 l 406 1304 q 430 1247 410 1265 q 483 1224 450 1229 q 556 1219 517 1219 q 622 1226 589 1219 q 678 1250 654 1232 q 706 1304 701 1268 l 824 1304 z "},"ŏ":{"ha":860,"x_min":63,"x_max":797,"o":"m 797 381 q 698 89 797 192 q 428 -14 599 -14 q 240 32 322 -14 q 110 166 157 78 q 63 381 63 254 q 161 671 63 569 q 432 772 260 772 q 621 726 539 772 q 750 594 703 681 q 797 381 797 507 m 274 381 q 310 210 274 268 q 431 153 347 153 q 549 210 513 153 q 586 381 586 268 q 549 549 586 493 q 429 606 513 606 q 310 549 347 606 q 274 381 274 493 m 701 1071 q 621 906 694 969 q 432 842 547 842 q 243 904 313 842 q 168 1071 174 967 l 283 1071 q 308 1014 288 1032 q 361 991 328 996 q 433 986 394 986 q 499 992 467 986 q 556 1017 532 999 q 583 1071 579 1035 l 701 1071 z "},"Ő":{"ha":1106,"x_min":81,"x_max":1025,"o":"m 1025 497 q 974 228 1025 343 q 819 50 924 114 q 553 -14 715 -14 q 287 50 392 -14 q 131 229 182 114 q 81 499 81 344 q 131 767 81 653 q 287 944 182 881 q 554 1007 392 1007 q 819 944 715 1007 q 974 766 924 881 q 1025 497 1025 651 m 301 497 q 361 252 301 342 q 553 163 421 163 q 746 252 688 163 q 804 497 804 342 q 746 743 804 654 q 554 832 688 832 q 361 743 421 832 q 301 497 301 654 m 960 1283 q 922 1238 949 1265 q 861 1179 896 1210 q 792 1122 826 1149 q 733 1075 758 1094 l 624 1075 l 624 1093 q 668 1156 643 1119 q 717 1229 693 1192 q 756 1297 740 1267 l 960 1297 l 960 1283 m 690 1283 q 653 1238 679 1265 q 592 1179 626 1210 q 523 1122 557 1149 q 464 1075 489 1094 l 354 1075 l 354 1093 q 398 1156 374 1119 q 446 1229 422 1192 q 486 1297 469 1267 l 690 1297 l 690 1283 z "},"ő":{"ha":860,"x_min":63,"x_max":838,"o":"m 797 381 q 698 89 797 192 q 428 -14 599 -14 q 240 32 322 -14 q 110 166 157 78 q 63 381 63 254 q 161 671 63 569 q 432 772 260 772 q 621 726 539 772 q 750 594 703 681 q 797 381 797 507 m 274 381 q 310 210 274 268 q 431 153 347 153 q 549 210 513 153 q 586 381 586 268 q 549 549 586 493 q 429 606 513 606 q 310 549 347 606 q 274 381 274 493 m 838 1050 q 800 1004 826 1032 q 739 946 774 976 q 670 888 704 915 q 611 842 636 861 l 501 842 l 501 860 q 546 922 521 886 q 594 996 571 958 q 633 1064 618 1033 l 838 1064 l 838 1050 m 568 1050 q 531 1004 557 1032 q 469 946 504 976 q 401 888 435 915 q 342 842 367 861 l 232 842 l 232 860 q 276 922 251 886 q 324 996 300 958 q 364 1064 347 1033 l 568 1064 l 568 1050 z "},"Œ":{"ha":1351,"x_min":81,"x_max":1269,"o":"m 526 1007 q 606 1003 563 1007 q 681 992 650 999 l 1269 992 l 1269 819 l 888 819 l 888 601 l 1244 601 l 1244 429 l 888 429 l 888 174 l 1269 174 l 1269 0 l 678 0 q 604 -10 647 -6 q 525 -14 561 -14 q 275 50 374 -14 q 128 229 176 114 q 81 499 81 344 q 128 767 81 653 q 275 944 176 881 q 526 1007 374 1007 m 526 832 q 353 743 408 832 q 297 497 297 654 q 352 252 297 342 q 525 163 407 163 q 608 169 565 163 q 678 189 651 176 l 678 804 q 610 825 653 818 q 526 832 567 832 z "},"œ":{"ha":1358,"x_min":63,"x_max":1299,"o":"m 949 772 q 1204 683 1110 772 q 1299 428 1299 593 l 1299 328 l 793 328 q 849 190 797 239 q 989 140 900 140 q 1128 155 1065 140 q 1256 200 1190 169 l 1256 40 q 1134 -1 1197 13 q 981 -14 1071 -14 q 822 12 894 -14 q 696 92 749 38 q 581 13 649 39 q 431 -14 513 -14 q 240 32 322 -14 q 110 166 157 78 q 63 381 63 254 q 159 671 63 569 q 429 772 256 772 q 574 746 506 772 q 689 667 642 719 q 949 772 786 772 m 953 625 q 847 586 889 625 q 799 465 806 547 l 1104 465 q 1066 580 1103 535 q 953 625 1029 625 m 429 606 q 310 549 347 606 q 274 381 274 493 q 310 210 274 268 q 431 153 347 153 q 549 210 513 153 q 586 381 586 268 q 549 549 586 493 q 429 606 513 606 z "},"Ŕ":{"ha":917,"x_min":125,"x_max":917,"o":"m 414 992 q 713 918 617 992 q 810 694 810 844 q 784 576 810 626 q 716 490 758 525 q 625 432 674 454 l 917 0 l 683 0 l 447 381 l 335 381 l 335 0 l 125 0 l 125 992 l 414 992 m 399 819 l 335 819 l 335 551 l 403 551 q 552 586 507 551 q 597 689 597 621 q 549 790 597 760 q 399 819 501 819 m 736 1283 q 685 1236 717 1264 q 616 1178 653 1208 q 544 1120 579 1147 q 482 1075 508 1093 l 344 1075 l 344 1093 q 397 1155 367 1119 q 456 1228 426 1190 q 504 1297 485 1267 l 736 1297 l 736 1283 z "},"ŕ":{"ha":631,"x_min":108,"x_max":619,"o":"m 532 772 q 568 771 547 772 q 601 767 589 769 l 586 572 q 558 577 576 575 q 525 579 539 579 q 424 560 472 579 q 345 500 375 542 q 315 386 315 458 l 315 0 l 108 0 l 108 758 l 265 758 l 296 631 l 306 631 q 397 731 339 689 q 532 772 456 772 m 619 1050 q 568 1003 600 1031 q 499 944 536 975 q 427 887 463 914 q 365 842 392 860 l 228 842 l 228 860 q 280 922 250 886 q 339 995 310 957 q 388 1064 368 1033 l 619 1064 l 619 1050 z "},"Ŗ":{"ha":917,"x_min":125,"x_max":917,"o":"m 414 992 q 713 918 617 992 q 810 694 810 844 q 784 576 810 626 q 716 490 758 525 q 625 432 674 454 l 917 0 l 683 0 l 447 381 l 335 381 l 335 0 l 125 0 l 125 992 l 414 992 m 399 819 l 335 819 l 335 551 l 403 551 q 552 586 507 551 q 597 689 597 621 q 549 790 597 760 q 399 819 501 819 m 614 -99 q 565 -198 593 -144 q 501 -307 538 -251 l 381 -307 l 381 -289 q 404 -189 392 -249 q 422 -85 417 -129 l 614 -85 l 614 -99 z "},"ŗ":{"ha":631,"x_min":100,"x_max":601,"o":"m 532 772 q 568 771 547 772 q 601 767 589 769 l 586 572 q 558 577 576 575 q 525 579 539 579 q 424 560 472 579 q 345 500 375 542 q 315 386 315 458 l 315 0 l 108 0 l 108 758 l 265 758 l 296 631 l 306 631 q 397 731 339 689 q 532 772 456 772 m 333 -99 q 285 -198 313 -144 q 221 -307 257 -251 l 100 -307 l 100 -289 q 124 -189 111 -249 q 142 -85 136 -129 l 333 -85 l 333 -99 z "},"Ř":{"ha":917,"x_min":125,"x_max":917,"o":"m 414 992 q 713 918 617 992 q 810 694 810 844 q 784 576 810 626 q 716 490 758 525 q 625 432 674 454 l 917 0 l 683 0 l 447 381 l 335 381 l 335 0 l 125 0 l 125 992 l 414 992 m 399 819 l 335 819 l 335 551 l 403 551 q 552 586 507 551 q 597 689 597 621 q 549 790 597 760 q 399 819 501 819 m 351 1075 q 301 1144 332 1107 q 237 1218 269 1182 q 178 1279 204 1254 l 178 1297 l 315 1297 q 393 1245 351 1275 q 471 1178 435 1215 q 550 1245 507 1215 q 629 1297 593 1275 l 767 1297 l 767 1279 q 708 1218 742 1254 q 644 1144 675 1182 q 593 1075 613 1107 l 351 1075 z "},"ř":{"ha":631,"x_min":61,"x_max":650,"o":"m 532 772 q 568 771 547 772 q 601 767 589 769 l 586 572 q 558 577 576 575 q 525 579 539 579 q 424 560 472 579 q 345 500 375 542 q 315 386 315 458 l 315 0 l 108 0 l 108 758 l 265 758 l 296 631 l 306 631 q 397 731 339 689 q 532 772 456 772 m 235 842 q 184 911 215 874 q 120 985 153 949 q 61 1046 88 1021 l 61 1064 l 199 1064 q 276 1012 235 1042 q 354 944 318 982 q 433 1012 390 982 q 513 1064 476 1042 l 650 1064 l 650 1046 q 592 985 625 1021 q 527 911 558 949 q 476 842 496 874 l 235 842 z "},"Ś":{"ha":765,"x_min":64,"x_max":710,"o":"m 710 275 q 615 65 710 143 q 344 -14 519 -14 q 64 46 188 -14 l 64 242 q 210 185 135 211 q 361 160 286 160 q 472 190 439 160 q 504 265 504 219 q 478 329 504 303 q 410 378 453 356 q 311 428 367 401 q 236 467 276 444 q 159 524 196 490 q 99 607 122 558 q 75 724 75 656 q 165 931 75 857 q 411 1006 256 1006 q 559 988 489 1006 q 706 936 629 969 l 638 772 q 515 815 569 800 q 404 831 461 831 q 313 803 344 831 q 281 731 281 775 q 328 647 281 678 q 468 572 375 617 q 598 497 544 536 q 681 406 651 458 q 710 275 710 353 m 661 1283 q 610 1236 642 1264 q 541 1178 578 1208 q 469 1120 504 1147 q 407 1075 433 1093 l 269 1075 l 269 1093 q 322 1155 292 1119 q 381 1228 351 1190 q 429 1297 410 1267 l 661 1297 l 661 1283 z "},"ś":{"ha":690,"x_min":63,"x_max":638,"o":"m 638 225 q 556 48 638 110 q 314 -14 475 -14 q 178 -3 235 -14 q 64 31 121 7 l 64 201 q 196 156 125 174 q 321 138 267 138 q 408 156 382 138 q 433 203 433 174 q 423 238 433 222 q 378 272 413 253 q 269 322 343 292 q 153 383 199 353 q 85 455 107 413 q 63 561 63 497 q 144 719 63 667 q 363 772 226 772 q 497 758 433 772 q 629 713 561 744 l 567 564 q 461 603 511 588 q 360 619 411 619 q 268 569 268 619 q 280 537 268 551 q 326 506 292 522 q 426 461 360 489 q 539 406 492 435 q 612 335 586 378 q 638 225 638 293 m 613 1050 q 561 1003 593 1031 q 492 944 529 975 q 420 887 456 914 q 358 842 385 860 l 221 842 l 221 860 q 273 922 243 886 q 332 995 303 957 q 381 1064 361 1033 l 613 1064 l 613 1050 z "},"Ŝ":{"ha":765,"x_min":64,"x_max":710,"o":"m 710 275 q 615 65 710 143 q 344 -14 519 -14 q 64 46 188 -14 l 64 242 q 210 185 135 211 q 361 160 286 160 q 472 190 439 160 q 504 265 504 219 q 478 329 504 303 q 410 378 453 356 q 311 428 367 401 q 236 467 276 444 q 159 524 196 490 q 99 607 122 558 q 75 724 75 656 q 165 931 75 857 q 411 1006 256 1006 q 559 988 489 1006 q 706 936 629 969 l 638 772 q 515 815 569 800 q 404 831 461 831 q 313 803 344 831 q 281 731 281 775 q 328 647 281 678 q 468 572 375 617 q 598 497 544 536 q 681 406 651 458 q 710 275 710 353 m 517 1297 q 567 1228 536 1267 q 632 1154 599 1190 q 690 1093 665 1118 l 690 1075 l 553 1075 q 474 1127 517 1097 q 394 1194 431 1157 q 317 1128 358 1157 q 239 1075 275 1099 l 101 1075 l 101 1093 q 160 1155 128 1119 q 224 1228 193 1190 q 275 1297 256 1267 l 517 1297 z "},"ŝ":{"ha":690,"x_min":53,"x_max":642,"o":"m 638 225 q 556 48 638 110 q 314 -14 475 -14 q 178 -3 235 -14 q 64 31 121 7 l 64 201 q 196 156 125 174 q 321 138 267 138 q 408 156 382 138 q 433 203 433 174 q 423 238 433 222 q 378 272 413 253 q 269 322 343 292 q 153 383 199 353 q 85 455 107 413 q 63 561 63 497 q 144 719 63 667 q 363 772 226 772 q 497 758 433 772 q 629 713 561 744 l 567 564 q 461 603 511 588 q 360 619 411 619 q 268 569 268 619 q 280 537 268 551 q 326 506 292 522 q 426 461 360 489 q 539 406 492 435 q 612 335 586 378 q 638 225 638 293 m 468 1064 q 519 995 488 1033 q 583 921 550 957 q 642 860 617 885 l 642 842 l 504 842 q 425 894 468 864 q 346 961 382 924 q 268 894 310 924 q 190 842 226 865 l 53 842 l 53 860 q 112 922 79 886 q 176 995 144 957 q 226 1064 207 1033 l 468 1064 z "},"Ş":{"ha":765,"x_min":64,"x_max":710,"o":"m 710 275 q 615 65 710 143 q 344 -14 519 -14 q 64 46 188 -14 l 64 242 q 210 185 135 211 q 361 160 286 160 q 472 190 439 160 q 504 265 504 219 q 478 329 504 303 q 410 378 453 356 q 311 428 367 401 q 236 467 276 444 q 159 524 196 490 q 99 607 122 558 q 75 724 75 656 q 165 931 75 857 q 411 1006 256 1006 q 559 988 489 1006 q 706 936 629 969 l 638 772 q 515 815 569 800 q 404 831 461 831 q 313 803 344 831 q 281 731 281 775 q 328 647 281 678 q 468 572 375 617 q 598 497 544 536 q 681 406 651 458 q 710 275 710 353 m 533 -169 q 488 -290 533 -247 q 324 -333 443 -333 q 269 -329 293 -333 q 225 -319 244 -325 l 225 -206 q 273 -215 244 -211 q 322 -219 301 -219 q 356 -210 342 -219 q 371 -178 371 -201 q 346 -133 371 -153 q 258 -104 321 -114 l 311 0 l 442 0 l 424 -42 q 499 -87 465 -56 q 533 -169 533 -118 z "},"ş":{"ha":690,"x_min":63,"x_max":638,"o":"m 638 225 q 556 48 638 110 q 314 -14 475 -14 q 178 -3 235 -14 q 64 31 121 7 l 64 201 q 196 156 125 174 q 321 138 267 138 q 408 156 382 138 q 433 203 433 174 q 423 238 433 222 q 378 272 413 253 q 269 322 343 292 q 153 383 199 353 q 85 455 107 413 q 63 561 63 497 q 144 719 63 667 q 363 772 226 772 q 497 758 433 772 q 629 713 561 744 l 567 564 q 461 603 511 588 q 360 619 411 619 q 268 569 268 619 q 280 537 268 551 q 326 506 292 522 q 426 461 360 489 q 539 406 492 435 q 612 335 586 378 q 638 225 638 293 m 507 -169 q 462 -290 507 -247 q 297 -333 417 -333 q 242 -329 267 -333 q 199 -319 218 -325 l 199 -206 q 247 -215 218 -211 q 296 -219 275 -219 q 330 -210 315 -219 q 344 -178 344 -201 q 319 -133 344 -153 q 232 -104 294 -114 l 285 0 l 415 0 l 397 -42 q 473 -87 439 -56 q 507 -169 507 -118 z "},"Š":{"ha":765,"x_min":64,"x_max":710,"o":"m 710 275 q 615 65 710 143 q 344 -14 519 -14 q 64 46 188 -14 l 64 242 q 210 185 135 211 q 361 160 286 160 q 472 190 439 160 q 504 265 504 219 q 478 329 504 303 q 410 378 453 356 q 311 428 367 401 q 236 467 276 444 q 159 524 196 490 q 99 607 122 558 q 75 724 75 656 q 165 931 75 857 q 411 1006 256 1006 q 559 988 489 1006 q 706 936 629 969 l 638 772 q 515 815 569 800 q 404 831 461 831 q 313 803 344 831 q 281 731 281 775 q 328 647 281 678 q 468 572 375 617 q 598 497 544 536 q 681 406 651 458 q 710 275 710 353 m 276 1075 q 226 1144 257 1107 q 162 1218 194 1182 q 103 1279 129 1254 l 103 1297 l 240 1297 q 318 1245 276 1275 q 396 1178 360 1215 q 475 1245 432 1215 q 554 1297 518 1275 l 692 1297 l 692 1279 q 633 1218 667 1254 q 569 1144 600 1182 q 518 1075 538 1107 l 276 1075 z "},"š":{"ha":690,"x_min":54,"x_max":643,"o":"m 638 225 q 556 48 638 110 q 314 -14 475 -14 q 178 -3 235 -14 q 64 31 121 7 l 64 201 q 196 156 125 174 q 321 138 267 138 q 408 156 382 138 q 433 203 433 174 q 423 238 433 222 q 378 272 413 253 q 269 322 343 292 q 153 383 199 353 q 85 455 107 413 q 63 561 63 497 q 144 719 63 667 q 363 772 226 772 q 497 758 433 772 q 629 713 561 744 l 567 564 q 461 603 511 588 q 360 619 411 619 q 268 569 268 619 q 280 537 268 551 q 326 506 292 522 q 426 461 360 489 q 539 406 492 435 q 612 335 586 378 q 638 225 638 293 m 228 842 q 177 911 208 874 q 113 985 146 949 q 54 1046 81 1021 l 54 1064 l 192 1064 q 269 1012 228 1042 q 347 944 311 982 q 426 1012 383 982 q 506 1064 469 1042 l 643 1064 l 643 1046 q 585 985 618 1021 q 520 911 551 949 q 469 842 489 874 l 228 842 z "},"Ț":{"ha":804,"x_min":28,"x_max":776,"o":"m 507 0 l 297 0 l 297 817 l 28 817 l 28 992 l 776 992 l 776 817 l 507 817 l 507 0 m 519 -99 q 471 -198 499 -144 q 407 -307 443 -251 l 286 -307 l 286 -289 q 310 -189 297 -249 q 328 -85 322 -129 l 519 -85 l 519 -99 z "},"ț":{"ha":603,"x_min":32,"x_max":558,"o":"m 428 151 q 494 158 463 151 q 558 175 526 165 l 558 21 q 476 -3 525 7 q 368 -14 426 -14 q 247 8 300 -14 q 162 85 193 31 q 131 238 131 140 l 131 603 l 32 603 l 32 690 l 146 760 l 206 919 l 338 919 l 338 758 l 550 758 l 550 603 l 338 603 l 338 238 q 363 173 338 194 q 428 151 388 151 m 451 -99 q 403 -198 431 -144 q 339 -307 375 -251 l 218 -307 l 218 -289 q 242 -189 229 -249 q 260 -85 254 -129 l 451 -85 l 451 -99 z "},"Ť":{"ha":804,"x_min":28,"x_max":776,"o":"m 507 0 l 297 0 l 297 817 l 28 817 l 28 992 l 776 992 l 776 817 l 507 817 l 507 0 m 285 1075 q 234 1144 265 1107 q 170 1218 203 1182 q 111 1279 138 1254 l 111 1297 l 249 1297 q 326 1245 285 1275 q 404 1178 368 1215 q 483 1245 440 1215 q 563 1297 526 1275 l 700 1297 l 700 1279 q 642 1218 675 1254 q 577 1144 608 1182 q 526 1075 546 1107 l 285 1075 z "},"ť":{"ha":603,"x_min":32,"x_max":792,"o":"m 792 1042 q 743 942 771 996 q 679 833 715 889 l 558 833 l 558 851 q 582 951 569 892 q 600 1056 594 1011 l 792 1056 l 792 1042 m 428 151 q 494 158 463 151 q 558 175 526 165 l 558 21 q 476 -3 525 7 q 368 -14 426 -14 q 247 8 300 -14 q 162 85 193 31 q 131 238 131 140 l 131 603 l 32 603 l 32 690 l 146 760 l 206 919 l 338 919 l 338 758 l 550 758 l 550 603 l 338 603 l 338 238 q 363 173 338 194 q 428 151 388 151 z "},"Ŧ":{"ha":804,"x_min":28,"x_max":776,"o":"m 297 0 l 297 404 l 129 404 l 129 576 l 297 576 l 297 817 l 28 817 l 28 992 l 776 992 l 776 817 l 507 817 l 507 576 l 675 576 l 675 404 l 507 404 l 507 0 l 297 0 z "},"ŧ":{"ha":603,"x_min":32,"x_max":558,"o":"m 44 338 l 44 472 l 131 472 l 131 603 l 32 603 l 32 690 l 146 760 l 206 919 l 338 919 l 338 758 l 550 758 l 550 603 l 338 603 l 338 472 l 526 472 l 526 338 l 338 338 l 338 238 q 363 173 338 194 q 428 151 388 151 q 494 158 463 151 q 558 175 526 165 l 558 21 q 476 -3 525 7 q 368 -14 426 -14 q 247 8 300 -14 q 162 85 193 31 q 131 238 131 140 l 131 338 l 44 338 z "},"Ũ":{"ha":1050,"x_min":118,"x_max":932,"o":"m 932 350 q 887 165 932 247 q 751 34 842 82 q 521 -14 660 -14 q 221 87 324 -14 q 118 353 118 188 l 118 992 l 328 992 l 328 385 q 378 213 328 263 q 526 163 428 163 q 676 217 629 163 q 722 386 722 271 l 722 992 l 932 992 l 932 350 m 243 1074 q 303 1233 251 1182 q 428 1283 356 1283 q 501 1265 465 1283 q 570 1230 536 1247 q 636 1213 604 1213 q 676 1231 657 1213 q 704 1285 696 1249 l 806 1285 q 744 1126 797 1178 q 621 1075 692 1075 q 549 1092 585 1075 q 480 1128 514 1110 q 413 1146 446 1146 q 372 1128 392 1146 q 344 1074 353 1110 l 243 1074 z "},"ũ":{"ha":913,"x_min":104,"x_max":804,"o":"m 804 758 l 804 0 l 646 0 l 618 97 l 607 97 q 508 13 571 39 q 374 -14 444 -14 q 178 52 251 -14 q 104 264 104 118 l 104 758 l 311 758 l 311 315 q 340 193 311 235 q 433 151 369 151 q 563 216 528 151 q 597 401 597 281 l 597 758 l 804 758 m 175 840 q 235 999 183 949 q 360 1050 288 1050 q 433 1032 397 1050 q 502 997 468 1014 q 568 979 536 979 q 608 997 589 979 q 636 1051 628 1015 l 738 1051 q 676 893 729 944 q 553 842 624 842 q 481 859 517 842 q 412 894 446 876 q 344 913 378 913 q 304 894 324 913 q 276 840 285 876 l 175 840 z "},"Ū":{"ha":1050,"x_min":118,"x_max":932,"o":"m 932 350 q 887 165 932 247 q 751 34 842 82 q 521 -14 660 -14 q 221 87 324 -14 q 118 353 118 188 l 118 992 l 328 992 l 328 385 q 378 213 328 263 q 526 163 428 163 q 676 217 629 163 q 722 386 722 271 l 722 992 l 932 992 l 932 350 m 756 1218 l 756 1075 l 296 1075 l 296 1218 l 756 1218 z "},"ū":{"ha":913,"x_min":104,"x_max":804,"o":"m 804 758 l 804 0 l 646 0 l 618 97 l 607 97 q 508 13 571 39 q 374 -14 444 -14 q 178 52 251 -14 q 104 264 104 118 l 104 758 l 311 758 l 311 315 q 340 193 311 235 q 433 151 369 151 q 563 216 528 151 q 597 401 597 281 l 597 758 l 804 758 m 688 985 l 688 842 l 228 842 l 228 985 l 688 985 z "},"Ŭ":{"ha":1050,"x_min":118,"x_max":932,"o":"m 932 350 q 887 165 932 247 q 751 34 842 82 q 521 -14 660 -14 q 221 87 324 -14 q 118 353 118 188 l 118 992 l 328 992 l 328 385 q 378 213 328 263 q 526 163 428 163 q 676 217 629 163 q 722 386 722 271 l 722 992 l 932 992 l 932 350 m 796 1304 q 715 1139 789 1203 q 526 1075 642 1075 q 338 1138 407 1075 q 263 1304 268 1200 l 378 1304 q 402 1247 382 1265 q 456 1224 422 1229 q 528 1219 489 1219 q 594 1226 561 1219 q 650 1250 626 1232 q 678 1304 674 1268 l 796 1304 z "},"ŭ":{"ha":913,"x_min":104,"x_max":804,"o":"m 804 758 l 804 0 l 646 0 l 618 97 l 607 97 q 508 13 571 39 q 374 -14 444 -14 q 178 52 251 -14 q 104 264 104 118 l 104 758 l 311 758 l 311 315 q 340 193 311 235 q 433 151 369 151 q 563 216 528 151 q 597 401 597 281 l 597 758 l 804 758 m 728 1071 q 647 906 721 969 q 458 842 574 842 q 269 904 339 842 q 194 1071 200 967 l 310 1071 q 334 1014 314 1032 q 388 991 354 996 q 460 986 421 986 q 526 992 493 986 q 582 1017 558 999 q 610 1071 606 1035 l 728 1071 z "},"Ů":{"ha":1050,"x_min":118,"x_max":932,"o":"m 932 350 q 887 165 932 247 q 751 34 842 82 q 521 -14 660 -14 q 221 87 324 -14 q 118 353 118 188 l 118 992 l 328 992 l 328 385 q 378 213 328 263 q 526 163 428 163 q 676 217 629 163 q 722 386 722 271 l 722 992 l 932 992 l 932 350 m 526 1074 q 405 1117 451 1074 q 358 1235 358 1160 q 405 1353 358 1310 q 526 1396 451 1396 q 649 1353 599 1396 q 699 1236 699 1310 q 649 1117 699 1160 q 526 1074 600 1074 m 526 1169 q 573 1187 554 1169 q 592 1235 592 1204 q 573 1283 592 1265 q 526 1300 554 1300 q 480 1283 499 1300 q 461 1235 461 1265 q 478 1187 461 1204 q 526 1169 494 1169 z "},"ů":{"ha":913,"x_min":104,"x_max":804,"o":"m 804 758 l 804 0 l 646 0 l 618 97 l 607 97 q 508 13 571 39 q 374 -14 444 -14 q 178 52 251 -14 q 104 264 104 118 l 104 758 l 311 758 l 311 315 q 340 193 311 235 q 433 151 369 151 q 563 216 528 151 q 597 401 597 281 l 597 758 l 804 758 m 458 840 q 337 883 383 840 q 290 1001 290 926 q 337 1119 290 1076 q 458 1163 383 1163 q 581 1119 531 1163 q 631 1003 631 1076 q 581 883 631 926 q 458 840 532 840 m 458 936 q 505 953 486 936 q 524 1001 524 971 q 505 1049 524 1032 q 458 1067 486 1067 q 412 1049 431 1067 q 393 1001 393 1032 q 410 953 393 971 q 458 936 426 936 z "},"Ű":{"ha":1050,"x_min":118,"x_max":932,"o":"m 932 350 q 887 165 932 247 q 751 34 842 82 q 521 -14 660 -14 q 221 87 324 -14 q 118 353 118 188 l 118 992 l 328 992 l 328 385 q 378 213 328 263 q 526 163 428 163 q 676 217 629 163 q 722 386 722 271 l 722 992 l 932 992 l 932 350 m 932 1283 q 894 1238 921 1265 q 833 1179 868 1210 q 765 1122 799 1149 q 706 1075 731 1094 l 596 1075 l 596 1093 q 640 1156 615 1119 q 689 1229 665 1192 q 728 1297 713 1267 l 932 1297 l 932 1283 m 663 1283 q 625 1238 651 1265 q 564 1179 599 1210 q 495 1122 529 1149 q 436 1075 461 1094 l 326 1075 l 326 1093 q 370 1156 346 1119 q 418 1229 394 1192 q 458 1297 442 1267 l 663 1297 l 663 1283 z "},"ű":{"ha":913,"x_min":104,"x_max":864,"o":"m 804 758 l 804 0 l 646 0 l 618 97 l 607 97 q 508 13 571 39 q 374 -14 444 -14 q 178 52 251 -14 q 104 264 104 118 l 104 758 l 311 758 l 311 315 q 340 193 311 235 q 433 151 369 151 q 563 216 528 151 q 597 401 597 281 l 597 758 l 804 758 m 864 1050 q 826 1004 853 1032 q 765 946 800 976 q 697 888 731 915 q 638 842 663 861 l 528 842 l 528 860 q 572 922 547 886 q 621 996 597 958 q 660 1064 644 1033 l 864 1064 l 864 1050 m 594 1050 q 557 1004 583 1032 q 496 946 531 976 q 427 888 461 915 q 368 842 393 861 l 258 842 l 258 860 q 302 922 278 886 q 350 996 326 958 q 390 1064 374 1033 l 594 1064 l 594 1050 z "},"Ų":{"ha":1050,"x_min":118,"x_max":932,"o":"m 674 -139 q 690 -192 674 -174 q 731 -210 707 -210 q 772 -206 753 -210 q 806 -197 792 -201 l 806 -318 q 758 -328 783 -324 q 700 -333 733 -333 q 576 -289 622 -333 q 531 -168 531 -244 q 549 -84 531 -125 q 597 -10 567 -43 q 521 -14 561 -14 q 221 87 324 -14 q 118 353 118 188 l 118 992 l 328 992 l 328 385 q 378 213 328 263 q 526 163 428 163 q 676 217 629 163 q 722 386 722 271 l 722 992 l 932 992 l 932 350 q 899 187 932 261 q 797 64 865 113 q 703 -48 732 1 q 674 -139 674 -97 z "},"ų":{"ha":913,"x_min":104,"x_max":804,"o":"m 804 758 l 804 0 l 646 0 l 618 97 l 607 97 q 508 13 571 39 q 374 -14 444 -14 q 178 52 251 -14 q 104 264 104 118 l 104 758 l 311 758 l 311 315 q 340 193 311 235 q 433 151 369 151 q 563 216 528 151 q 597 401 597 281 l 597 758 l 804 758 m 660 -154 q 675 -196 660 -182 q 714 -210 690 -210 q 757 -206 736 -210 q 792 -197 778 -201 l 792 -318 q 744 -328 769 -324 q 686 -333 719 -333 q 563 -290 608 -333 q 517 -178 517 -246 q 561 -64 517 -117 q 669 24 606 -11 l 760 0 q 686 -81 713 -44 q 660 -154 660 -118 z "},"Ŵ":{"ha":1343,"x_min":0,"x_max":1343,"o":"m 1343 992 l 1090 0 l 851 0 l 717 521 q 706 567 713 536 q 692 633 700 597 q 679 702 685 669 q 671 753 674 735 q 663 702 669 735 q 650 634 657 669 q 636 567 643 599 q 625 519 629 536 l 492 0 l 253 0 l 0 992 l 207 992 l 333 450 q 351 369 342 418 q 369 272 361 321 q 382 190 378 224 q 394 273 386 225 q 412 366 403 321 q 428 436 421 411 l 572 992 l 771 992 l 915 436 q 931 367 922 413 q 949 272 940 321 q 961 190 957 224 q 974 273 965 225 q 992 369 982 321 q 1010 450 1003 418 l 1136 992 l 1343 992 m 794 1297 q 845 1228 814 1267 q 910 1154 876 1190 q 968 1093 943 1118 l 968 1075 l 831 1075 q 751 1127 794 1097 q 672 1194 708 1157 q 594 1128 636 1157 q 517 1075 553 1099 l 379 1075 l 379 1093 q 438 1155 406 1119 q 502 1228 471 1190 q 553 1297 533 1267 l 794 1297 z "},"ŵ":{"ha":1189,"x_min":14,"x_max":1175,"o":"m 674 265 q 658 335 668 289 q 635 435 647 382 q 611 534 622 489 q 596 600 600 579 l 590 600 q 576 534 586 579 q 553 435 565 489 q 529 335 540 382 q 513 263 518 288 l 451 0 l 229 0 l 14 758 l 219 758 l 307 422 q 324 339 317 388 q 339 245 332 290 q 349 174 346 200 l 354 174 q 360 226 356 193 q 370 293 364 258 q 381 356 376 328 q 389 394 386 385 l 482 758 l 710 758 l 799 394 q 812 332 804 375 q 826 244 819 289 q 832 174 832 200 l 838 174 q 847 242 840 197 q 863 338 854 288 q 882 422 872 388 l 972 758 l 1175 758 l 957 0 l 732 0 l 674 265 m 717 1064 q 767 995 736 1033 q 832 921 799 957 q 890 860 865 885 l 890 842 l 753 842 q 674 894 717 864 q 594 961 631 924 q 517 894 558 924 q 439 842 475 865 l 301 842 l 301 860 q 360 922 328 886 q 424 995 393 957 q 475 1064 456 1033 l 717 1064 z "},"Ŷ":{"ha":867,"x_min":0,"x_max":867,"o":"m 433 583 l 640 992 l 867 992 l 538 386 l 538 0 l 329 0 l 329 379 l 0 992 l 228 992 l 433 583 m 556 1297 q 606 1228 575 1267 q 671 1154 638 1190 q 729 1093 704 1118 l 729 1075 l 592 1075 q 513 1127 556 1097 q 433 1194 469 1157 q 356 1128 397 1157 q 278 1075 314 1099 l 140 1075 l 140 1093 q 199 1155 167 1119 q 263 1228 232 1190 q 314 1297 294 1267 l 556 1297 z "},"ŷ":{"ha":790,"x_min":0,"x_max":790,"o":"m 0 758 l 226 758 l 369 332 q 386 269 381 301 q 394 200 392 236 l 399 200 q 410 269 403 236 q 428 332 418 301 l 568 758 l 790 758 l 469 -97 q 344 -274 426 -215 q 153 -333 261 -333 q 92 -330 118 -333 q 47 -322 67 -326 l 47 -158 q 84 -164 63 -161 q 129 -167 106 -167 q 233 -127 194 -167 q 289 -32 271 -87 l 301 6 l 0 758 m 518 1064 q 569 995 538 1033 q 633 921 600 957 q 692 860 667 885 l 692 842 l 554 842 q 475 894 518 864 q 396 961 432 924 q 318 894 360 924 q 240 842 276 865 l 103 842 l 103 860 q 162 922 129 886 q 226 995 194 957 q 276 1064 257 1033 l 518 1064 z "},"Ÿ":{"ha":867,"x_min":0,"x_max":867,"o":"m 433 583 l 640 992 l 867 992 l 538 386 l 538 0 l 329 0 l 329 379 l 0 992 l 228 992 l 433 583 m 200 1186 q 228 1256 200 1235 q 294 1278 256 1278 q 362 1256 333 1278 q 390 1186 390 1235 q 362 1118 390 1140 q 294 1096 333 1096 q 228 1118 256 1096 q 200 1186 200 1140 m 474 1186 q 501 1256 474 1235 q 569 1278 529 1278 q 637 1256 608 1278 q 665 1186 665 1235 q 637 1118 665 1140 q 569 1096 608 1096 q 501 1118 529 1096 q 474 1186 474 1140 z "},"Ź":{"ha":804,"x_min":33,"x_max":771,"o":"m 771 0 l 33 0 l 33 136 l 508 818 l 46 818 l 46 992 l 758 992 l 758 856 l 283 174 l 771 174 l 771 0 m 676 1283 q 625 1236 657 1264 q 556 1178 593 1208 q 484 1120 519 1147 q 422 1075 449 1093 l 285 1075 l 285 1093 q 337 1155 307 1119 q 396 1228 367 1190 q 444 1297 425 1267 l 676 1297 l 676 1283 z "},"ź":{"ha":678,"x_min":38,"x_max":636,"o":"m 636 0 l 38 0 l 38 122 l 389 600 l 58 600 l 58 758 l 624 758 l 624 624 l 282 158 l 636 158 l 636 0 m 606 1050 q 554 1003 586 1031 q 485 944 522 975 q 413 887 449 914 q 351 842 378 860 l 214 842 l 214 860 q 266 922 236 886 q 325 995 296 957 q 374 1064 354 1033 l 606 1064 l 606 1050 z "},"Ż":{"ha":804,"x_min":33,"x_max":771,"o":"m 771 0 l 33 0 l 33 136 l 508 818 l 46 818 l 46 992 l 758 992 l 758 856 l 283 174 l 771 174 l 771 0 m 413 1289 q 492 1267 458 1289 q 525 1188 525 1246 q 492 1108 525 1131 q 413 1086 458 1086 q 333 1108 365 1086 q 300 1188 300 1131 q 333 1267 300 1246 q 413 1289 365 1289 z "},"ż":{"ha":678,"x_min":38,"x_max":636,"o":"m 636 0 l 38 0 l 38 122 l 389 600 l 58 600 l 58 758 l 624 758 l 624 624 l 282 158 l 636 158 l 636 0 m 342 1056 q 421 1034 388 1056 q 454 954 454 1013 q 421 875 454 897 q 342 853 388 853 q 262 875 294 853 q 229 954 229 897 q 262 1034 229 1013 q 342 1056 294 1056 z "},"Ž":{"ha":804,"x_min":33,"x_max":771,"o":"m 771 0 l 33 0 l 33 136 l 508 818 l 46 818 l 46 992 l 758 992 l 758 856 l 283 174 l 771 174 l 771 0 m 292 1075 q 241 1144 272 1107 q 177 1218 210 1182 q 118 1279 144 1254 l 118 1297 l 256 1297 q 333 1245 292 1275 q 411 1178 375 1215 q 490 1245 447 1215 q 569 1297 533 1275 l 707 1297 l 707 1279 q 649 1218 682 1254 q 584 1144 615 1182 q 533 1075 553 1107 l 292 1075 z "},"ž":{"ha":678,"x_min":38,"x_max":636,"o":"m 636 0 l 38 0 l 38 122 l 389 600 l 58 600 l 58 758 l 624 758 l 624 624 l 282 158 l 636 158 l 636 0 m 221 842 q 170 911 201 874 q 106 985 139 949 q 47 1046 74 1021 l 47 1064 l 185 1064 q 263 1012 221 1042 q 340 944 304 982 q 419 1012 376 982 q 499 1064 463 1042 l 636 1064 l 636 1046 q 578 985 611 1021 q 513 911 544 949 q 463 842 482 874 l 221 842 z "},"ſ":{"ha":532,"x_min":108,"x_max":564,"o":"m 401 899 q 335 872 354 899 q 315 806 315 846 l 315 0 l 108 0 l 108 814 q 141 965 108 911 q 234 1040 174 1018 q 375 1063 294 1063 q 488 1053 442 1063 q 564 1031 533 1043 l 515 879 q 465 892 492 886 q 401 899 438 899 z "},"ƒ":{"ha":718,"x_min":8,"x_max":781,"o":"m 260 -335 q 70 -269 132 -335 q 8 -101 8 -204 q 17 -31 8 -61 q 35 21 25 -1 l 200 -33 q 186 -106 186 -69 q 204 -162 186 -142 q 250 -182 222 -182 q 302 -157 282 -182 q 322 -83 322 -132 l 322 603 l 208 603 l 208 703 l 322 758 l 322 814 q 355 965 322 911 q 448 1040 388 1018 q 590 1063 508 1063 q 701 1053 651 1063 q 781 1031 750 1043 l 728 879 q 676 892 704 886 q 613 899 649 899 q 549 872 569 899 q 529 806 529 846 l 529 758 l 708 758 l 708 603 l 529 603 l 529 -67 q 456 -268 529 -201 q 260 -335 382 -335 z "},"Ǻ":{"ha":958,"x_min":0,"x_max":958,"o":"m 396 1200 q 458 1263 425 1226 q 514 1331 492 1300 l 746 1331 l 746 1322 q 693 1281 732 1307 q 610 1231 654 1256 q 533 1189 565 1206 l 396 1189 l 396 1200 m 339 892 q 310 990 310 932 q 356 1108 310 1065 q 478 1151 403 1151 q 600 1108 550 1151 q 650 992 650 1065 q 642 936 650 961 q 618 892 633 911 l 958 0 l 733 0 l 661 224 l 299 224 l 225 0 l 0 0 l 339 892 m 478 926 q 543 990 543 926 q 524 1038 543 1021 q 478 1056 506 1056 q 430 1038 447 1056 q 413 990 413 1021 q 430 944 413 961 q 478 926 447 926 m 344 400 l 617 400 l 547 596 q 526 658 540 618 q 498 737 511 697 q 479 799 485 776 q 465 753 475 783 q 445 691 456 724 q 426 632 435 658 q 413 596 417 606 l 344 400 z "},"ǻ":{"ha":839,"x_min":58,"x_max":735,"o":"m 669 1322 q 617 1281 656 1307 q 533 1231 578 1256 q 457 1189 489 1206 l 319 1189 l 319 1200 q 382 1263 349 1226 q 438 1331 415 1300 l 669 1331 l 669 1322 m 425 1135 q 547 1092 497 1135 q 597 975 597 1049 q 548 856 597 899 q 425 813 499 813 q 303 856 350 813 q 257 974 257 899 q 303 1092 257 1049 q 425 1135 350 1135 m 425 1039 q 378 1022 397 1039 q 360 974 360 1004 q 376 926 360 943 q 425 908 393 908 q 472 926 453 908 q 490 974 490 943 q 472 1022 490 1004 q 425 1039 453 1039 m 419 774 q 653 708 572 774 q 735 506 735 642 l 735 0 l 590 0 l 550 103 l 544 103 q 442 14 496 42 q 293 -14 388 -14 q 125 45 192 -14 q 58 226 58 104 q 143 405 58 347 q 397 468 228 463 l 529 472 l 529 506 q 498 593 529 565 q 411 621 467 621 q 303 605 356 621 q 197 565 250 589 l 129 706 q 265 756 190 738 q 419 774 339 774 m 449 349 q 310 313 349 346 q 271 225 271 279 q 299 158 271 178 q 371 138 326 138 q 483 177 438 138 q 529 289 529 217 l 529 351 l 449 349 z "},"Ǽ":{"ha":1322,"x_min":0,"x_max":1240,"o":"m 1240 0 l 649 0 l 649 236 l 315 236 l 214 0 l 0 0 l 444 992 l 1240 992 l 1240 819 l 858 819 l 858 601 l 1215 601 l 1215 429 l 858 429 l 858 174 l 1240 174 l 1240 0 m 392 413 l 649 413 l 649 813 l 563 813 l 392 413 m 969 1283 q 918 1236 950 1264 q 849 1178 886 1208 q 777 1120 813 1147 q 715 1075 742 1093 l 578 1075 l 578 1093 q 630 1155 600 1119 q 689 1228 660 1190 q 738 1297 718 1267 l 969 1297 l 969 1283 z "},"ǽ":{"ha":1274,"x_min":58,"x_max":1214,"o":"m 890 772 q 1059 732 986 772 q 1173 615 1132 692 q 1214 428 1214 539 l 1214 328 l 724 328 q 776 190 726 240 q 913 140 825 140 q 1171 200 1046 140 l 1171 40 q 1053 -1 1114 13 q 901 -14 992 -14 q 732 21 808 -14 q 607 126 656 56 q 526 47 567 78 q 432 1 485 15 q 300 -14 379 -14 q 180 12 235 -14 q 92 91 125 38 q 58 226 58 144 q 140 405 58 347 q 386 468 222 463 l 515 472 l 515 529 q 485 599 515 576 q 403 621 456 621 q 298 606 349 621 q 196 568 247 592 l 129 706 q 263 756 189 738 q 415 774 336 774 q 647 685 568 774 q 751 751 692 729 q 890 772 810 772 m 886 625 q 776 586 818 625 q 728 465 735 547 l 1019 465 q 985 580 1018 535 q 886 625 951 625 m 439 349 q 308 313 344 346 q 271 225 271 279 q 297 158 271 178 q 365 138 322 138 q 472 177 429 138 q 515 289 515 217 l 515 351 l 439 349 m 914 1050 q 863 1003 894 1031 q 794 944 831 975 q 722 887 757 914 q 660 842 686 860 l 522 842 l 522 860 q 574 922 544 886 q 633 995 604 957 q 682 1064 663 1033 l 914 1064 l 914 1050 z "},"Ǿ":{"ha":1106,"x_min":81,"x_max":1025,"o":"m 1025 497 q 974 228 1025 343 q 819 50 924 114 q 553 -14 715 -14 q 325 31 421 -14 l 264 -61 l 154 13 l 215 104 q 114 272 147 172 q 81 499 81 372 q 131 767 81 653 q 287 944 182 881 q 554 1007 392 1007 q 682 995 624 1007 q 788 960 740 983 l 844 1044 l 953 974 l 893 885 q 992 719 960 818 q 1025 497 1025 621 m 301 497 q 310 382 301 435 q 339 289 319 329 l 682 801 q 554 832 628 832 q 361 743 421 832 q 301 497 301 654 m 804 497 q 769 699 804 621 l 431 189 q 486 169 456 176 q 553 163 517 163 q 746 252 688 163 q 804 497 804 342 m 825 1283 q 774 1236 806 1264 q 705 1178 742 1208 q 633 1120 668 1147 q 571 1075 597 1093 l 433 1075 l 433 1093 q 485 1155 456 1119 q 544 1228 515 1190 q 593 1297 574 1267 l 825 1297 l 825 1283 z "},"ǿ":{"ha":860,"x_min":63,"x_max":797,"o":"m 797 381 q 698 89 797 192 q 428 -14 599 -14 q 345 -6 385 -14 q 269 17 306 3 l 224 -51 l 119 19 l 165 88 q 90 212 117 139 q 63 381 63 285 q 161 671 63 569 q 432 772 260 772 q 600 738 522 772 l 638 793 l 740 719 l 701 663 q 772 542 747 613 q 797 381 797 471 m 274 381 q 286 268 274 314 l 501 590 q 429 606 471 606 q 310 549 347 606 q 274 381 274 493 m 586 381 q 578 476 586 435 l 368 163 q 431 153 393 153 q 549 210 513 153 q 586 381 586 268 m 699 1050 q 647 1003 679 1031 q 578 944 615 975 q 506 887 542 914 q 444 842 471 860 l 307 842 l 307 860 q 359 922 329 886 q 418 995 389 957 q 467 1064 447 1033 l 699 1064 l 699 1050 z "},"Ș":{"ha":765,"x_min":64,"x_max":710,"o":"m 710 275 q 615 65 710 143 q 344 -14 519 -14 q 64 46 188 -14 l 64 242 q 210 185 135 211 q 361 160 286 160 q 472 190 439 160 q 504 265 504 219 q 478 329 504 303 q 410 378 453 356 q 311 428 367 401 q 236 467 276 444 q 159 524 196 490 q 99 607 122 558 q 75 724 75 656 q 165 931 75 857 q 411 1006 256 1006 q 559 988 489 1006 q 706 936 629 969 l 638 772 q 515 815 569 800 q 404 831 461 831 q 313 803 344 831 q 281 731 281 775 q 328 647 281 678 q 468 572 375 617 q 598 497 544 536 q 681 406 651 458 q 710 275 710 353 m 489 -99 q 440 -198 468 -144 q 376 -307 413 -251 l 256 -307 l 256 -289 q 279 -189 267 -249 q 297 -85 292 -129 l 489 -85 l 489 -99 z "},"ș":{"ha":690,"x_min":63,"x_max":638,"o":"m 638 225 q 556 48 638 110 q 314 -14 475 -14 q 178 -3 235 -14 q 64 31 121 7 l 64 201 q 196 156 125 174 q 321 138 267 138 q 408 156 382 138 q 433 203 433 174 q 423 238 433 222 q 378 272 413 253 q 269 322 343 292 q 153 383 199 353 q 85 455 107 413 q 63 561 63 497 q 144 719 63 667 q 363 772 226 772 q 497 758 433 772 q 629 713 561 744 l 567 564 q 461 603 511 588 q 360 619 411 619 q 268 569 268 619 q 280 537 268 551 q 326 506 292 522 q 426 461 360 489 q 539 406 492 435 q 612 335 586 378 q 638 225 638 293 m 463 -99 q 414 -198 442 -144 q 350 -307 386 -251 l 229 -307 l 229 -289 q 253 -189 240 -249 q 271 -85 265 -129 l 463 -85 l 463 -99 z "},"ˆ":{"ha":700,"x_min":56,"x_max":644,"o":"m 471 1064 q 522 995 490 1033 q 586 921 553 957 q 644 860 619 885 l 644 842 l 507 842 q 428 894 471 864 q 349 961 385 924 q 271 894 313 924 q 193 842 229 865 l 56 842 l 56 860 q 115 922 82 886 q 178 995 147 957 q 229 1064 210 1033 l 471 1064 z "},"ˇ":{"ha":700,"x_min":56,"x_max":644,"o":"m 229 842 q 178 911 210 874 q 115 985 147 949 q 56 1046 82 1021 l 56 1064 l 193 1064 q 271 1012 229 1042 q 349 944 313 982 q 428 1012 385 982 q 507 1064 471 1042 l 644 1064 l 644 1046 q 586 985 619 1021 q 522 911 553 949 q 471 842 490 874 l 229 842 z "},"ˉ":{"ha":571,"x_min":56,"x_max":515,"o":"m 515 985 l 515 842 l 56 842 l 56 985 l 515 985 z "},"˘":{"ha":644,"x_min":56,"x_max":589,"o":"m 589 1071 q 508 906 582 969 q 319 842 435 842 q 131 904 200 842 q 56 1071 61 967 l 171 1071 q 195 1014 175 1032 q 249 991 215 996 q 321 986 282 986 q 387 992 354 986 q 443 1017 419 999 q 471 1071 467 1035 l 589 1071 z "},"˙":{"ha":336,"x_min":56,"x_max":281,"o":"m 168 1056 q 247 1034 214 1056 q 281 954 281 1013 q 247 875 281 897 q 168 853 214 853 q 88 875 121 853 q 56 954 56 897 q 88 1034 56 1013 q 168 1056 121 1056 z "},"˚":{"ha":451,"x_min":56,"x_max":396,"o":"m 224 840 q 102 883 149 840 q 56 1001 56 926 q 102 1119 56 1076 q 224 1163 149 1163 q 346 1119 296 1163 q 396 1003 396 1076 q 347 883 396 926 q 224 840 297 840 m 224 936 q 270 953 251 936 q 289 1001 289 971 q 270 1049 289 1032 q 224 1067 251 1067 q 177 1049 196 1067 q 158 1001 158 1032 q 175 953 158 971 q 224 936 192 936 z "},"˛":{"ha":386,"x_min":56,"x_max":331,"o":"m 199 -154 q 214 -196 199 -182 q 253 -210 229 -210 q 296 -206 275 -210 q 331 -197 317 -201 l 331 -318 q 283 -328 308 -324 q 225 -333 258 -333 q 101 -290 147 -333 q 56 -178 56 -246 q 100 -64 56 -117 q 208 24 144 -11 l 299 0 q 225 -81 251 -44 q 199 -154 199 -118 z "},"˜":{"ha":674,"x_min":56,"x_max":618,"o":"m 56 840 q 116 999 64 949 q 240 1050 168 1050 q 313 1032 278 1050 q 383 997 349 1014 q 449 979 417 979 q 489 997 469 979 q 517 1051 508 1015 l 618 1051 q 557 893 610 944 q 433 842 504 842 q 362 859 397 842 q 292 894 326 876 q 225 913 258 913 q 185 894 204 913 q 157 840 165 876 l 56 840 z "},"˝":{"ha":717,"x_min":56,"x_max":661,"o":"m 661 1050 q 624 1004 650 1032 q 563 946 597 976 q 494 888 528 915 q 435 842 460 861 l 325 842 l 325 860 q 369 922 344 886 q 418 996 394 958 q 457 1064 442 1033 l 661 1064 l 661 1050 m 392 1050 q 354 1004 381 1032 q 293 946 328 976 q 224 888 258 915 q 165 842 190 861 l 56 842 l 56 860 q 99 922 75 886 q 147 996 124 958 q 188 1064 171 1033 l 392 1064 l 392 1050 z "},"΄":{"ha":801,"x_min":326,"x_max":574,"o":"m 326 863 q 348 939 338 896 q 368 1026 358 982 q 382 1106 378 1071 l 574 1106 l 574 1089 q 519 971 551 1035 q 447 842 488 907 l 326 842 l 326 863 z "},"΅":{"ha":801,"x_min":138,"x_max":686,"o":"m 561 1150 q 507 1050 540 1104 q 435 942 474 996 l 342 942 l 342 960 q 365 1060 353 1000 q 383 1164 378 1119 l 561 1164 l 561 1150 m 225 1044 q 289 1023 264 1044 q 314 953 314 1001 q 289 885 314 907 q 225 863 264 863 q 162 885 186 863 q 138 953 138 907 q 162 1023 138 1001 q 225 1044 186 1044 m 597 1044 q 661 1023 636 1044 q 686 953 686 1001 q 661 885 686 907 q 597 863 636 863 q 533 885 557 863 q 508 953 508 907 q 533 1023 508 1001 q 597 1044 557 1044 z "},"Ά":{"ha":986,"x_min":14,"x_max":986,"o":"m 760 0 l 688 236 l 326 236 l 254 0 l 28 0 l 378 996 l 635 996 l 986 0 l 760 0 m 565 643 q 547 703 558 667 q 525 776 536 739 q 507 842 514 814 q 488 773 500 814 q 466 695 476 732 q 450 643 456 658 l 379 413 l 638 413 l 565 643 m 14 797 q 35 874 25 831 q 56 961 46 917 q 69 1040 65 1006 l 261 1040 l 261 1024 q 207 906 239 969 q 135 776 175 842 l 14 776 l 14 797 z "},"·":{"ha":396,"x_min":79,"x_max":317,"o":"m 79 656 q 114 745 79 719 q 199 771 149 771 q 282 745 247 771 q 317 656 317 719 q 282 567 317 594 q 199 540 247 540 q 114 567 149 540 q 79 656 79 594 z "},"Έ":{"ha":938,"x_min":0,"x_max":856,"o":"m 856 0 l 285 0 l 285 992 l 856 992 l 856 819 l 494 819 l 494 601 l 831 601 l 831 429 l 494 429 l 494 174 l 856 174 l 856 0 m 0 797 q 22 874 11 831 q 42 961 32 917 q 56 1040 51 1006 l 247 1040 l 247 1024 q 193 906 225 969 q 121 776 161 842 l 0 776 l 0 797 z "},"Ή":{"ha":1222,"x_min":0,"x_max":1097,"o":"m 1097 0 l 888 0 l 888 428 l 494 428 l 494 0 l 285 0 l 285 992 l 494 992 l 494 603 l 888 603 l 888 992 l 1097 992 l 1097 0 m 0 797 q 22 874 11 831 q 42 961 32 917 q 56 1040 51 1006 l 247 1040 l 247 1024 q 193 906 225 969 q 121 776 161 842 l 0 776 l 0 797 z "},"Ί":{"ha":768,"x_min":0,"x_max":724,"o":"m 724 0 l 272 0 l 272 119 l 393 175 l 393 817 l 272 872 l 272 992 l 724 992 l 724 872 l 603 817 l 603 175 l 724 119 l 724 0 m 0 797 q 22 874 11 831 q 42 961 32 917 q 56 1040 51 1006 l 247 1040 l 247 1024 q 193 906 225 969 q 121 776 161 842 l 0 776 l 0 797 z "},"Ό":{"ha":1190,"x_min":0,"x_max":1110,"o":"m 1110 497 q 1059 228 1110 343 q 904 50 1008 114 q 638 -14 800 -14 q 372 50 476 -14 q 216 229 267 114 q 165 499 165 344 q 216 767 165 653 q 372 944 267 881 q 639 1007 476 1007 q 904 944 800 1007 q 1059 766 1008 881 q 1110 497 1110 651 m 386 497 q 446 252 386 342 q 638 163 506 163 q 831 252 772 163 q 889 497 889 342 q 831 743 889 654 q 639 832 772 832 q 446 743 506 832 q 386 497 386 654 m 0 797 q 22 874 11 831 q 42 961 32 917 q 56 1040 51 1006 l 247 1040 l 247 1024 q 193 906 225 969 q 121 776 161 842 l 0 776 l 0 797 z "},"Ύ":{"ha":1128,"x_min":0,"x_max":1128,"o":"m 694 583 l 901 992 l 1128 992 l 799 386 l 799 0 l 590 0 l 590 379 l 261 992 l 489 992 l 694 583 m 0 797 q 22 874 11 831 q 42 961 32 917 q 56 1040 51 1006 l 247 1040 l 247 1024 q 193 906 225 969 q 121 776 161 842 l 0 776 l 0 797 z "},"Ώ":{"ha":1201,"x_min":0,"x_max":1164,"o":"m 656 832 q 469 760 538 832 q 400 547 400 688 q 439 337 400 428 q 581 189 478 246 l 581 0 l 147 0 l 147 176 l 399 176 q 242 344 301 236 q 183 592 183 453 q 241 811 183 718 q 405 956 299 904 q 656 1007 511 1007 q 907 956 801 1007 q 1070 810 1013 904 q 1128 590 1128 717 q 1069 344 1128 451 q 910 176 1010 238 l 1164 176 l 1164 0 l 728 0 l 728 189 q 872 337 832 243 q 911 549 911 431 q 843 760 911 688 q 656 832 775 832 m 0 797 q 22 874 11 831 q 42 961 32 917 q 56 1040 51 1006 l 247 1040 l 247 1024 q 193 906 225 969 q 121 776 161 842 l 0 776 l 0 797 z "},"ΐ":{"ha":565,"x_min":-40,"x_max":536,"o":"m 315 238 q 340 173 315 194 q 406 151 365 151 q 472 158 440 151 q 536 175 504 165 l 536 21 q 459 -3 506 7 q 358 -14 413 -14 q 231 8 288 -14 q 142 85 175 31 q 108 238 108 140 l 108 758 l 315 758 l 315 238 m 383 1150 q 329 1050 363 1104 q 257 942 296 996 l 164 942 l 164 960 q 188 1060 175 1000 q 206 1164 200 1119 l 383 1164 l 383 1150 m 47 1044 q 111 1023 86 1044 q 136 953 136 1001 q 111 885 136 907 q 47 863 86 863 q -16 885 8 863 q -40 953 -40 907 q -16 1023 -40 1001 q 47 1044 8 1044 m 419 1044 q 483 1023 458 1044 q 508 953 508 1001 q 483 885 508 907 q 419 863 458 863 q 355 885 379 863 q 331 953 331 907 q 355 1023 331 1001 q 419 1044 379 1044 z "},"Α":{"ha":958,"x_min":0,"x_max":958,"o":"m 732 0 l 660 236 l 299 236 l 226 0 l 0 0 l 350 996 l 607 996 l 958 0 l 732 0 m 538 643 q 519 703 531 667 q 497 776 508 739 q 479 842 486 814 q 460 773 472 814 q 438 695 449 732 q 422 643 428 658 l 351 413 l 610 413 l 538 643 z "},"Β":{"ha":933,"x_min":125,"x_max":860,"o":"m 433 992 q 733 936 632 992 q 835 740 835 881 q 795 597 835 656 q 682 526 756 539 l 682 519 q 772 485 732 510 q 836 413 813 460 q 860 288 860 365 q 763 76 860 153 q 496 0 665 0 l 125 0 l 125 992 l 433 992 m 457 599 q 584 628 549 599 q 619 713 619 657 q 578 794 619 769 q 446 819 536 819 l 335 819 l 335 599 l 457 599 m 335 432 l 335 174 l 472 174 q 604 210 567 174 q 642 308 642 247 q 603 398 642 364 q 465 432 565 432 l 335 432 z "},"Γ":{"ha":779,"x_min":125,"x_max":751,"o":"m 751 992 l 751 818 l 335 818 l 335 0 l 125 0 l 125 992 l 751 992 z "},"Δ":{"ha":914,"x_min":39,"x_max":875,"o":"m 576 996 l 875 119 l 875 0 l 39 0 l 39 121 l 339 996 l 576 996 m 490 696 q 479 733 488 706 q 465 788 471 761 q 457 824 458 815 q 450 788 457 815 q 435 733 443 761 q 424 694 428 706 l 253 175 l 661 175 l 490 696 z "},"Ε":{"ha":778,"x_min":125,"x_max":696,"o":"m 696 0 l 125 0 l 125 992 l 696 992 l 696 819 l 335 819 l 335 601 l 671 601 l 671 429 l 335 429 l 335 174 l 696 174 l 696 0 z "},"Ζ":{"ha":804,"x_min":33,"x_max":771,"o":"m 771 0 l 33 0 l 33 136 l 508 818 l 46 818 l 46 992 l 758 992 l 758 856 l 283 174 l 771 174 l 771 0 z "},"Η":{"ha":1063,"x_min":125,"x_max":938,"o":"m 938 0 l 728 0 l 728 428 l 335 428 l 335 0 l 125 0 l 125 992 l 335 992 l 335 603 l 728 603 l 728 992 l 938 992 l 938 0 z "},"Θ":{"ha":1106,"x_min":81,"x_max":1025,"o":"m 1025 497 q 974 228 1025 343 q 819 50 924 114 q 553 -14 715 -14 q 287 50 392 -14 q 131 229 182 114 q 81 499 81 344 q 131 767 81 653 q 287 944 182 881 q 554 1007 392 1007 q 819 944 715 1007 q 974 766 924 881 q 1025 497 1025 651 m 301 497 q 361 252 301 342 q 553 163 421 163 q 746 252 688 163 q 804 497 804 342 q 746 743 804 654 q 554 832 688 832 q 361 743 421 832 q 301 497 301 654 m 729 590 l 729 418 l 376 418 l 376 590 l 729 590 z "},"Ι":{"ha":540,"x_min":44,"x_max":496,"o":"m 496 0 l 44 0 l 44 119 l 165 175 l 165 817 l 44 872 l 44 992 l 496 992 l 496 872 l 375 817 l 375 175 l 496 119 l 496 0 z "},"Κ":{"ha":922,"x_min":125,"x_max":922,"o":"m 922 0 l 683 0 l 424 418 l 335 354 l 335 0 l 125 0 l 125 992 l 335 992 l 335 538 q 376 596 356 567 q 418 654 397 625 l 686 992 l 919 992 l 574 553 l 922 0 z "},"Λ":{"ha":903,"x_min":0,"x_max":903,"o":"m 565 992 l 903 0 l 690 0 l 506 596 q 489 658 500 615 q 467 744 478 700 q 451 815 457 789 q 437 743 447 788 q 417 657 426 699 q 400 594 407 615 l 213 0 l 0 0 l 336 992 l 565 992 z "},"Μ":{"ha":1310,"x_min":125,"x_max":1185,"o":"m 544 0 l 306 778 l 300 778 q 304 694 301 750 q 310 576 307 639 q 313 461 313 513 l 313 0 l 125 0 l 125 992 l 411 992 l 646 233 l 650 233 l 899 992 l 1185 992 l 1185 0 l 989 0 l 989 469 q 991 578 989 517 q 995 694 993 639 q 999 776 997 749 l 993 776 l 738 0 l 544 0 z "},"Ν":{"ha":1129,"x_min":125,"x_max":1004,"o":"m 1004 0 l 738 0 l 306 750 l 300 750 q 306 608 303 679 q 313 467 310 538 l 313 0 l 125 0 l 125 992 l 390 992 l 821 249 l 825 249 q 821 386 824 318 q 815 522 818 454 l 815 992 l 1004 992 l 1004 0 z "},"Ξ":{"ha":793,"x_min":56,"x_max":738,"o":"m 83 819 l 83 992 l 710 992 l 710 819 l 83 819 m 139 429 l 139 601 l 654 601 l 654 429 l 139 429 m 56 0 l 56 174 l 738 174 l 738 0 l 56 0 z "},"Ο":{"ha":1106,"x_min":81,"x_max":1025,"o":"m 1025 497 q 974 228 1025 343 q 819 50 924 114 q 553 -14 715 -14 q 287 50 392 -14 q 131 229 182 114 q 81 499 81 344 q 131 767 81 653 q 287 944 182 881 q 554 1007 392 1007 q 819 944 715 1007 q 974 766 924 881 q 1025 497 1025 651 m 301 497 q 361 252 301 342 q 553 163 421 163 q 746 252 688 163 q 804 497 804 342 q 746 743 804 654 q 554 832 688 832 q 361 743 421 832 q 301 497 301 654 z "},"Π":{"ha":1035,"x_min":125,"x_max":910,"o":"m 125 0 l 125 992 l 910 992 l 910 0 l 700 0 l 700 817 l 335 817 l 335 0 l 125 0 z "},"Ρ":{"ha":872,"x_min":125,"x_max":810,"o":"m 442 992 q 722 909 633 992 q 810 682 810 826 q 774 520 810 596 q 653 399 738 444 q 425 353 569 353 l 335 353 l 335 0 l 125 0 l 125 992 l 442 992 m 431 819 l 335 819 l 335 525 l 404 525 q 545 560 493 525 q 597 675 597 596 q 431 819 597 819 z "},"Σ":{"ha":824,"x_min":53,"x_max":776,"o":"m 53 0 l 53 165 l 372 519 l 61 831 l 61 992 l 736 992 l 736 819 l 438 819 q 361 821 399 819 q 285 826 324 822 l 593 521 l 269 165 q 461 174 365 174 l 776 174 l 776 0 l 53 0 z "},"Τ":{"ha":804,"x_min":28,"x_max":776,"o":"m 507 0 l 297 0 l 297 817 l 28 817 l 28 992 l 776 992 l 776 817 l 507 817 l 507 0 z "},"Υ":{"ha":867,"x_min":0,"x_max":867,"o":"m 433 583 l 640 992 l 867 992 l 538 386 l 538 0 l 329 0 l 329 379 l 0 992 l 228 992 l 433 583 z "},"Φ":{"ha":1194,"x_min":63,"x_max":1132,"o":"m 692 883 q 951 827 854 879 q 1090 693 1047 775 q 1132 514 1132 611 q 1110 386 1132 451 q 1038 266 1089 321 q 903 176 988 211 q 692 139 818 142 l 692 -14 l 503 -14 l 503 139 q 290 176 375 142 q 154 267 204 211 q 83 387 104 322 q 63 514 63 451 q 105 693 63 611 q 244 827 147 775 q 503 883 340 879 l 503 1006 l 692 1006 l 692 883 m 503 719 q 314 658 368 714 q 260 515 260 601 q 318 365 260 422 q 503 301 376 307 l 503 719 m 692 301 q 877 365 819 307 q 935 515 935 422 q 881 658 935 601 q 692 719 828 714 l 692 301 z "},"Χ":{"ha":926,"x_min":0,"x_max":926,"o":"m 926 0 l 686 0 l 456 375 l 225 0 l 0 0 l 329 511 l 21 992 l 253 992 l 467 635 l 676 992 l 903 992 l 592 500 l 926 0 z "},"Ψ":{"ha":1217,"x_min":74,"x_max":1143,"o":"m 1143 667 q 1102 462 1143 544 q 965 338 1061 379 q 703 296 868 296 l 703 0 l 514 0 l 514 296 q 249 338 344 296 q 113 463 153 381 q 74 664 74 546 l 74 992 l 271 992 l 271 667 q 297 542 271 586 q 378 482 324 499 q 514 465 432 465 l 514 992 l 703 992 l 703 465 q 833 481 778 465 q 917 540 888 497 q 946 664 946 583 l 946 992 l 1143 992 l 1143 667 z "},"Ω":{"ha":1092,"x_min":38,"x_max":1054,"o":"m 546 832 q 359 760 428 832 q 290 547 290 688 q 329 337 290 428 q 471 189 368 246 l 471 0 l 38 0 l 38 176 l 289 176 q 133 344 192 236 q 74 592 74 453 q 131 811 74 718 q 295 956 189 904 q 546 1007 401 1007 q 797 956 692 1007 q 960 810 903 904 q 1018 590 1018 717 q 959 344 1018 451 q 800 176 900 238 l 1054 176 l 1054 0 l 618 0 l 618 189 q 762 337 722 243 q 801 549 801 431 q 733 760 801 688 q 546 832 665 832 z "},"Ϊ":{"ha":540,"x_min":38,"x_max":503,"o":"m 496 0 l 44 0 l 44 119 l 165 175 l 165 817 l 44 872 l 44 992 l 496 992 l 496 872 l 375 817 l 375 175 l 496 119 l 496 0 m 38 1186 q 65 1256 38 1235 q 132 1278 93 1278 q 199 1256 171 1278 q 228 1186 228 1235 q 199 1118 228 1140 q 132 1096 171 1096 q 65 1118 93 1096 q 38 1186 38 1140 m 311 1186 q 339 1256 311 1235 q 407 1278 367 1278 q 474 1256 446 1278 q 503 1186 503 1235 q 474 1118 503 1140 q 407 1096 446 1096 q 339 1118 367 1096 q 311 1186 311 1140 z "},"Ϋ":{"ha":867,"x_min":0,"x_max":867,"o":"m 433 583 l 640 992 l 867 992 l 538 386 l 538 0 l 329 0 l 329 379 l 0 992 l 228 992 l 433 583 m 200 1186 q 228 1256 200 1235 q 294 1278 256 1278 q 362 1256 333 1278 q 390 1186 390 1235 q 362 1118 390 1140 q 294 1096 333 1096 q 228 1118 256 1096 q 200 1186 200 1140 m 474 1186 q 501 1256 474 1235 q 569 1278 529 1278 q 637 1256 608 1278 q 665 1186 665 1235 q 637 1118 665 1140 q 569 1096 608 1096 q 501 1118 529 1096 q 474 1186 474 1140 z "},"ά":{"ha":899,"x_min":63,"x_max":868,"o":"m 360 -14 q 144 85 226 -14 q 63 376 63 185 q 147 671 63 571 q 375 771 232 771 q 507 742 456 771 q 593 657 558 714 l 603 657 q 621 709 610 681 q 649 758 632 738 l 819 758 q 788 629 804 714 q 771 451 771 544 l 771 240 q 788 176 771 193 q 828 160 806 160 q 850 163 838 160 q 868 167 863 165 l 868 4 q 828 -8 858 -1 q 775 -14 799 -14 q 663 11 706 -14 q 596 100 619 36 l 582 100 q 499 19 551 53 q 360 -14 446 -14 m 422 151 q 542 203 508 151 q 578 369 576 256 l 578 378 q 544 547 578 489 q 419 606 510 606 q 310 547 346 606 q 274 375 274 488 q 422 151 274 151 m 368 863 q 390 939 379 896 q 410 1026 400 982 q 424 1106 419 1071 l 615 1106 l 615 1089 q 561 971 593 1035 q 489 842 529 907 l 368 842 l 368 863 z "},"έ":{"ha":771,"x_min":53,"x_max":719,"o":"m 569 467 l 569 324 l 456 324 q 303 300 349 324 q 257 231 257 276 q 299 169 257 193 q 439 146 340 146 q 597 164 524 146 q 718 204 671 182 l 718 39 q 592 1 667 15 q 424 -14 517 -14 q 140 47 228 -14 q 53 210 53 108 q 103 335 53 293 q 238 392 154 376 l 238 399 q 129 460 165 415 q 93 574 93 506 q 138 690 93 646 q 257 753 182 733 q 424 772 332 772 q 582 757 503 772 q 719 715 661 742 l 656 565 q 552 603 606 586 q 429 619 499 619 q 278 549 278 619 q 323 485 278 504 q 465 467 368 467 l 569 467 m 360 863 q 381 939 371 896 q 401 1026 392 982 q 415 1106 411 1071 l 607 1106 l 607 1089 q 553 971 585 1035 q 481 842 521 907 l 360 842 l 360 863 z "},"ή":{"ha":913,"x_min":108,"x_max":808,"o":"m 539 772 q 735 706 661 772 q 808 494 808 640 l 808 -333 l 601 -333 l 601 443 q 572 566 601 525 q 479 607 543 607 q 350 542 385 607 q 315 357 315 478 l 315 0 l 108 0 l 108 758 l 267 758 l 294 661 l 306 661 q 405 746 342 719 q 539 772 468 772 m 396 863 q 417 939 407 896 q 438 1026 428 982 q 451 1106 447 1071 l 643 1106 l 643 1089 q 589 971 621 1035 q 517 842 557 907 l 396 842 l 396 863 z "},"ί":{"ha":565,"x_min":108,"x_max":536,"o":"m 315 238 q 340 173 315 194 q 406 151 365 151 q 472 158 440 151 q 536 175 504 165 l 536 21 q 459 -3 506 7 q 358 -14 413 -14 q 231 8 288 -14 q 142 85 175 31 q 108 238 108 140 l 108 758 l 315 758 l 315 238 m 147 863 q 169 939 158 896 q 189 1026 179 982 q 203 1106 199 1071 l 394 1106 l 394 1089 q 340 971 372 1035 q 268 842 308 907 l 147 842 l 147 863 z "},"ΰ":{"ha":896,"x_min":97,"x_max":822,"o":"m 446 -12 q 234 35 310 -12 q 128 165 158 83 q 97 346 97 246 l 97 758 l 304 758 l 304 339 q 340 197 304 240 q 453 153 376 153 q 575 213 535 153 q 615 417 615 272 q 602 587 615 507 q 567 758 589 667 l 775 758 q 810 588 799 668 q 822 411 822 508 q 727 90 822 193 q 446 -12 632 -12 m 599 1150 q 544 1050 578 1104 q 472 942 511 996 l 379 942 l 379 960 q 403 1060 390 1000 q 421 1164 415 1119 l 599 1164 l 599 1150 m 263 1044 q 326 1023 301 1044 q 351 953 351 1001 q 326 885 351 907 q 263 863 301 863 q 199 885 224 863 q 175 953 175 907 q 199 1023 175 1001 q 263 1044 224 1044 m 635 1044 q 699 1023 674 1044 q 724 953 724 1001 q 699 885 724 907 q 635 863 674 863 q 570 885 594 863 q 546 953 546 907 q 570 1023 546 1001 q 635 1044 594 1044 z "},"α":{"ha":899,"x_min":63,"x_max":868,"o":"m 360 -14 q 144 85 226 -14 q 63 376 63 185 q 147 671 63 571 q 375 771 232 771 q 507 742 456 771 q 593 657 558 714 l 603 657 q 621 709 610 681 q 649 758 632 738 l 819 758 q 788 629 804 714 q 771 451 771 544 l 771 240 q 788 176 771 193 q 828 160 806 160 q 850 163 838 160 q 868 167 863 165 l 868 4 q 828 -8 858 -1 q 775 -14 799 -14 q 663 11 706 -14 q 596 100 619 36 l 582 100 q 499 19 551 53 q 360 -14 446 -14 m 422 151 q 542 203 508 151 q 578 369 576 256 l 578 378 q 544 547 578 489 q 419 606 510 606 q 310 547 346 606 q 274 375 274 488 q 422 151 274 151 z "},"β":{"ha":917,"x_min":108,"x_max":868,"o":"m 471 1063 q 648 1033 571 1063 q 769 944 725 1003 q 814 796 814 885 q 762 637 814 696 q 615 563 710 578 l 615 558 q 801 482 733 544 q 868 293 868 419 q 778 67 868 147 q 536 -14 688 -14 q 315 29 401 -14 l 315 -333 l 108 -333 l 108 743 q 156 926 108 856 q 286 1029 204 996 q 471 1063 368 1063 m 465 901 q 390 886 425 901 q 335 833 356 871 q 315 724 315 794 l 315 199 q 397 164 350 176 q 483 151 444 151 q 612 194 569 151 q 654 311 654 236 q 603 431 654 397 q 478 464 551 464 l 429 464 l 429 628 l 465 628 q 573 667 539 628 q 607 771 607 707 q 568 869 607 836 q 465 901 529 901 z "},"γ":{"ha":789,"x_min":1,"x_max":789,"o":"m 508 13 q 472 -106 488 -43 q 449 -227 457 -168 q 442 -333 442 -286 l 222 -333 q 231 -236 222 -294 q 256 -113 240 -178 q 290 8 271 -49 l 1 758 l 217 758 l 328 424 q 355 337 340 388 q 381 240 369 286 q 396 168 392 193 l 400 168 q 412 230 403 189 q 434 320 421 271 q 463 414 447 369 l 574 758 l 789 758 l 508 13 z "},"δ":{"ha":860,"x_min":63,"x_max":797,"o":"m 476 1063 q 643 1042 571 1063 q 789 988 715 1022 l 707 842 q 586 891 644 872 q 468 910 528 910 q 390 890 413 910 q 368 842 368 869 q 415 770 368 806 q 556 686 463 735 q 739 539 681 622 q 797 347 797 456 q 696 74 797 161 q 426 -14 594 -14 q 239 22 321 -14 q 110 128 157 58 q 63 297 63 199 q 98 458 63 393 q 194 562 133 522 q 329 622 254 601 q 217 720 265 663 q 168 854 168 778 q 253 1009 168 956 q 476 1063 338 1063 m 450 538 q 372 501 413 528 q 303 426 331 474 q 275 306 275 379 q 315 197 275 240 q 428 153 356 153 q 544 199 503 153 q 586 333 586 246 q 549 455 586 406 q 450 538 511 504 z "},"ε":{"ha":771,"x_min":53,"x_max":719,"o":"m 569 467 l 569 324 l 456 324 q 303 300 349 324 q 257 231 257 276 q 299 169 257 193 q 439 146 340 146 q 597 164 524 146 q 718 204 671 182 l 718 39 q 592 1 667 15 q 424 -14 517 -14 q 140 47 228 -14 q 53 210 53 108 q 103 335 53 293 q 238 392 154 376 l 238 399 q 129 460 165 415 q 93 574 93 506 q 138 690 93 646 q 257 753 182 733 q 424 772 332 772 q 582 757 503 772 q 719 715 661 742 l 656 565 q 552 603 606 586 q 429 619 499 619 q 278 549 278 619 q 323 485 278 504 q 465 467 368 467 l 569 467 z "},"ζ":{"ha":692,"x_min":63,"x_max":685,"o":"m 685 -25 q 656 -147 685 -85 q 592 -257 626 -208 l 383 -257 q 453 -148 424 -204 q 483 -57 483 -92 q 462 -24 483 -39 q 361 6 440 -8 q 142 105 222 31 q 63 317 63 179 q 116 540 63 435 q 257 738 169 644 q 449 915 344 831 q 403 908 432 911 q 345 905 374 906 q 299 904 317 904 l 101 904 l 101 1056 l 681 1056 l 681 932 q 462 726 543 818 q 340 560 381 635 q 288 428 300 486 q 275 326 275 371 q 299 226 275 260 q 365 178 322 193 q 465 151 407 164 q 637 82 589 126 q 685 -25 685 38 z "},"η":{"ha":913,"x_min":108,"x_max":808,"o":"m 539 772 q 735 706 661 772 q 808 494 808 640 l 808 -333 l 601 -333 l 601 443 q 572 566 601 525 q 479 607 543 607 q 350 542 385 607 q 315 357 315 478 l 315 0 l 108 0 l 108 758 l 267 758 l 294 661 l 306 661 q 405 746 342 719 q 539 772 468 772 z "},"θ":{"ha":858,"x_min":63,"x_max":796,"o":"m 796 525 q 759 236 796 357 q 642 51 722 115 q 428 -14 561 -14 q 153 129 243 -14 q 63 525 63 272 q 99 815 63 694 q 215 999 135 935 q 428 1063 296 1063 q 705 922 614 1063 q 796 525 796 781 m 429 913 q 316 835 351 913 q 275 606 281 758 l 583 606 q 542 835 578 758 q 429 913 507 913 m 428 136 q 544 215 507 136 q 583 451 581 293 l 274 451 q 312 216 276 296 q 428 136 347 136 z "},"ι":{"ha":565,"x_min":108,"x_max":536,"o":"m 315 238 q 340 173 315 194 q 406 151 365 151 q 472 158 440 151 q 536 175 504 165 l 536 21 q 459 -3 506 7 q 358 -14 413 -14 q 231 8 288 -14 q 142 85 175 31 q 108 238 108 140 l 108 758 l 315 758 l 315 238 z "},"κ":{"ha":861,"x_min":108,"x_max":861,"o":"m 843 758 l 544 411 l 861 0 l 625 0 l 413 289 l 315 228 l 315 0 l 108 0 l 108 758 l 315 758 l 315 560 q 314 476 314 518 q 311 394 314 435 l 314 394 q 361 452 338 424 q 410 510 385 481 l 622 758 l 843 758 z "},"λ":{"ha":854,"x_min":6,"x_max":847,"o":"m 6 0 l 326 717 l 303 779 q 240 871 274 851 q 151 890 207 890 q 115 888 133 890 q 82 882 96 885 l 82 1053 q 135 1060 101 1057 q 194 1064 169 1064 q 340 1035 283 1064 q 432 953 396 1007 q 496 821 468 899 l 686 297 q 744 185 718 211 q 800 160 771 160 q 847 167 819 160 l 847 7 q 792 -8 831 -1 q 728 -14 754 -14 q 599 28 643 -14 q 531 140 556 71 l 465 325 q 436 412 450 369 q 415 485 422 454 l 411 485 q 388 406 401 449 q 360 329 374 363 l 219 0 l 6 0 z "},"μ":{"ha":917,"x_min":108,"x_max":808,"o":"m 808 758 l 808 0 l 651 0 l 622 101 l 613 101 q 544 15 585 44 q 443 -14 503 -14 q 313 47 358 -14 l 308 47 q 313 3 311 33 q 315 -59 314 -26 q 315 -117 315 -92 l 315 -333 l 108 -333 l 108 758 l 315 758 l 315 315 q 439 151 315 151 q 567 216 532 151 q 601 401 601 281 l 601 758 l 808 758 z "},"ν":{"ha":826,"x_min":4,"x_max":772,"o":"m 4 758 l 217 758 l 364 338 q 389 259 375 307 q 411 183 403 211 l 417 183 q 530 424 496 288 q 564 758 564 561 l 772 758 q 747 480 772 608 q 656 234 721 351 q 475 0 592 117 l 289 0 l 4 758 z "},"ξ":{"ha":692,"x_min":63,"x_max":685,"o":"m 63 297 q 116 452 63 389 q 254 549 169 515 l 254 556 q 144 615 183 572 q 106 728 106 658 q 153 845 106 801 q 301 913 200 889 q 231 909 269 911 q 160 906 192 907 q 117 904 129 904 l 101 904 l 101 1056 l 647 1056 l 647 913 l 596 913 q 456 894 521 913 q 351 837 392 875 q 311 740 311 799 q 350 651 311 682 q 499 621 389 621 l 611 621 l 611 478 l 497 478 q 327 436 379 478 q 275 311 275 394 q 299 222 275 251 q 365 178 322 192 q 465 151 407 164 q 637 82 589 126 q 685 -25 685 38 q 656 -147 685 -85 q 592 -257 626 -208 l 383 -257 q 453 -148 424 -204 q 483 -57 483 -92 q 462 -24 483 -39 q 361 6 440 -8 q 142 101 222 31 q 63 297 63 172 z "},"ο":{"ha":860,"x_min":63,"x_max":797,"o":"m 797 381 q 698 89 797 192 q 428 -14 599 -14 q 240 32 322 -14 q 110 166 157 78 q 63 381 63 254 q 161 671 63 569 q 432 772 260 772 q 621 726 539 772 q 750 594 703 681 q 797 381 797 507 m 274 381 q 310 210 274 268 q 431 153 347 153 q 549 210 513 153 q 586 381 586 268 q 549 549 586 493 q 429 606 513 606 q 310 549 347 606 q 274 381 274 493 z "},"π":{"ha":1026,"x_min":17,"x_max":978,"o":"m 882 149 q 928 156 906 149 q 969 172 950 163 l 969 24 q 904 -2 946 10 q 819 -14 863 -14 q 667 39 724 -14 q 611 208 611 92 l 611 600 l 382 600 l 382 0 l 175 0 l 175 600 l 17 600 l 17 689 l 138 758 l 978 758 l 978 600 l 818 600 l 818 217 q 837 165 818 182 q 882 149 856 149 z "},"ρ":{"ha":858,"x_min":82,"x_max":796,"o":"m 796 379 q 711 88 796 190 q 482 -14 626 -14 q 379 1 429 -14 q 292 39 329 17 l 279 39 q 286 -46 282 7 q 290 -143 290 -99 l 290 -333 l 82 -333 l 82 381 q 176 669 82 567 q 443 772 271 772 q 625 726 546 772 q 750 592 704 679 q 796 379 796 504 m 439 606 q 327 556 364 606 q 290 390 290 506 l 290 211 q 359 167 319 182 q 439 153 399 153 q 550 206 517 153 q 583 379 583 258 q 550 553 583 500 q 439 606 517 606 z "},"ς":{"ha":692,"x_min":63,"x_max":685,"o":"m 442 772 q 683 718 568 772 l 624 561 q 526 593 572 581 q 436 606 479 606 q 313 539 351 606 q 274 340 274 472 q 297 245 274 278 q 365 197 321 213 q 465 168 408 181 q 637 96 589 142 q 685 -15 685 50 q 656 -142 685 -78 q 592 -257 626 -207 l 383 -257 q 453 -141 424 -200 q 483 -46 483 -82 q 462 -10 483 -26 q 361 21 440 6 q 142 126 222 49 q 63 335 63 203 q 110 597 63 501 q 242 733 157 693 q 442 772 328 772 z "},"σ":{"ha":907,"x_min":63,"x_max":879,"o":"m 808 322 q 765 151 808 228 q 639 31 722 75 q 433 -14 556 -14 q 239 30 322 -14 q 109 159 156 74 q 63 369 63 244 q 114 595 63 510 q 262 720 165 681 q 490 760 358 760 l 879 760 l 879 608 l 686 608 q 772 486 736 556 q 808 322 808 417 m 275 369 q 313 213 275 272 q 436 153 351 153 q 558 208 521 153 q 596 354 596 264 q 574 497 596 438 q 510 608 551 557 l 476 608 q 323 556 371 608 q 275 369 275 504 z "},"τ":{"ha":747,"x_min":28,"x_max":694,"o":"m 694 758 l 694 603 l 425 603 l 425 238 q 450 173 425 194 q 515 151 475 151 q 582 158 550 151 q 646 175 614 165 l 646 21 q 569 -3 615 7 q 468 -14 522 -14 q 341 8 397 -14 q 251 85 285 31 q 218 238 218 140 l 218 603 l 28 603 l 28 689 l 147 758 l 694 758 z "},"υ":{"ha":896,"x_min":97,"x_max":822,"o":"m 446 -12 q 234 35 310 -12 q 128 165 158 83 q 97 346 97 246 l 97 758 l 304 758 l 304 339 q 340 197 304 240 q 453 153 376 153 q 575 213 535 153 q 615 417 615 272 q 602 587 615 507 q 567 758 589 667 l 775 758 q 810 588 799 668 q 822 411 822 508 q 727 90 822 193 q 446 -12 632 -12 z "},"φ":{"ha":1100,"x_min":63,"x_max":1038,"o":"m 368 676 q 286 533 315 604 q 257 371 257 463 q 310 214 257 264 q 440 149 364 164 l 440 499 q 517 701 440 632 q 711 769 593 769 q 950 671 863 769 q 1038 401 1038 572 q 981 185 1038 272 q 831 50 924 97 q 632 -8 739 3 l 632 -333 l 440 -333 l 440 -8 q 247 47 332 4 q 112 169 161 89 q 63 375 63 250 q 106 592 63 494 q 218 774 149 689 l 368 676 m 714 619 q 653 592 675 619 q 632 500 632 565 l 632 149 q 783 226 726 157 q 839 400 839 296 q 827 510 839 460 q 788 590 815 560 q 714 619 761 619 z "},"χ":{"ha":822,"x_min":-33,"x_max":831,"o":"m 163 768 q 269 748 229 768 q 335 685 308 728 q 383 574 361 642 l 433 424 l 622 758 l 831 758 l 522 242 l 654 -81 q 699 -143 674 -126 q 763 -160 724 -160 q 793 -158 778 -160 q 831 -151 808 -157 l 831 -312 q 772 -328 801 -322 q 699 -333 743 -333 q 555 -283 607 -333 q 471 -135 503 -233 l 400 86 l 188 -333 l -33 -333 l 307 267 l 217 506 q 172 576 199 558 q 114 594 146 594 q 80 592 100 594 q 36 582 60 589 l 36 747 q 96 762 65 756 q 163 768 126 768 z "},"ψ":{"ha":1163,"x_min":97,"x_max":1089,"o":"m 683 147 q 847 210 794 158 q 899 392 899 261 q 883 572 899 483 q 844 758 868 661 l 1036 758 q 1089 390 1089 568 q 1035 162 1089 249 q 889 35 981 75 q 683 -12 797 -6 l 683 -333 l 492 -333 l 492 -12 q 288 31 376 -8 q 148 153 199 69 q 97 376 97 238 l 97 758 l 294 758 l 294 371 q 338 203 294 253 q 492 146 382 154 l 492 1054 l 683 1054 l 683 147 z "},"ω":{"ha":1199,"x_min":74,"x_max":1125,"o":"m 1049 758 q 1107 569 1089 658 q 1125 368 1125 479 q 1091 170 1125 257 q 989 35 1057 83 q 819 -14 921 -14 q 680 25 731 -14 q 603 129 629 64 l 596 129 q 519 25 569 64 q 379 -14 468 -14 q 210 35 278 -14 q 108 170 142 83 q 74 368 74 257 q 92 569 74 479 q 150 758 111 658 l 349 758 q 285 572 306 667 q 264 375 264 478 q 295 210 264 274 q 396 147 326 147 q 481 192 458 147 q 504 317 504 236 l 504 517 l 694 517 l 694 317 q 717 192 694 236 q 803 147 740 147 q 903 210 872 147 q 935 372 935 274 q 915 571 935 475 q 850 758 894 667 l 1049 758 z "},"ϊ":{"ha":565,"x_min":-10,"x_max":536,"o":"m 315 238 q 340 173 315 194 q 406 151 365 151 q 472 158 440 151 q 536 175 504 165 l 536 21 q 459 -3 506 7 q 358 -14 413 -14 q 231 8 288 -14 q 142 85 175 31 q 108 238 108 140 l 108 758 l 315 758 l 315 238 m -10 953 q 18 1023 -10 1001 q 85 1044 46 1044 q 152 1023 124 1044 q 181 953 181 1001 q 152 885 181 907 q 85 863 124 863 q 18 885 46 863 q -10 953 -10 907 m 264 953 q 292 1023 264 1001 q 360 1044 319 1044 q 427 1023 399 1044 q 456 953 456 1001 q 427 885 456 907 q 360 863 399 863 q 292 885 319 863 q 264 953 264 907 z "},"ϋ":{"ha":896,"x_min":97,"x_max":822,"o":"m 446 -12 q 234 35 310 -12 q 128 165 158 83 q 97 346 97 246 l 97 758 l 304 758 l 304 339 q 340 197 304 240 q 453 153 376 153 q 575 213 535 153 q 615 417 615 272 q 602 587 615 507 q 567 758 589 667 l 775 758 q 810 588 799 668 q 822 411 822 508 q 727 90 822 193 q 446 -12 632 -12 m 206 953 q 233 1023 206 1001 q 300 1044 261 1044 q 367 1023 339 1044 q 396 953 396 1001 q 367 885 396 907 q 300 863 339 863 q 233 885 261 863 q 206 953 206 907 m 479 953 q 507 1023 479 1001 q 575 1044 535 1044 q 642 1023 614 1044 q 671 953 671 1001 q 642 885 671 907 q 575 863 614 863 q 507 885 535 863 q 479 953 479 907 z "},"ό":{"ha":860,"x_min":63,"x_max":797,"o":"m 797 381 q 698 89 797 192 q 428 -14 599 -14 q 240 32 322 -14 q 110 166 157 78 q 63 381 63 254 q 161 671 63 569 q 432 772 260 772 q 621 726 539 772 q 750 594 703 681 q 797 381 797 507 m 274 381 q 310 210 274 268 q 431 153 347 153 q 549 210 513 153 q 586 381 586 268 q 549 549 586 493 q 429 606 513 606 q 310 549 347 606 q 274 381 274 493 m 354 863 q 376 939 365 896 q 396 1026 386 982 q 410 1106 406 1071 l 601 1106 l 601 1089 q 547 971 579 1035 q 475 842 515 907 l 354 842 l 354 863 z "},"ύ":{"ha":896,"x_min":97,"x_max":822,"o":"m 446 -12 q 234 35 310 -12 q 128 165 158 83 q 97 346 97 246 l 97 758 l 304 758 l 304 339 q 340 197 304 240 q 453 153 376 153 q 575 213 535 153 q 615 417 615 272 q 602 587 615 507 q 567 758 589 667 l 775 758 q 810 588 799 668 q 822 411 822 508 q 727 90 822 193 q 446 -12 632 -12 m 363 863 q 384 939 374 896 q 404 1026 394 982 q 418 1106 414 1071 l 610 1106 l 610 1089 q 556 971 588 1035 q 483 842 524 907 l 363 842 l 363 863 z "},"ώ":{"ha":1199,"x_min":74,"x_max":1125,"o":"m 1049 758 q 1107 569 1089 658 q 1125 368 1125 479 q 1091 170 1125 257 q 989 35 1057 83 q 819 -14 921 -14 q 680 25 731 -14 q 603 129 629 64 l 596 129 q 519 25 569 64 q 379 -14 468 -14 q 210 35 278 -14 q 108 170 142 83 q 74 368 74 257 q 92 569 74 479 q 150 758 111 658 l 349 758 q 285 572 306 667 q 264 375 264 478 q 295 210 264 274 q 396 147 326 147 q 481 192 458 147 q 504 317 504 236 l 504 517 l 694 517 l 694 317 q 717 192 694 236 q 803 147 740 147 q 903 210 872 147 q 935 372 935 274 q 915 571 935 475 q 850 758 894 667 l 1049 758 m 529 863 q 551 939 540 896 q 571 1026 561 982 q 585 1106 581 1071 l 776 1106 l 776 1089 q 722 971 754 1035 q 650 842 690 907 l 529 842 l 529 863 z "},"Ё":{"ha":778,"x_min":125,"x_max":696,"o":"m 696 0 l 125 0 l 125 992 l 696 992 l 696 819 l 335 819 l 335 601 l 671 601 l 671 429 l 335 429 l 335 174 l 696 174 l 696 0 m 185 1186 q 213 1256 185 1235 q 279 1278 240 1278 q 347 1256 318 1278 q 375 1186 375 1235 q 347 1118 375 1140 q 279 1096 318 1096 q 213 1118 240 1096 q 185 1186 185 1140 m 458 1186 q 486 1256 458 1235 q 554 1278 514 1278 q 622 1256 593 1278 q 650 1186 650 1235 q 622 1118 650 1140 q 554 1096 593 1096 q 486 1118 514 1096 q 458 1186 458 1140 z "},"Ђ":{"ha":1118,"x_min":28,"x_max":1044,"o":"m 768 -12 q 698 -6 733 -12 q 631 14 663 0 l 631 188 q 692 166 663 174 q 747 158 722 158 q 790 165 771 158 q 822 193 810 171 q 835 263 835 215 l 835 349 q 807 433 835 410 q 714 457 779 457 l 486 457 l 486 0 l 276 0 l 276 817 l 28 817 l 28 992 l 783 992 l 783 817 l 486 817 l 486 632 l 722 632 q 962 562 879 632 q 1044 364 1044 492 l 1044 276 q 974 62 1044 136 q 768 -12 904 -12 z "},"Ѓ":{"ha":779,"x_min":125,"x_max":751,"o":"m 751 992 l 751 818 l 335 818 l 335 0 l 125 0 l 125 992 l 751 992 m 719 1283 q 668 1236 700 1264 q 599 1178 636 1208 q 527 1120 563 1147 q 465 1075 492 1093 l 328 1075 l 328 1093 q 380 1155 350 1119 q 439 1228 410 1190 q 488 1297 468 1267 l 719 1297 l 719 1283 z "},"Є":{"ha":940,"x_min":81,"x_max":892,"o":"m 571 831 q 384 767 458 831 q 303 586 310 704 l 732 586 l 732 414 l 301 414 q 378 227 310 293 q 574 161 447 161 q 708 175 640 161 q 854 214 775 189 l 854 38 q 715 -1 783 11 q 561 -14 647 -14 q 290 49 396 -14 q 132 227 183 113 q 81 494 81 342 q 138 760 81 644 q 308 940 196 875 q 581 1006 419 1006 q 744 987 669 1006 q 892 936 819 968 l 817 765 q 699 811 756 792 q 571 831 643 831 z "},"Ѕ":{"ha":765,"x_min":64,"x_max":710,"o":"m 710 275 q 615 65 710 143 q 344 -14 519 -14 q 64 46 188 -14 l 64 242 q 210 185 135 211 q 361 160 286 160 q 472 190 439 160 q 504 265 504 219 q 478 329 504 303 q 410 378 453 356 q 311 428 367 401 q 236 467 276 444 q 159 524 196 490 q 99 607 122 558 q 75 724 75 656 q 165 931 75 857 q 411 1006 256 1006 q 559 988 489 1006 q 706 936 629 969 l 638 772 q 515 815 569 800 q 404 831 461 831 q 313 803 344 831 q 281 731 281 775 q 328 647 281 678 q 468 572 375 617 q 598 497 544 536 q 681 406 651 458 q 710 275 710 353 z "},"І":{"ha":540,"x_min":44,"x_max":496,"o":"m 496 0 l 44 0 l 44 119 l 165 175 l 165 817 l 44 872 l 44 992 l 496 992 l 496 872 l 375 817 l 375 175 l 496 119 l 496 0 z "},"Ї":{"ha":540,"x_min":38,"x_max":503,"o":"m 496 0 l 44 0 l 44 119 l 165 175 l 165 817 l 44 872 l 44 992 l 496 992 l 496 872 l 375 817 l 375 175 l 496 119 l 496 0 m 38 1186 q 65 1256 38 1235 q 132 1278 93 1278 q 199 1256 171 1278 q 228 1186 228 1235 q 199 1118 228 1140 q 132 1096 171 1096 q 65 1118 93 1096 q 38 1186 38 1140 m 311 1186 q 339 1256 311 1235 q 407 1278 367 1278 q 474 1256 446 1278 q 503 1186 503 1235 q 474 1118 503 1140 q 407 1096 446 1096 q 339 1118 367 1096 q 311 1186 311 1140 z "},"Ј":{"ha":460,"x_min":-103,"x_max":335,"o":"m 21 -292 q -50 -287 -19 -292 q -103 -276 -81 -282 l -103 -101 q -56 -111 -81 -107 q -4 -115 -32 -115 q 62 -101 32 -115 q 108 -49 92 -87 q 125 63 125 -10 l 125 992 l 335 992 l 335 64 q 295 -142 335 -64 q 185 -256 256 -221 q 21 -292 114 -292 z "},"Љ":{"ha":1388,"x_min":11,"x_max":1325,"o":"m 111 -14 q 11 1 57 -14 l 11 174 q 47 164 29 168 q 85 160 64 160 q 147 202 125 160 q 190 361 168 244 q 214 500 199 406 q 248 722 229 594 q 283 992 267 849 l 864 992 l 864 611 l 942 611 q 1158 572 1074 611 q 1284 465 1243 533 q 1325 310 1325 397 q 1231 81 1325 163 q 931 0 1136 0 l 654 0 l 654 817 l 457 817 q 440 678 449 753 q 420 526 431 603 q 399 380 410 449 q 376 258 388 311 q 328 111 358 172 q 247 18 299 50 q 111 -14 194 -14 m 928 172 q 1063 203 1014 172 q 1113 310 1113 233 q 1059 414 1113 389 q 913 439 1006 439 l 864 439 l 864 172 l 928 172 z "},"Њ":{"ha":1392,"x_min":125,"x_max":1329,"o":"m 125 0 l 125 992 l 335 992 l 335 603 l 658 603 l 658 992 l 868 992 l 868 611 l 946 611 q 1163 572 1078 611 q 1288 465 1247 533 q 1329 310 1329 397 q 1235 81 1329 163 q 935 0 1140 0 l 658 0 l 658 428 l 335 428 l 335 0 l 125 0 m 932 172 q 1067 203 1018 172 q 1117 310 1117 233 q 1063 414 1117 389 q 917 439 1010 439 l 868 439 l 868 172 l 932 172 z "},"Ћ":{"ha":1118,"x_min":28,"x_max":1044,"o":"m 783 992 l 783 817 l 486 817 l 486 632 l 747 632 q 966 562 888 632 q 1044 364 1044 492 l 1044 0 l 835 0 l 835 349 q 811 433 835 410 q 733 457 788 457 l 486 457 l 486 0 l 276 0 l 276 817 l 28 817 l 28 992 l 783 992 z "},"Ќ":{"ha":933,"x_min":125,"x_max":933,"o":"m 933 0 l 694 0 l 335 503 l 335 0 l 125 0 l 125 992 l 335 992 l 335 511 l 690 992 l 914 992 l 553 515 l 933 0 m 774 1283 q 722 1236 754 1264 q 653 1178 690 1208 q 581 1120 617 1147 q 519 1075 546 1093 l 382 1075 l 382 1093 q 434 1155 404 1119 q 493 1228 464 1190 q 542 1297 522 1267 l 774 1297 l 774 1283 z "},"Ў":{"ha":921,"x_min":14,"x_max":921,"o":"m 804 1318 q 764 1191 797 1246 q 660 1106 731 1136 q 469 1075 589 1075 q 278 1105 347 1075 q 181 1189 210 1135 q 146 1318 151 1243 l 331 1318 q 369 1217 338 1242 q 474 1192 401 1192 q 572 1219 533 1192 q 617 1318 610 1246 l 804 1318 m 614 290 q 526 127 572 196 q 407 22 479 58 q 218 -14 335 -14 q 139 -8 182 -14 q 60 7 96 -3 l 60 188 q 133 168 93 174 q 208 163 174 163 q 308 197 278 163 q 357 279 339 231 l 14 992 l 236 992 l 421 563 q 447 503 431 542 q 472 439 464 465 l 479 439 q 503 504 488 464 q 532 575 519 544 l 704 992 l 921 992 l 614 290 z "},"Џ":{"ha":1035,"x_min":125,"x_max":910,"o":"m 910 0 l 619 0 l 619 -289 l 417 -289 l 417 0 l 125 0 l 125 992 l 335 992 l 335 175 l 700 175 l 700 992 l 910 992 l 910 0 z "},"А":{"ha":958,"x_min":0,"x_max":958,"o":"m 732 0 l 660 236 l 299 236 l 226 0 l 0 0 l 350 996 l 607 996 l 958 0 l 732 0 m 538 643 q 519 703 531 667 q 497 776 508 739 q 479 842 486 814 q 460 773 472 814 q 438 695 449 732 q 422 643 428 658 l 351 413 l 610 413 l 538 643 z "},"Б":{"ha":886,"x_min":125,"x_max":824,"o":"m 125 0 l 125 992 l 751 992 l 751 818 l 335 818 l 335 611 l 418 611 q 648 572 558 611 q 781 465 738 533 q 824 310 824 397 q 726 81 824 163 q 414 0 628 0 l 125 0 m 406 172 q 556 203 501 172 q 611 310 611 233 q 551 414 611 389 q 389 439 492 439 l 335 439 l 335 172 l 406 172 z "},"В":{"ha":933,"x_min":125,"x_max":860,"o":"m 433 992 q 733 936 632 992 q 835 740 835 881 q 795 597 835 656 q 682 526 756 539 l 682 519 q 772 485 732 510 q 836 413 813 460 q 860 288 860 365 q 763 76 860 153 q 496 0 665 0 l 125 0 l 125 992 l 433 992 m 457 599 q 584 628 549 599 q 619 713 619 657 q 578 794 619 769 q 446 819 536 819 l 335 819 l 335 599 l 457 599 m 335 432 l 335 174 l 472 174 q 604 210 567 174 q 642 308 642 247 q 603 398 642 364 q 465 432 565 432 l 335 432 z "},"Г":{"ha":779,"x_min":125,"x_max":751,"o":"m 751 992 l 751 818 l 335 818 l 335 0 l 125 0 l 125 992 l 751 992 z "},"Д":{"ha":1061,"x_min":7,"x_max":1033,"o":"m 901 992 l 901 175 l 1033 175 l 1033 -289 l 831 -289 l 831 0 l 210 0 l 210 -289 l 7 -289 l 7 175 l 83 175 q 182 398 136 279 q 265 663 228 517 q 324 992 301 808 l 901 992 m 490 817 q 451 609 478 721 q 386 385 424 497 q 304 175 349 274 l 692 175 l 692 817 l 490 817 z "},"Е":{"ha":778,"x_min":125,"x_max":696,"o":"m 696 0 l 125 0 l 125 992 l 696 992 l 696 819 l 335 819 l 335 601 l 671 601 l 671 429 l 335 429 l 335 174 l 696 174 l 696 0 z "},"Ж":{"ha":1310,"x_min":0,"x_max":1310,"o":"m 353 515 l 19 992 l 236 992 l 557 511 l 557 992 l 753 992 l 753 511 l 1074 992 l 1290 992 l 957 515 l 1310 0 l 1085 0 l 753 503 l 753 0 l 557 0 l 557 503 l 225 0 l 0 0 l 353 515 z "},"З":{"ha":900,"x_min":64,"x_max":840,"o":"m 810 760 q 739 599 810 660 q 558 522 668 538 l 558 518 q 767 442 694 504 q 840 282 840 381 q 734 69 840 151 q 422 -14 628 -14 q 223 0 310 -14 q 72 40 136 14 l 72 217 q 169 181 115 196 q 279 159 224 167 q 382 151 335 151 q 573 190 514 151 q 632 297 632 228 q 546 401 632 368 q 314 433 460 433 l 221 433 l 221 597 l 304 597 q 488 613 422 597 q 579 657 553 628 q 606 726 606 686 q 560 808 606 778 q 425 838 515 838 q 281 815 349 838 q 156 757 214 793 l 64 897 q 233 976 140 947 q 454 1006 326 1006 q 716 936 622 1006 q 810 760 810 867 z "},"И":{"ha":1143,"x_min":125,"x_max":1018,"o":"m 125 992 l 314 992 l 314 513 q 313 435 314 478 q 310 351 311 392 q 307 280 308 310 q 304 239 306 250 l 308 239 l 767 992 l 1018 992 l 1018 0 l 831 0 l 831 476 q 832 559 831 514 q 835 646 833 604 q 840 719 838 688 q 843 760 842 750 l 838 760 l 378 0 l 125 0 l 125 992 z "},"Й":{"ha":1143,"x_min":125,"x_max":1018,"o":"m 924 1318 q 883 1191 917 1246 q 779 1106 850 1136 q 589 1075 708 1075 q 398 1105 467 1075 q 300 1189 329 1135 q 265 1318 271 1243 l 450 1318 q 489 1217 457 1242 q 593 1192 521 1192 q 691 1219 653 1192 q 736 1318 729 1246 l 924 1318 m 125 992 l 314 992 l 314 513 q 313 435 314 478 q 310 351 311 392 q 307 280 308 310 q 304 239 306 250 l 308 239 l 767 992 l 1018 992 l 1018 0 l 831 0 l 831 476 q 832 559 831 514 q 835 646 833 604 q 840 719 838 688 q 843 760 842 750 l 838 760 l 378 0 l 125 0 l 125 992 z "},"К":{"ha":933,"x_min":125,"x_max":933,"o":"m 933 0 l 694 0 l 335 503 l 335 0 l 125 0 l 125 992 l 335 992 l 335 511 l 690 992 l 914 992 l 553 515 l 933 0 z "},"Л":{"ha":1035,"x_min":11,"x_max":910,"o":"m 910 0 l 700 0 l 700 817 l 457 817 q 440 678 449 753 q 420 526 431 603 q 399 380 410 449 q 376 258 388 311 q 328 111 358 172 q 247 18 299 50 q 111 -14 194 -14 q 11 1 57 -14 l 11 174 q 47 164 29 168 q 85 160 64 160 q 147 202 125 160 q 190 361 168 244 q 214 500 199 406 q 248 722 229 594 q 283 992 267 849 l 910 992 l 910 0 z "},"М":{"ha":1310,"x_min":125,"x_max":1185,"o":"m 544 0 l 306 778 l 300 778 q 304 694 301 750 q 310 576 307 639 q 313 461 313 513 l 313 0 l 125 0 l 125 992 l 411 992 l 646 233 l 650 233 l 899 992 l 1185 992 l 1185 0 l 989 0 l 989 469 q 991 578 989 517 q 995 694 993 639 q 999 776 997 749 l 993 776 l 738 0 l 544 0 z "},"Н":{"ha":1063,"x_min":125,"x_max":938,"o":"m 938 0 l 728 0 l 728 428 l 335 428 l 335 0 l 125 0 l 125 992 l 335 992 l 335 603 l 728 603 l 728 992 l 938 992 l 938 0 z "},"О":{"ha":1106,"x_min":81,"x_max":1025,"o":"m 1025 497 q 974 228 1025 343 q 819 50 924 114 q 553 -14 715 -14 q 287 50 392 -14 q 131 229 182 114 q 81 499 81 344 q 131 767 81 653 q 287 944 182 881 q 554 1007 392 1007 q 819 944 715 1007 q 974 766 924 881 q 1025 497 1025 651 m 301 497 q 361 252 301 342 q 553 163 421 163 q 746 252 688 163 q 804 497 804 342 q 746 743 804 654 q 554 832 688 832 q 361 743 421 832 q 301 497 301 654 z "},"П":{"ha":1035,"x_min":125,"x_max":910,"o":"m 125 0 l 125 992 l 910 992 l 910 0 l 700 0 l 700 817 l 335 817 l 335 0 l 125 0 z "},"Р":{"ha":872,"x_min":125,"x_max":810,"o":"m 442 992 q 722 909 633 992 q 810 682 810 826 q 774 520 810 596 q 653 399 738 444 q 425 353 569 353 l 335 353 l 335 0 l 125 0 l 125 992 l 442 992 m 431 819 l 335 819 l 335 525 l 404 525 q 545 560 493 525 q 597 675 597 596 q 431 819 597 819 z "},"С":{"ha":885,"x_min":81,"x_max":836,"o":"m 546 831 q 361 740 425 831 q 297 493 297 650 q 356 248 297 335 q 546 161 415 161 q 667 175 607 161 q 799 214 728 189 l 799 38 q 669 -1 733 11 q 526 -14 606 -14 q 274 49 374 -14 q 128 227 175 113 q 81 494 81 342 q 135 760 81 644 q 292 940 189 875 q 546 1006 396 1006 q 694 987 619 1006 q 836 936 768 968 l 768 765 q 656 811 713 792 q 546 831 600 831 z "},"Т":{"ha":804,"x_min":28,"x_max":776,"o":"m 507 0 l 297 0 l 297 817 l 28 817 l 28 992 l 776 992 l 776 817 l 507 817 l 507 0 z "},"У":{"ha":921,"x_min":14,"x_max":921,"o":"m 614 290 q 526 127 572 196 q 407 22 479 58 q 218 -14 335 -14 q 139 -8 182 -14 q 60 7 96 -3 l 60 188 q 133 168 93 174 q 208 163 174 163 q 308 197 278 163 q 357 279 339 231 l 14 992 l 236 992 l 421 563 q 447 503 431 542 q 472 439 464 465 l 479 439 q 503 504 488 464 q 532 575 519 544 l 704 992 l 921 992 l 614 290 z "},"Ф":{"ha":1194,"x_min":63,"x_max":1132,"o":"m 692 883 q 951 827 854 879 q 1090 693 1047 775 q 1132 514 1132 611 q 1110 386 1132 451 q 1038 266 1089 321 q 903 176 988 211 q 692 139 818 142 l 692 -14 l 503 -14 l 503 139 q 290 176 375 142 q 154 267 204 211 q 83 387 104 322 q 63 514 63 451 q 105 693 63 611 q 244 827 147 775 q 503 883 340 879 l 503 1006 l 692 1006 l 692 883 m 503 719 q 314 658 368 714 q 260 515 260 601 q 318 365 260 422 q 503 301 376 307 l 503 719 m 692 301 q 877 365 819 307 q 935 515 935 422 q 881 658 935 601 q 692 719 828 714 l 692 301 z "},"Х":{"ha":926,"x_min":0,"x_max":926,"o":"m 926 0 l 686 0 l 456 375 l 225 0 l 0 0 l 329 511 l 21 992 l 253 992 l 467 635 l 676 992 l 903 992 l 592 500 l 926 0 z "},"Ц":{"ha":1085,"x_min":125,"x_max":1057,"o":"m 1057 167 l 1057 -289 l 854 -289 l 854 0 l 125 0 l 125 992 l 335 992 l 335 175 l 700 175 l 700 992 l 910 992 l 910 167 l 1057 167 z "},"Ч":{"ha":1011,"x_min":74,"x_max":886,"o":"m 886 0 l 676 0 l 676 383 q 516 338 589 353 q 369 322 443 322 q 152 390 231 322 q 74 582 74 457 l 74 992 l 283 992 l 283 642 q 317 533 283 569 q 429 497 350 497 q 546 510 488 497 q 676 547 604 522 l 676 992 l 886 992 l 886 0 z "},"Ш":{"ha":1497,"x_min":125,"x_max":1372,"o":"m 1372 0 l 125 0 l 125 992 l 335 992 l 335 175 l 643 175 l 643 992 l 854 992 l 854 175 l 1163 175 l 1163 992 l 1372 992 l 1372 0 z "},"Щ":{"ha":1547,"x_min":125,"x_max":1519,"o":"m 1519 167 l 1519 -289 l 1317 -289 l 1317 0 l 125 0 l 125 992 l 335 992 l 335 175 l 643 175 l 643 992 l 854 992 l 854 175 l 1163 175 l 1163 992 l 1372 992 l 1372 167 l 1519 167 z "},"Ъ":{"ha":1010,"x_min":0,"x_max":947,"o":"m 249 0 l 249 817 l 0 817 l 0 992 l 458 992 l 458 611 l 542 611 q 772 572 682 611 q 904 465 861 533 q 947 310 947 397 q 849 81 947 163 q 538 0 751 0 l 249 0 m 529 172 q 680 203 625 172 q 735 310 735 233 q 675 414 735 389 q 513 439 615 439 l 458 439 l 458 172 l 529 172 z "},"Ы":{"ha":1258,"x_min":125,"x_max":1133,"o":"m 125 0 l 125 992 l 335 992 l 335 611 l 403 611 q 629 572 540 611 q 760 465 718 533 q 803 310 803 397 q 706 81 803 163 q 396 0 608 0 l 125 0 m 924 0 l 924 992 l 1133 992 l 1133 0 l 924 0 m 390 172 q 537 203 483 172 q 590 310 590 233 q 535 414 590 389 q 381 439 481 439 l 335 439 l 335 172 l 390 172 z "},"Ь":{"ha":886,"x_min":125,"x_max":824,"o":"m 125 0 l 125 992 l 335 992 l 335 611 l 418 611 q 648 572 558 611 q 781 465 738 533 q 824 310 824 397 q 726 81 824 163 q 414 0 628 0 l 125 0 m 406 172 q 556 203 501 172 q 611 310 611 233 q 551 414 611 389 q 389 439 492 439 l 335 439 l 335 172 l 406 172 z "},"Э":{"ha":921,"x_min":49,"x_max":840,"o":"m 375 831 q 243 812 308 831 q 115 767 178 793 l 49 936 q 204 987 122 968 q 379 1006 286 1006 q 719 872 599 1006 q 840 494 840 738 q 789 227 840 342 q 631 49 738 113 q 360 -14 525 -14 q 206 -1 275 -14 q 67 38 138 11 l 67 214 q 213 175 146 189 q 347 161 281 161 q 544 224 475 161 q 619 414 614 288 l 189 414 l 189 586 l 618 586 q 549 766 614 701 q 375 831 483 831 z "},"Ю":{"ha":1486,"x_min":125,"x_max":1406,"o":"m 1406 497 q 1358 228 1406 343 q 1213 50 1310 114 q 964 -14 1115 -14 q 731 41 825 -14 q 587 195 638 96 q 525 428 536 294 l 335 428 l 335 0 l 125 0 l 125 992 l 335 992 l 335 603 l 529 603 q 658 898 551 789 q 965 1007 765 1007 q 1213 944 1115 1007 q 1358 766 1311 881 q 1406 497 1406 651 m 740 497 q 794 252 740 342 q 964 163 849 163 q 1136 252 1083 163 q 1189 497 1189 342 q 1136 743 1189 654 q 967 832 1083 832 q 794 743 849 832 q 740 497 740 654 z "},"Я":{"ha":924,"x_min":-7,"x_max":799,"o":"m 458 381 l 226 0 l -7 0 l 275 436 q 194 485 235 453 q 128 573 154 518 q 101 708 101 628 q 200 919 101 846 q 476 992 299 992 l 799 992 l 799 0 l 589 0 l 589 381 l 458 381 m 485 819 q 359 790 404 819 q 314 693 314 761 q 358 590 314 628 q 490 551 401 551 l 589 551 l 589 819 l 485 819 z "},"а":{"ha":839,"x_min":58,"x_max":735,"o":"m 419 774 q 653 708 572 774 q 735 506 735 642 l 735 0 l 590 0 l 550 103 l 544 103 q 442 14 496 42 q 293 -14 388 -14 q 125 45 192 -14 q 58 226 58 104 q 143 405 58 347 q 397 468 228 463 l 529 472 l 529 506 q 498 593 529 565 q 411 621 467 621 q 303 605 356 621 q 197 565 250 589 l 129 706 q 265 756 190 738 q 419 774 339 774 m 449 349 q 310 313 349 346 q 271 225 271 279 q 299 158 271 178 q 371 138 326 138 q 483 177 438 138 q 529 289 529 217 l 529 351 l 449 349 z "},"б":{"ha":864,"x_min":63,"x_max":801,"o":"m 63 454 q 158 844 63 706 q 472 1022 253 983 q 622 1044 546 1035 q 778 1063 697 1053 l 801 882 q 698 869 754 876 q 587 856 642 863 q 489 843 532 850 q 374 809 419 832 q 303 736 328 786 q 274 592 279 686 l 283 592 q 330 644 300 618 q 404 689 360 671 q 506 707 449 707 q 722 624 642 707 q 801 375 801 540 q 754 160 801 246 q 624 30 707 74 q 431 -14 540 -14 q 163 107 263 -14 q 63 454 63 228 m 443 154 q 549 199 508 154 q 590 357 590 243 q 560 501 590 447 q 457 554 531 554 q 374 533 413 554 q 310 484 336 511 q 274 438 283 457 q 289 301 274 367 q 341 195 304 236 q 443 154 378 154 z "},"в":{"ha":874,"x_min":108,"x_max":804,"o":"m 781 560 q 742 456 781 499 q 629 400 704 413 l 629 394 q 756 340 708 385 q 804 226 804 296 q 770 110 804 161 q 663 29 736 58 q 469 0 589 0 l 108 0 l 108 758 l 469 758 q 628 740 558 758 q 740 678 699 721 q 781 560 781 635 m 571 543 q 461 613 571 613 l 315 613 l 315 463 l 438 463 q 537 481 503 463 q 571 543 571 500 m 590 238 q 556 302 590 282 q 451 322 521 322 l 315 322 l 315 143 l 456 143 q 552 165 514 143 q 590 238 590 186 z "},"г":{"ha":664,"x_min":108,"x_max":632,"o":"m 632 758 l 632 603 l 315 603 l 315 0 l 108 0 l 108 758 l 632 758 z "},"д":{"ha":922,"x_min":19,"x_max":901,"o":"m 790 758 l 790 151 l 901 151 l 901 -272 l 715 -272 l 715 0 l 206 0 l 206 -272 l 19 -272 l 19 151 l 83 151 q 168 326 133 228 q 224 535 203 424 q 254 758 244 646 l 790 758 m 428 603 q 382 363 411 476 q 300 151 353 250 l 583 151 l 583 603 l 428 603 z "},"е":{"ha":821,"x_min":63,"x_max":761,"o":"m 421 772 q 669 683 578 772 q 761 428 761 593 l 761 328 l 272 328 q 324 190 275 240 q 461 140 374 140 q 594 155 535 140 q 718 200 654 169 l 718 40 q 601 -1 663 13 q 451 -14 539 -14 q 250 28 338 -14 q 113 157 163 71 q 63 374 63 243 q 108 595 63 507 q 233 728 153 683 q 421 772 314 772 m 422 625 q 323 586 363 625 q 276 465 283 547 l 567 465 q 531 580 565 535 q 422 625 496 625 z "},"ж":{"ha":1213,"x_min":0,"x_max":1213,"o":"m 1186 758 l 907 394 l 1213 0 l 992 0 l 703 385 l 703 0 l 510 0 l 510 385 l 221 0 l 0 0 l 306 394 l 26 758 l 240 758 l 510 390 l 510 758 l 703 758 l 703 390 l 972 758 l 1186 758 z "},"з":{"ha":771,"x_min":53,"x_max":718,"o":"m 385 772 q 538 751 467 772 q 653 685 610 729 q 697 571 697 640 q 656 463 697 503 q 546 404 615 422 l 546 397 q 633 366 594 386 q 695 312 672 346 q 718 221 718 278 q 678 105 718 158 q 556 19 639 51 q 344 -14 474 -14 q 53 33 156 -14 l 53 204 q 169 164 100 182 q 315 146 238 146 q 458 165 400 146 q 517 233 517 185 q 301 324 517 324 l 221 324 l 221 467 l 297 467 q 456 483 400 467 q 513 546 513 500 q 476 601 513 582 q 358 619 440 619 q 240 607 304 619 q 119 571 176 594 l 58 715 q 201 756 124 740 q 385 772 279 772 z "},"и":{"ha":1000,"x_min":108,"x_max":892,"o":"m 308 458 q 306 400 308 435 q 302 329 304 365 q 297 265 300 293 q 293 226 294 238 l 643 758 l 892 758 l 892 0 l 692 0 l 692 303 q 694 385 692 340 q 701 470 697 431 q 706 531 704 510 l 357 0 l 108 0 l 108 758 l 308 758 l 308 458 z "},"й":{"ha":1000,"x_min":108,"x_max":892,"o":"m 835 1085 q 794 958 828 1013 q 690 872 761 903 q 500 842 619 842 q 309 872 378 842 q 211 956 240 901 q 176 1085 182 1010 l 361 1085 q 400 983 368 1008 q 504 958 432 958 q 602 985 564 958 q 647 1085 640 1013 l 835 1085 m 308 458 q 306 400 308 435 q 302 329 304 365 q 297 265 300 293 q 293 226 294 238 l 643 758 l 892 758 l 892 0 l 692 0 l 692 303 q 694 385 692 340 q 701 470 697 431 q 706 531 704 510 l 357 0 l 108 0 l 108 758 l 308 758 l 308 458 z "},"к":{"ha":860,"x_min":108,"x_max":860,"o":"m 606 758 l 833 758 l 533 394 l 860 0 l 625 0 l 315 385 l 315 0 l 108 0 l 108 758 l 315 758 l 315 390 l 606 758 z "},"л":{"ha":896,"x_min":0,"x_max":788,"o":"m 788 0 l 581 0 l 581 603 l 390 603 q 342 245 372 381 q 260 48 313 110 q 118 -14 207 -14 q 0 8 46 -14 l 0 174 q 67 160 32 160 q 113 185 92 160 q 152 275 133 210 q 186 458 171 340 q 214 758 201 575 l 788 758 l 788 0 z "},"м":{"ha":1172,"x_min":108,"x_max":1064,"o":"m 1064 758 l 1064 0 l 871 0 l 871 372 q 873 481 871 428 q 879 578 875 533 l 875 578 l 665 0 l 510 0 l 297 579 l 292 579 q 299 481 297 533 q 301 367 301 429 l 301 0 l 108 0 l 108 758 l 401 758 l 590 244 l 782 758 l 1064 758 z "},"н":{"ha":919,"x_min":108,"x_max":811,"o":"m 315 758 l 315 467 l 604 467 l 604 758 l 811 758 l 811 0 l 604 0 l 604 313 l 315 313 l 315 0 l 108 0 l 108 758 l 315 758 z "},"о":{"ha":860,"x_min":63,"x_max":797,"o":"m 797 381 q 698 89 797 192 q 428 -14 599 -14 q 240 32 322 -14 q 110 166 157 78 q 63 381 63 254 q 161 671 63 569 q 432 772 260 772 q 621 726 539 772 q 750 594 703 681 q 797 381 797 507 m 274 381 q 310 210 274 268 q 431 153 347 153 q 549 210 513 153 q 586 381 586 268 q 549 549 586 493 q 429 606 513 606 q 310 549 347 606 q 274 381 274 493 z "},"п":{"ha":906,"x_min":108,"x_max":797,"o":"m 797 758 l 797 0 l 590 0 l 590 603 l 315 603 l 315 0 l 108 0 l 108 758 l 797 758 z "},"р":{"ha":879,"x_min":108,"x_max":817,"o":"m 531 772 q 738 673 658 772 q 817 381 817 574 q 735 87 817 188 q 525 -14 653 -14 q 394 16 443 -14 q 315 83 346 46 l 304 83 q 315 -28 315 25 l 315 -333 l 108 -333 l 108 758 l 276 758 l 306 660 l 315 660 q 397 739 346 706 q 531 772 449 772 m 464 607 q 351 557 383 607 q 315 404 318 507 l 315 382 q 348 213 315 272 q 467 154 381 154 q 572 213 538 154 q 606 383 606 272 q 464 607 606 607 z "}}}
